<svg width="100" height="144" viewBox="0 0 100 144" fill="none" xmlns="http://www.w3.org/2000/svg">
<path d="M49.6123 8.56201C27.3304 8.56201 9.30225 25.8072 9.30225 47.0582C9.30225 68.3092 49.6123 129.211 49.6123 129.211C49.6123 129.211 89.9224 68.3092 89.9224 47.0582C89.9224 25.8072 71.8943 8.56201 49.6123 8.56201Z" fill="#F58021"/>
<path fill-rule="evenodd" clip-rule="evenodd" d="M60.8261 43.1612L60.8276 43.1642C61.3305 44.2017 61.8334 45.2392 62.3546 46.3226C62.2226 46.427 62.0889 46.5348 61.9532 46.6442L61.9531 46.6442C61.6466 46.8914 61.3299 47.1466 61 47.3887C60.6334 47.6562 60.2698 47.9275 59.9064 48.1987L59.9062 48.1988C59.0087 48.8685 58.1123 49.5374 57.1742 50.1458C53.7969 52.3422 50.0717 53.2337 46.0629 52.8845C45.0835 52.8018 44.0493 52.4617 43.6374 52.1768C43.8751 50.525 44.1035 48.9189 44.332 47.313L44.333 47.306C44.3056 47.2968 44.2759 47.2899 44.2462 47.283L44.2461 47.283C44.2163 47.2761 44.1866 47.2692 44.1591 47.26C44.0699 47.4418 43.9815 47.6236 43.8931 47.8051C43.6733 48.2569 43.4541 48.7074 43.2256 49.1532C42.632 50.3308 42.234 51.5814 41.8351 52.8347L41.8351 52.8347C41.7235 53.1855 41.6118 53.5365 41.4957 53.8862C40.7635 56.0643 39.4547 57.7369 37.2306 58.5548C37.1207 58.6008 37.0292 58.7846 36.9834 58.9225C36.8938 59.2083 36.8141 59.4974 36.7344 59.7863C36.6271 60.1756 36.5199 60.5645 36.3885 60.9443C35.8851 62.4148 34.9424 63.5544 33.6702 64.4274C33.1027 64.8134 32.5352 65.2086 31.9952 65.6313C31.5285 65.9898 31.5468 66.146 32.0044 66.5044C32.0939 66.5746 32.184 66.6437 32.2738 66.7127C32.5605 66.9327 32.8449 67.151 33.1027 67.3959C33.5237 67.8003 33.7159 68.3149 33.5603 68.9031C33.5237 69.0409 33.3132 69.2247 33.1851 69.2247C30.183 69.2431 27.1718 69.2431 24.1697 69.2339C24.0599 69.2339 23.9043 69.1972 23.8402 69.1236C23.7483 69.0112 23.6541 68.8993 23.5597 68.787L23.5597 68.7869C23.2218 68.3851 22.8804 67.9791 22.6229 67.5337C22.4582 67.2488 22.4399 66.7709 22.5497 66.4493C23.6114 63.2051 24.9752 60.1264 27.547 57.7645C27.6569 57.6634 27.7209 57.4428 27.7301 57.2866C27.7942 54.9523 28.0688 52.6363 28.6637 50.3847C29.1762 48.4364 29.7254 46.488 30.6956 44.6959C32.4803 41.4242 34.7868 38.6947 38.3289 37.2243C41.3767 35.9652 44.3513 36.1582 47.2527 37.647C47.651 37.8532 48.0113 38.136 48.3622 38.4114C48.5273 38.541 48.6904 38.669 48.8544 38.7866C48.5249 38.0698 47.9483 37.4816 47.3259 36.9394C47.9121 36.7155 48.5004 36.4988 49.0876 36.2825C51.6825 35.3268 54.2571 34.3785 56.5335 32.8497C56.6337 33.1998 56.7322 33.5534 56.8311 33.909L56.8313 33.9095C56.9583 34.3659 57.0863 34.8255 57.22 35.2851C57.2566 35.3954 57.3298 35.4965 57.4213 35.5884C57.2383 34.4488 57.2383 33.3092 57.6685 32.2615C58.0712 31.269 58.5563 30.2672 59.1786 29.4033C60.7071 27.308 62.5468 25.4883 64.597 23.8984L64.5971 23.8983C64.6795 23.834 64.7618 23.7697 64.8533 23.7054C65.0003 23.6112 65.1459 23.5108 65.2918 23.4103L65.2919 23.4102C66.0003 22.922 66.7159 22.4289 67.6265 22.6117C69.1276 22.9058 70.3815 23.6962 71.2418 24.992C71.489 25.3596 71.7727 25.617 72.1663 25.7548C73.1914 26.1132 73.9602 26.729 74.4544 27.7307C74.6336 28.0967 74.892 28.4209 75.1508 28.7455C75.2754 28.9018 75.4001 29.0583 75.5161 29.2195C75.7541 29.5504 75.7999 29.8261 75.5345 30.2121C75.3148 30.5337 75.205 30.9657 75.1409 31.3609C75.0585 31.8296 75.2416 32.1329 75.7358 32.3902C77.0263 33.0519 77.7769 34.5315 77.0629 36.0295C76.944 36.2777 76.8341 36.5258 76.7334 36.7831C76.2575 38.0146 75.3514 38.4466 74.1066 38.0146C74.0938 38.0103 74.0808 38.0061 74.0677 38.0018C74.0597 37.9992 74.0517 37.9966 74.0437 37.9939C73.9802 37.9733 73.9167 37.9526 73.8687 37.9319C73.6398 38.2536 73.411 38.566 73.1639 38.8969C73.1288 38.8538 73.0987 38.8224 73.0757 38.7984C73.0447 38.7661 73.0266 38.7473 73.0266 38.7315C73.0998 37.9411 72.6239 37.4724 72.093 36.9945C69.6127 34.7521 66.574 35.1564 64.4963 36.4523C64.7299 36.4047 64.9613 36.3528 65.1921 36.3011C65.6304 36.2027 66.0662 36.1049 66.5099 36.0387C69.1459 35.6711 71.4341 36.8566 72.6514 39.2277C73.4934 40.8636 74.0883 42.573 73.9419 44.4662L73.9403 44.4883V44.4884C73.9133 44.8592 73.8839 45.263 73.7314 45.5874C73.2005 46.727 73.3653 47.8758 73.6582 49.0062L73.7121 49.2168L73.7122 49.2169C73.987 50.2909 74.2691 51.3935 74.7931 52.3422C76.8158 55.9908 76.9806 59.9334 76.8341 63.9311C76.7701 65.6497 76.2209 67.1753 74.8114 68.2873C74.0243 68.9123 73.1822 69.3442 72.1297 69.2615C71.6446 69.2247 71.1503 69.2155 70.6652 69.2615C69.75 69.3626 69.1184 68.9031 68.5784 68.2598C67.9927 67.5705 67.7272 66.7709 67.892 65.8703C67.9377 65.6314 68.1116 65.3373 68.313 65.227C68.5659 65.0921 68.7506 65.2793 68.9378 65.469C68.9673 65.499 68.9969 65.529 69.0269 65.5578C69.309 65.8319 69.6815 66.0334 70.0366 66.2253L70.0367 66.2254L70.0429 66.2287C70.354 66.3941 70.5188 66.2563 70.5554 65.9071C70.592 65.4935 70.4639 65.1443 70.1527 64.8778C68.4045 63.3797 67.3062 61.4222 66.3177 59.3912C65.558 57.8196 65.073 56.1746 64.8991 54.4284C64.7709 53.1142 64.9997 51.8368 65.2469 50.5593C65.3658 49.9803 65.4848 49.3922 65.5214 48.7948C65.6038 47.6093 65.1919 46.6075 64.176 45.9734C62.9221 45.1922 61.8055 44.2548 60.9085 43.0785C60.9177 43.106 60.8719 43.1336 60.8261 43.1612ZM63.5078 47.3334C64.0387 47.7654 64.2309 48.2616 64.121 48.8774C64.0533 49.2756 63.9788 49.6726 63.9043 50.0697L63.9042 50.0699C63.7672 50.8001 63.6301 51.5305 63.5353 52.2686C63.2241 54.7591 63.8007 57.1118 64.7617 59.3818C64.9356 59.7954 64.9539 60.1263 64.7709 60.5398C63.938 62.433 63.0319 64.2803 61.8603 65.9988C60.341 68.2229 58.2176 69.2522 55.5633 69.2522C55.4064 69.2522 55.2504 69.2547 55.0947 69.2572H55.0947C54.7325 69.2629 54.3722 69.2687 54.0073 69.243C53.8243 69.2338 53.5955 69.1143 53.4948 68.9673C52.6436 67.8093 52.79 65.4107 53.7694 64.3538C53.8792 64.2343 54.1263 64.124 54.2636 64.17C54.368 64.2074 54.442 64.3667 54.5104 64.514C54.5259 64.5475 54.5412 64.5804 54.5565 64.6111C54.5943 64.6869 54.6217 64.7705 54.649 64.8536C54.6945 64.9921 54.7396 65.1292 54.8311 65.2268C54.9958 65.4198 55.2796 65.6956 55.4626 65.6588C55.6548 65.622 55.847 65.282 55.9294 65.043C56.0118 64.8133 55.9843 64.5284 55.9386 64.2894C55.8722 63.953 55.789 63.6189 55.706 63.2855C55.56 62.6992 55.4145 62.1149 55.3619 61.5232C55.1148 58.8672 55.3528 56.2572 56.4969 53.8034C56.7623 53.2428 57.0643 52.673 57.4579 52.1951C57.8698 51.6804 58.3823 51.2301 58.904 50.8257C59.4394 50.4033 59.991 50.0039 60.5434 49.6039C60.9165 49.3338 61.29 49.0633 61.659 48.7855C62.0704 48.471 62.4778 48.1482 62.8921 47.8199L62.8922 47.8199L62.8926 47.8195C63.0956 47.6587 63.3002 47.4966 63.5078 47.3334ZM43.8366 53.8675C43.6016 53.7977 43.3654 53.7275 43.1249 53.6565C43.0433 53.8339 42.9643 54.0138 42.885 54.1944C42.7507 54.5003 42.6155 54.808 42.4659 55.1086C41.5598 56.9466 40.3699 58.5457 38.5302 59.575C38.3838 59.6577 38.2831 59.8691 38.2282 60.0437C37.7889 61.5234 37.2397 62.9387 36.2238 64.1334C36.1505 64.2253 36.0865 64.3907 36.1139 64.4918C36.4343 65.5119 36.7638 66.5321 37.1207 67.5338C37.1848 67.7084 37.377 67.8738 37.5509 67.9749C38.2007 68.3425 38.8506 68.701 39.5187 69.041C39.7384 69.1513 39.9947 69.2524 40.2326 69.2524C42.168 69.2662 44.0982 69.2644 46.031 69.2627C46.6758 69.2621 47.3209 69.2616 47.9666 69.2616H48.5341C48.4725 69.1349 48.4224 69.0113 48.3749 68.8943C48.2812 68.6634 48.1979 68.4583 48.0582 68.3058C47.7104 67.929 47.3168 67.5705 46.8958 67.2857C46.5004 67.0186 46.0712 66.7969 45.6435 66.576C45.5267 66.5156 45.4099 66.4553 45.294 66.3942C44.8364 66.1461 44.6351 65.7785 44.6717 65.2638C44.6778 65.1413 44.692 65.0187 44.7062 64.8962C44.7134 64.8349 44.7205 64.7737 44.7266 64.7124C44.7546 64.4341 44.7894 64.155 44.8243 63.8756C44.9035 63.2413 44.9829 62.6053 44.9829 61.9737C44.9829 60.6595 44.3971 59.5291 43.5642 58.5365C45.0103 57.4521 45.294 55.9173 45.4313 54.3366C44.8813 54.1779 44.3618 54.0235 43.8366 53.8675Z" fill="#20113D"/>
</svg>
