<svg width="100" height="144" viewBox="0 0 100 144" fill="none" xmlns="http://www.w3.org/2000/svg">
<path d="M49.6123 8.56201C27.3304 8.56201 9.30225 25.8072 9.30225 47.0582C9.30225 68.3092 49.6123 129.211 49.6123 129.211C49.6123 129.211 89.9224 68.3092 89.9224 47.0582C89.9224 25.8072 71.8943 8.56201 49.6123 8.56201Z" fill="#F58021"/>
<path d="M40.0622 62.6874C40.2864 63.1792 40.6308 62.9454 40.9912 62.9374C41.5678 62.9212 41.9201 62.5342 42.4407 62.3085C41.9842 62.1714 41.5998 62.0505 41.1914 61.9215C41.0632 62.1875 40.9271 62.4778 40.7829 62.7761C40.7429 62.7761 40.6949 62.7761 40.6548 62.7761C40.6068 62.5584 40.5427 62.3407 40.5267 62.123C40.5107 61.865 40.4226 61.736 40.1503 61.728C39.9981 61.7199 39.846 61.6231 39.6378 61.5425C39.4856 61.9457 39.3094 62.3972 39.1012 62.9535C38.7488 62.3407 38.8129 61.7683 38.8449 61.2119C38.3804 60.9459 38.3804 60.9459 38.0921 61.8247C38.0361 61.6876 37.94 61.5506 37.932 61.4135C37.8999 61.0749 37.7638 60.8652 37.4034 60.7685C37.1151 60.6798 37.019 60.7121 37.011 61.0265C37.003 61.3974 36.963 61.7763 36.8989 62.1472C36.8749 62.3165 36.7708 62.4778 36.7067 62.6471C36.6666 62.6471 36.6266 62.6471 36.5946 62.6471C36.5465 62.4939 36.4905 62.3407 36.4424 62.1875C36.3063 61.728 36.1861 61.2603 36.042 60.8007C35.9859 60.6153 35.8978 60.5105 35.6576 60.5911C35.4974 60.6476 35.3052 60.5992 35.0409 60.5992C34.9769 60.7927 34.8808 61.0588 34.7847 61.3248C34.7446 61.3329 34.6966 61.3409 34.6565 61.349C34.5765 61.1152 34.5044 60.8814 34.4083 60.6476C34.3522 60.5105 34.2721 60.3895 34.2001 60.2605C34.112 60.3895 34.0319 60.5266 33.9438 60.6556C33.9118 60.7121 33.8797 60.7685 33.7996 60.9217C33.6395 60.6072 33.5193 60.3573 33.3832 60.0912C32.2941 60.0509 32.6544 61.0265 32.4062 61.5748C32.3661 61.5828 32.3261 61.5909 32.2781 61.599C32.19 61.349 32.0618 61.1152 32.0298 60.8572C31.9897 60.5508 32.0538 60.2444 32.0458 59.93C32.0458 59.8252 31.9737 59.7284 31.9337 59.6236C31.8216 59.68 31.6534 59.7042 31.6134 59.7848C31.5173 60.0267 31.4692 60.2928 31.317 60.575C31.261 60.3492 31.1809 60.1235 31.1649 59.8977C31.1168 59.2043 31.0768 58.519 31.0528 57.8256C31.0207 57.0838 31.277 56.7291 31.9817 56.463C32.246 56.3582 32.4863 56.1728 32.7586 56.0679C32.9828 55.9793 33.2631 55.8664 33.4793 55.9228C34.0559 56.0599 34.6245 56.2453 35.1691 56.4791C35.6175 56.6726 36.05 56.7855 36.5465 56.7936C37.011 56.8016 37.4755 56.971 37.924 57.1322C38.2523 57.2532 38.5246 57.3419 38.8689 57.1564C39.0451 57.0677 39.3494 57.1 39.5497 57.1887C40.0302 57.3902 40.5027 57.3499 40.9992 57.2773C41.776 57.1725 42.5528 57.1322 43.3376 57.0435C43.5699 57.0193 43.8101 56.9629 44.0183 56.8662C44.3627 56.7049 44.699 56.5114 45.0194 56.3018C45.2196 56.1647 45.3798 55.9551 45.572 55.8019C46.0204 55.431 46.525 55.3907 47.0775 55.5439C47.2697 55.6003 47.502 55.5116 47.7182 55.4955C47.8463 55.4874 47.9825 55.4713 48.1106 55.4632C48.511 55.431 48.9115 55.3987 49.3199 55.3746C49.6642 55.3504 50.0166 55.2617 50.3369 55.3342C51.0337 55.4955 51.5142 55.1004 52.0027 54.7537C52.0988 54.6892 52.1228 54.3022 52.0267 54.2055C51.5462 53.7136 51.5863 53.1815 51.7704 52.601C51.9787 51.9398 52.339 51.4158 53.0037 51.1658C53.5723 50.9481 53.7485 50.6176 53.6124 50.029C53.5964 49.9725 53.5563 49.9161 53.5083 49.8758C53.26 49.65 53.0198 49.4082 52.7475 49.2147C52.6514 49.1502 52.4672 49.1663 52.339 49.2147C52.259 49.2388 52.1548 49.392 52.1709 49.4727C52.267 50.0612 51.8025 50.4321 51.6263 50.9239C51.4501 50.545 51.1858 50.1902 51.2819 49.7549C51.346 49.4565 51.2099 49.2953 50.9696 49.2711C50.8174 49.255 50.6333 49.392 50.4891 49.4888C50.3369 49.5936 50.1848 49.7145 50.0647 49.8597C49.9445 50.0048 49.8564 50.1822 49.7203 50.3999C49.5361 50.037 49.6722 49.6904 49.7043 49.3678C49.7283 49.1502 49.8725 48.9405 49.9125 48.7228C49.9365 48.5858 49.9045 48.4084 49.8244 48.2955C49.7844 48.2391 49.5842 48.2794 49.464 48.3116C49.2078 48.3842 48.9595 48.4729 48.6792 48.5696C48.5271 48.0939 48.8634 47.8037 49.1357 47.5215C49.416 47.2312 49.7603 46.9974 50.1608 46.6749C50.0086 46.5943 49.8885 46.5378 49.6883 46.433C50.0967 46.3201 50.361 46.2073 50.6413 46.1831C51.0177 46.1589 51.1057 45.9089 51.1538 45.6348C51.346 44.4496 51.8425 43.4095 52.5393 42.4581C52.7875 42.1195 53.1399 41.8615 53.4282 41.5551C53.5643 41.418 53.7245 41.2568 53.7725 41.0875C54.1249 39.7571 55.0459 38.9589 56.2071 38.3623C56.2391 38.3461 56.2792 38.33 56.2952 38.3219C56.1831 37.2819 56.079 36.2498 55.9668 35.2017C55.3021 34.8469 54.9898 34.1213 54.5413 33.5085C54.5013 33.4521 54.4613 33.3795 54.4052 33.3473C53.8446 32.9925 53.1959 32.7184 52.7314 32.2669C52.283 31.8315 51.7464 31.6944 51.2259 31.4687C50.7854 31.2752 50.345 31.0816 49.9205 30.8559C49.7363 30.7591 49.5922 30.5818 49.392 30.4044C49.1197 30.3238 48.7673 30.2431 48.439 30.1141C47.8223 29.8722 47.2377 29.5659 46.6131 29.3643C46.1406 29.2111 45.62 29.195 45.1315 29.0821C44.9313 29.0337 44.7471 28.9128 44.5629 28.816C44.4988 28.7838 44.4348 28.7273 44.3707 28.7273C43.698 28.7032 42.9692 28.8322 42.3526 28.6306C41.5518 28.3645 40.7029 28.6145 39.9581 28.2597C39.0531 27.8243 38.1162 28.0662 37.1952 28.0017C37.0911 27.9936 36.971 28.0339 36.8749 28.0017C35.7857 27.6228 34.7606 28.0985 33.7035 28.2033C33.4313 28.2275 33.151 28.2113 32.8707 28.2194C32.7666 28.2194 32.6625 28.2355 32.5583 28.2516C31.6854 28.4048 30.8045 28.558 29.9396 28.7273C29.6593 28.7838 29.379 28.8886 29.1067 28.9853C28.45 29.2111 27.7613 29.3401 27.1207 29.6546C26.0315 30.1948 24.8463 30.5414 23.7892 31.1623C23.1004 31.5654 22.3637 31.8799 21.6269 32.1943C21.4267 32.283 21.1624 32.2185 20.9302 32.2185C21.0183 32.0089 21.0663 31.7509 21.2185 31.6057C21.4027 31.4203 21.683 31.3235 21.9072 31.1703C22.0113 31.0978 22.1314 30.993 22.1715 30.8801C22.2836 30.5737 22.4598 30.3802 22.8041 30.3479C22.9163 30.3399 23.0444 30.227 23.1085 30.1302C23.3167 29.7836 23.5569 29.5255 23.9093 29.582C24.1335 29.3804 24.3177 29.2272 24.4939 29.066C24.582 28.9853 24.6541 28.8967 24.7342 28.808C24.7822 28.7515 24.8142 28.6467 24.8783 28.6225C25.4069 28.3806 25.9354 28.1549 26.464 27.913C26.5761 27.8566 26.6962 27.7921 26.7923 27.7195C27.2328 27.3889 27.7773 27.2196 28.1377 26.7359C28.2338 26.5988 28.6102 26.6472 28.8585 26.6552C29.1067 26.6552 29.2509 26.5746 29.4191 26.373C29.5872 26.1715 29.8755 26.0102 30.1318 25.9538C30.4922 25.8812 30.8606 26.0183 31.1489 25.5829C31.269 25.3974 31.7095 25.4378 32.0058 25.3491C32.1579 25.3088 32.3902 25.2604 32.4382 25.1475C32.6544 24.6799 33.0388 24.7444 33.4232 24.7282C33.6555 24.7202 33.8957 24.6396 34.128 24.5912C34.4083 24.5347 34.6966 24.4057 34.9689 24.4219C35.2411 24.446 35.4334 24.4219 35.6015 24.2042C35.6416 24.1558 35.7056 24.0913 35.7617 24.0913C36.4344 24.0671 36.995 23.4624 37.7318 23.7043C37.8118 23.7285 37.924 23.6559 38.012 23.6237C38.6287 23.3979 39.2373 23.156 39.854 22.9544C40.0222 22.898 40.2384 22.9141 40.4066 22.9706C40.831 23.1076 41.1754 22.9706 41.5598 22.8013C41.776 22.7045 42.0563 22.7448 42.3045 22.7287C42.5448 22.7126 42.785 22.7126 43.0253 22.6964C43.0733 22.6964 43.1294 22.64 43.1775 22.6481C44.0343 22.8819 44.9633 22.2127 45.7962 22.8738C45.8923 22.9544 46.1325 22.9141 46.2767 22.8496C46.613 22.7045 46.9014 22.5916 47.2377 22.8819C47.3338 22.9625 47.558 22.8899 47.7262 22.898C47.9745 22.9141 48.2147 22.9303 48.463 22.9625C48.7833 23.0028 49.1037 23.1076 49.424 23.0996C49.7844 23.0915 50.0887 23.1238 50.377 23.3818C50.5452 23.5269 50.8335 23.5833 51.0737 23.5914C51.4821 23.5995 51.8665 23.5753 52.1629 23.9381C52.1949 23.9784 52.283 23.9865 52.347 23.9784C52.4111 23.9784 52.5072 23.9139 52.5393 23.9381C52.9317 24.2687 53.4442 24.188 53.8847 24.3574C54.173 24.4702 54.4212 24.6718 54.6935 24.8169C54.7656 24.8572 54.8777 24.8492 54.9578 24.8169C55.3102 24.696 55.5264 24.8572 55.6625 25.1636C55.7907 25.4539 55.9748 25.591 56.3032 25.599C56.4634 25.6071 56.7196 25.7119 56.7677 25.8409C56.9038 26.1876 57.1361 26.2521 57.4564 26.2521C57.5525 26.2521 57.6566 26.3166 57.7527 26.365C59.0981 27.0987 60.4435 27.8404 61.7969 28.558C63.2705 29.3401 64.3917 30.5173 65.4808 31.7428C66.0974 32.4442 66.6901 33.1618 67.3708 33.831C67.2346 33.5891 67.0664 33.3634 66.9623 33.1054C66.8823 32.9199 66.7942 32.6458 66.8742 32.5087C67.1786 31.9847 67.5149 31.4687 67.8993 31.001C68.1155 30.743 68.4439 30.6946 68.7722 30.9285C68.8924 31.0171 69.0685 31.0413 69.2287 31.0655C69.5651 31.122 69.8774 31.1542 70.0135 31.5654C70.0536 31.6864 70.3499 31.7428 70.5341 31.7831C71.0706 31.8879 71.2388 31.9766 71.399 32.3072C70.7663 32.5894 70.7984 32.5974 71.2708 33.1779C72.1598 34.2664 72.7364 35.4839 72.4961 36.9513C72.4801 37.0642 72.5442 37.2093 72.6002 37.3222C72.9927 38.0559 72.9846 38.7896 72.5682 39.5072C72.2399 40.0716 71.9676 40.6924 71.2388 40.8939C72.5442 44.4818 72.5362 48.0456 71.2708 51.6415C72.2078 51.8028 72.9206 52.2946 73.5292 52.9638C73.5452 52.9799 73.5693 53.0041 73.5853 53.0202C74.0738 53.754 74.5943 54.4473 75.195 55.1004C75.4913 55.4229 75.5874 56.0034 75.6434 56.4791C75.7155 57.1403 75.6674 57.8176 75.6594 58.4948C75.6514 59.0834 75.8677 59.4059 76.3962 59.6155C76.7005 59.7365 76.9968 59.8897 77.2771 60.059C77.4293 60.1557 77.5414 60.3331 77.6695 60.4702C77.6455 60.4944 77.6295 60.5266 77.6055 60.5508C77.4453 60.5186 77.2932 60.4944 77.0849 60.4541C77.117 60.5427 77.117 60.6072 77.149 60.6234C77.4934 60.8814 77.8377 61.1394 78.1981 61.3813C78.6866 61.7199 78.5665 62.2682 78.6946 62.76C78.2782 62.3891 77.6055 62.7277 77.2851 62.1633C77.2451 62.0908 76.9808 62.1553 76.9168 62.1553C76.8687 62.8729 76.8287 63.5421 76.7886 64.2032C76.7566 64.2193 76.7165 64.2274 76.6845 64.2435C76.4282 63.9371 76.172 63.6308 75.9077 63.3324C75.8276 63.2437 75.6514 63.1228 75.6274 63.147C75.5153 63.2357 75.3711 63.3889 75.3872 63.4937C75.4272 63.7678 75.3071 63.8726 75.0908 63.9855C74.9627 64.05 74.8746 64.2032 74.7705 64.3241C74.6744 64.437 74.5863 64.566 74.4982 64.687C74.4582 64.6789 74.4181 64.6708 74.3781 64.6628C74.3621 64.4612 74.3301 64.2596 74.322 64.0581C74.306 63.7678 74.322 63.4776 74.306 63.1873C74.282 62.8648 74.0898 62.7842 73.8255 62.9696C73.7615 63.018 73.6974 63.0825 73.6253 63.0906C73.1768 63.1712 73.1688 63.1712 73.0167 63.6308C72.9366 63.4856 72.8725 63.405 72.8405 63.3002C72.7124 62.8245 72.9526 62.1633 73.369 61.9053C73.8095 61.6393 73.8736 60.8652 73.6493 60.5024C73.3931 60.0912 73.1208 59.6962 72.8725 59.285C72.6643 58.9383 72.5682 58.5916 72.7043 58.1723C72.8485 57.7208 72.6002 57.3741 72.1438 57.2532C71.423 57.0677 70.7103 56.8742 69.9575 56.6646C69.6612 57.0919 69.3408 57.5676 69.0045 58.0352C68.1476 59.2205 67.0825 60.1154 65.6249 60.4621C65.4407 60.5024 65.2726 60.6476 65.1124 60.7524C64.8561 60.9217 64.6159 61.1313 64.2715 60.9943C64.2155 60.9701 64.0953 61.0346 64.0473 61.0991C62.0372 63.792 59.5065 65.8238 56.3432 66.9606C55.0138 67.4363 53.6444 67.783 52.267 68.0975C51.7865 68.2023 51.2419 68.0572 50.7374 67.9685C50.5291 67.9282 50.377 67.8879 50.1928 68.033C48.5831 69.2666 46.8133 69.5085 44.8912 68.9602C43.69 68.6216 42.4887 68.5571 41.2635 68.9118C40.8951 69.0166 40.4706 68.9199 40.0782 68.9199C39.3174 68.9118 38.5646 68.9038 37.8038 68.9038C37.7398 68.9038 37.6677 68.9199 37.6116 68.9521C36.6746 69.5165 35.6576 69.1618 34.6726 69.2021C33.5674 69.2505 32.7025 68.6458 31.9177 67.9282C31.6214 67.654 31.6614 67.267 32.0058 66.9042C32.0858 66.8155 32.1419 66.6785 32.1579 66.5575C32.214 66.1705 32.246 65.7754 32.2861 65.3804C32.3421 65.3723 32.3982 65.3642 32.4462 65.3562C32.5023 65.5255 32.5423 65.7109 32.6224 65.8722C32.7105 66.0415 32.8386 66.3237 32.9588 66.3318C33.191 66.3398 33.4953 66.2673 33.4953 65.8883C33.4953 65.7432 33.5914 65.5981 33.7436 65.4287C33.8237 65.6061 33.8957 65.7835 33.9758 65.977C34.3122 65.719 34.6726 65.4932 34.9609 65.1949C35.097 65.0498 35.089 64.7676 35.145 64.5499C35.2331 64.2274 35.2412 63.8646 35.6416 63.5904C35.6816 64.1629 35.7136 64.6708 35.7537 65.1707C35.8097 65.1869 35.8578 65.203 35.9139 65.211C36.034 64.9853 36.1461 64.7515 36.3063 64.4451C36.4104 64.695 36.4824 64.8724 36.5625 65.0578C36.7067 65.0578 36.8428 65.0578 36.979 65.0578C37.0671 64.7998 37.1471 64.558 37.2673 64.1871C37.3794 64.4128 37.4114 64.5499 37.4915 64.6386C37.5796 64.7353 37.7157 64.8482 37.8359 64.8482C38.0361 64.8563 38.1882 64.7515 38.1802 64.5015C38.1722 64.3403 38.2123 64.171 38.2283 63.9452C38.4525 64.0823 38.6047 64.179 38.7648 64.2838C38.8529 64.1226 38.941 63.9694 39.0451 63.7839C39.7659 64.1629 39.3334 63.405 39.4616 63.2518C39.7178 63.2679 39.918 63.2841 40.1102 63.2921C40.0302 63.1228 40.0462 62.9051 40.0622 62.6874ZM54.3572 46.2234C54.3251 46.2153 54.2931 46.2073 54.2691 46.1911C53.8046 46.5217 53.3401 46.8603 52.8276 47.2232C52.9397 47.5457 53.0278 47.9004 53.1959 48.2149C53.3801 48.5696 53.6364 48.8841 53.5003 49.3275C53.4762 49.4162 53.5323 49.5372 53.5563 49.642C53.8206 48.489 54.0849 47.3602 54.3572 46.2234Z" fill="#20113D"/>
</svg>
