<svg width="100" height="144" viewBox="0 0 100 144" fill="none" xmlns="http://www.w3.org/2000/svg">
<path d="M49.6123 8.56201C27.3304 8.56201 9.30225 25.8072 9.30225 47.0582C9.30225 68.3092 49.6123 129.211 49.6123 129.211C49.6123 129.211 89.9224 68.3092 89.9224 47.0582C89.9224 25.8072 71.8943 8.56201 49.6123 8.56201Z" fill="#F58021"/>
<path fill-rule="evenodd" clip-rule="evenodd" d="M48.9437 24.008C49.8064 23.9589 50.6291 24.1392 51.4758 24.4424C51.4478 24.5237 51.4219 24.6035 51.3964 24.682L51.3964 24.6821C51.3346 24.8726 51.2754 25.0549 51.1962 25.229C50.9527 25.7657 50.7051 26.3023 50.4576 26.8389L50.4574 26.8393C50.2098 27.3761 49.9621 27.9128 49.7185 28.4496L49.7178 28.4511L49.7178 28.4511C49.586 28.7421 49.5221 28.883 49.4137 28.9419C49.3119 28.9972 49.1708 28.9802 48.8972 28.9472L48.8479 28.9412C48.5683 28.9085 48.4006 28.7855 48.3606 28.5069C48.3437 28.3896 48.3222 28.2716 48.3008 28.1536L48.3008 28.1536L48.3008 28.1535L48.3007 28.1535L48.3007 28.1535L48.3007 28.1534L48.3007 28.1534L48.3007 28.1534L48.3007 28.1533C48.2413 27.8263 48.1816 27.4984 48.2168 27.1794C48.305 26.391 48.4478 25.6078 48.5905 24.8256L48.5905 24.8251L48.5906 24.8247C48.6288 24.6153 48.667 24.4059 48.7041 24.1965C48.7201 24.1228 48.8559 24.0162 48.9437 24.008ZM43.5605 26.6623L43.5607 26.6626C44.0903 27.4707 44.6086 28.2614 45.1494 29.0382C45.3491 29.3332 45.6207 29.5955 46.06 29.4152C46.731 29.1529 46.8987 28.9727 46.699 28.2515C46.4601 27.375 46.6084 26.5321 46.7572 25.6863L46.7572 25.6862L46.7572 25.6861L46.7572 25.686L46.7573 25.6859L46.7573 25.6858L46.7573 25.6857L46.7573 25.6856L46.7573 25.6855L46.7573 25.6854L46.7574 25.6853L46.7574 25.6852L46.7574 25.6851L46.7574 25.685C46.7727 25.5982 46.788 25.5113 46.8028 25.4244C46.8588 25.113 46.8508 24.7688 46.7789 24.4574C46.7469 24.3099 46.4594 24.0886 46.3475 24.1132C45.1254 24.4246 44.0551 25.0392 43.0327 25.8587C43.2107 26.1285 43.3862 26.3964 43.5605 26.6623ZM40.4218 32.9134C40.9814 33.3326 41.5427 33.753 42.1138 34.1785C41.9221 35.1209 41.4269 35.6535 40.4604 35.7601C39.1265 35.8994 38.0002 35.3421 36.9858 34.5063C36.9298 34.4571 36.9059 34.2768 36.9458 34.1949C37.0052 34.0594 37.0643 33.9236 37.1234 33.7878C37.3825 33.1924 37.6421 32.5956 37.9283 32.0151C38.0051 31.8518 38.1309 31.7157 38.2514 31.5853L38.2514 31.5853L38.2514 31.5853L38.2514 31.5853C38.3063 31.5259 38.3601 31.4677 38.4076 31.4087C39.0861 31.9129 39.7528 32.4123 40.4218 32.9134ZM40.7803 37.9233C39.2706 37.5382 37.8089 37.1612 36.2353 36.7515C36.2016 36.9417 36.1639 37.138 36.1255 37.3385L36.1254 37.3386C36.0545 37.7084 35.9808 38.0927 35.9238 38.4805C35.8691 38.8478 35.833 39.2183 35.7962 39.5958C35.7738 39.8248 35.7512 40.0564 35.7241 40.2916C36.9862 40.939 38.2801 41.1192 39.5582 40.3653C40.4688 39.8409 40.8282 38.9722 40.7803 37.9233ZM35.78 42.2657C35.5404 43.5605 35.7321 44.7815 36.1794 45.9697C36.2194 46.0681 36.3232 46.1746 36.4191 46.2074C38.3041 46.8547 40.4289 45.56 40.7244 43.8145C40.7643 43.5769 40.7803 43.3228 40.7643 43.0852C40.6685 42.0445 40.4768 41.897 39.4863 42.0445L39.201 42.087C38.5212 42.1885 37.8406 42.2902 37.1539 42.3477C36.8523 42.3702 36.5431 42.3386 36.2238 42.306H36.2238H36.2237H36.2237C36.078 42.2911 35.9302 42.276 35.78 42.2657ZM41.1476 49.9525C41.7866 48.5594 41.587 47.5596 40.5086 46.691C39.3903 47.5596 38.0963 47.8792 36.7065 47.9284C36.6106 47.9284 36.4509 48.0677 36.4269 48.1742C36.2113 49.2149 36.5148 50.1409 37.0819 50.9932C37.1273 51.0605 37.2142 51.0951 37.3122 51.1341L37.3123 51.1342L37.3124 51.1342C37.3695 51.157 37.4305 51.1813 37.4893 51.2144C37.4616 51.2334 37.4346 51.2523 37.4079 51.271C37.342 51.3172 37.2779 51.3621 37.2097 51.4029C35.756 52.2961 34.5818 53.468 33.8869 55.066C32.9763 57.172 32.6488 59.3436 33.4715 61.5807C33.6196 61.9829 33.7558 62.3923 33.8918 62.8011L33.8918 62.8012L33.8918 62.8012L33.8918 62.8012L33.8918 62.8013L33.8918 62.8013L33.8918 62.8013L33.8919 62.8014L33.8919 62.8014L33.8919 62.8014L33.8919 62.8015L33.8919 62.8015L33.8919 62.8015L33.8919 62.8016L33.8919 62.8016L33.8919 62.8016L33.892 62.8017L33.892 62.8017C34.0053 63.1424 34.1185 63.4827 34.2383 63.8179C34.6377 64.9488 34.6696 66.1124 34.3501 67.2433C33.4076 70.5457 34.2942 73.5778 35.5483 76.5689C35.6583 76.8189 35.838 77.045 36.0112 77.263L36.0196 77.2736C36.2592 77.5768 36.5707 77.6751 36.9461 77.544C37.3215 77.4047 37.5931 77.1507 37.5772 76.7491C37.5612 76.2329 37.4973 75.7166 37.3775 75.2167C37.2856 74.8193 37.1738 74.426 37.062 74.0327L37.0619 74.0326C36.9501 73.6392 36.8383 73.2459 36.7464 72.8485C36.4908 71.7258 36.8183 70.7998 37.7129 70.1032C37.7512 70.0744 37.7887 70.0448 37.8259 70.0154C37.9051 69.9527 37.9829 69.8912 38.0644 69.841C39.4143 69.0461 40.245 67.8005 40.932 66.4156C41.1238 66.022 41.372 65.6554 41.6199 65.2894L41.6199 65.2893C41.7333 65.1219 41.8466 64.9546 41.9544 64.7849L42.0502 64.834C42.0982 65.0635 42.1471 65.2929 42.196 65.5224C42.3428 66.2107 42.4896 66.8991 42.6094 67.5875C43.1445 70.5785 44.8699 72.8321 46.8668 74.9299C47.0637 75.1401 47.3229 75.2944 47.5675 75.4401L47.5777 75.4462C47.9132 75.651 48.2566 75.651 48.5761 75.3806C48.9036 75.102 49.0234 74.7496 48.8797 74.3563C48.7359 73.9793 48.5522 73.6106 48.3285 73.2746C48.0966 72.9309 47.8462 72.6014 47.5959 72.2721L47.5959 72.2721C47.3807 71.989 47.1657 71.7061 46.9626 71.4144C46.0121 70.0541 45.9722 69.0953 46.9067 67.735C47.6496 66.6451 48.1608 65.4568 48.6161 64.1703C48.7432 64.2309 48.8681 64.2871 48.9905 64.3421L48.9906 64.3421L48.9907 64.3422L48.9908 64.3423C49.1989 64.4358 49.3995 64.526 49.5906 64.6292C51.5555 65.7273 52.7617 67.4563 53.4806 69.5788C53.7725 70.4253 54.0242 71.2874 54.2755 72.1485L54.2755 72.1485C54.3405 72.3711 54.4054 72.5935 54.471 72.8157C54.7027 73.6024 55.0781 74.2989 55.5893 74.9217C55.7753 75.1469 55.9612 75.3721 56.1469 75.5972L56.1543 75.6062L56.1617 75.6151L56.1689 75.6239L56.1738 75.6299C57.0876 76.7373 57.9997 77.8428 58.9281 78.9371C59.1917 79.2485 59.5112 79.5435 59.8547 79.7648C60.4777 80.1663 61.0848 80.0434 61.6599 79.478C62.0753 79.0682 62.1472 78.5602 61.7717 77.9128C61.5564 77.5399 61.2786 77.202 61.0054 76.8695L61.0047 76.8687L61.004 76.8678L61.0037 76.8674C60.9532 76.806 60.9029 76.7448 60.8532 76.6836C60.6934 76.4869 60.5097 76.2984 60.318 76.1345C58.6965 74.7168 58.2971 72.8403 58.369 70.7834C58.3806 70.438 58.4217 70.0927 58.4617 69.7567L58.4618 69.7566L58.4618 69.7565C58.4768 69.6302 58.4917 69.5052 58.5048 69.3821C58.7544 69.3332 59.001 69.2843 59.2422 69.2364L59.2445 69.236L59.2451 69.2359C59.69 69.1476 60.1166 69.063 60.5097 68.9888C60.6586 69.3254 60.7979 69.6694 60.9375 70.014L60.9376 70.014L60.9376 70.0142C61.2398 70.7601 61.5432 71.5091 61.9475 72.1929C62.5421 73.2009 63.2467 74.1391 63.951 75.077C64.117 75.2981 64.283 75.5192 64.4476 75.7412C64.7272 76.1181 65.1026 76.4213 65.6138 76.2984C65.8854 76.2329 66.0931 75.479 65.9573 74.9463C65.8295 74.4464 65.6777 73.9384 65.4301 73.4958C64.3278 71.5045 63.9044 69.3165 63.6089 67.0958C63.4571 65.9649 62.8021 65.4568 61.6998 65.6781C59.639 66.096 57.5702 66.3009 55.4695 66.1124C55.3257 66.096 55.1819 66.0632 55.0381 66.0305C53.5524 65.6699 52.9614 64.2604 53.7282 62.8919C53.7521 62.8427 53.7761 62.7936 53.816 62.7526C54.5302 62.0139 54.9172 61.0963 55.3059 60.1749C55.4432 59.8493 55.5808 59.5231 55.7331 59.2043C56.0366 58.5815 56.6117 58.057 57.1629 57.5981C57.8418 57.0409 58.6725 56.7623 59.5272 56.5738C59.647 56.5492 59.8228 56.4345 59.8467 56.3361C59.8707 56.2214 59.7748 56.0083 59.679 55.9592C59.618 55.9297 59.5566 55.8993 59.495 55.8688C59.1287 55.6874 58.7507 55.5002 58.361 55.4511C57.722 55.3692 57.059 55.3856 56.412 55.4511C55.6931 55.5249 55.0541 55.2954 54.4551 55.0004C53.816 54.689 53.209 54.2629 52.6339 53.8368C51.0603 52.6649 49.4708 51.5258 47.6655 50.7473C45.7325 49.9033 43.7276 49.6247 41.6509 49.9361C41.4991 49.9197 41.3313 49.9279 41.1476 49.9525ZM49.9102 48.3705C49.2712 48.7803 48.5763 48.9606 47.8255 48.9606C47.1066 48.936 46.4196 48.7885 45.8365 48.3296C45.1895 47.8297 44.9419 47.0922 45.3173 46.3792C45.557 45.9306 45.8909 45.5373 46.2249 45.1439L46.2249 45.1439C46.3363 45.0128 46.4476 44.8817 46.5554 44.7485C46.6113 44.6829 46.7471 44.6584 46.843 44.6666C48.5763 44.8386 49.9182 46.0597 50.2297 47.6003C50.3096 47.9772 50.2058 48.1821 49.9102 48.3705ZM41.2356 27.2944C42.1462 27.9992 43.4243 29.6053 44.2949 31.1214L44.2051 31.2379C43.9991 31.5053 43.8045 31.7578 43.616 32.0228C43.4482 32.2604 43.2485 32.3178 42.961 32.2276C41.4833 31.7442 40.4688 30.6625 39.3985 29.4988C40.021 28.7537 40.6276 28.025 41.2342 27.2962L41.2356 27.2944ZM53.696 32.3261C54.3542 31.7445 55.1559 31.6428 55.9624 31.5406L55.9624 31.5406L55.9625 31.5406L55.9625 31.5406L55.9625 31.5406L55.9625 31.5406L55.9625 31.5406L55.9626 31.5406L55.9626 31.5406L55.9626 31.5406L55.9626 31.5405L55.9626 31.5405C56.1446 31.5175 56.3268 31.4944 56.5077 31.4657C56.923 31.4001 57.3384 31.2772 57.7378 31.1461C57.8257 31.1133 57.9535 30.9494 57.9375 30.8675C57.8177 30.0562 57.57 29.2941 56.9071 28.7696C56.7952 28.6795 56.6115 28.6221 56.4837 28.6385C55.5092 28.7942 54.6066 29.1384 53.7999 29.7202C53.704 29.794 53.6082 29.8677 53.5203 29.9497C52.6896 30.7364 52.7455 31.6296 53.696 32.3261ZM54.0079 45.7728C53.2011 44.2977 49.6865 42.8882 48.7759 43.6831C48.7759 43.7077 48.7759 43.7487 48.7919 43.7569C49.8782 44.7239 50.661 45.9449 51.4199 47.1823C51.6036 47.4855 51.7873 47.5019 52.0748 47.4035C52.7458 47.1741 53.5126 46.5349 54.0079 45.7728ZM59.3754 61.6793C59.2556 62.3103 59.008 62.4987 58.3689 62.5151C58.2568 62.4937 58.1446 62.4767 58.0329 62.4597H58.0329L58.0329 62.4597L58.0328 62.4597L58.0328 62.4597L58.0327 62.4597L58.0327 62.4597C57.8026 62.4247 57.575 62.3902 57.3545 62.3185C56.6356 62.0972 56.3241 61.5809 56.4599 60.8188C56.5078 60.5402 56.6117 60.2698 56.7315 60.0158C57.1628 59.1225 57.8737 58.4915 58.6884 57.9835C58.968 57.8114 59.3035 57.7048 59.623 57.6475C59.7707 57.6183 59.9345 57.6596 60.0973 57.7007C60.1634 57.7174 60.2293 57.734 60.294 57.7458C60.2804 57.806 60.2701 57.8694 60.2597 57.9331C60.2333 58.0951 60.2065 58.2592 60.1262 58.3768C59.6629 59.057 59.5272 59.8191 59.4872 60.6222C59.4712 60.9745 59.4393 61.3351 59.3754 61.6793ZM57.6782 60.5248C57.4265 60.6229 57.2364 60.8804 57.2427 61.163C57.2507 61.5318 57.5542 61.8268 57.9136 61.8186C57.9899 61.8168 58.0624 61.8019 58.1293 61.776C58.0622 61.8016 57.9897 61.8164 57.9138 61.8182C57.5544 61.8264 57.2509 61.5314 57.2429 61.1626C57.2429 60.8803 57.4289 60.6232 57.6782 60.5248ZM54.8631 34.6817L54.8636 34.6818L54.8637 34.6818L54.8639 34.6818C56.0804 34.7846 57.2725 34.8854 58.4647 34.9965C58.8161 35.0293 58.928 34.89 58.9599 34.554C59.0238 33.8329 58.7842 33.2675 58.1931 32.8741C57.1946 32.2185 55.4134 32.3333 54.5028 33.12C54.0395 33.5133 53.8398 34.0132 53.9357 34.6032C54.2466 34.6296 54.5557 34.6558 54.8631 34.6817ZM53.2168 25.1724C54.1753 25.705 55.0859 26.2459 55.7249 27.1719C54.2552 28.0569 52.8334 28.9173 51.4116 29.786C51.148 29.3599 51.116 29.073 51.3077 28.4748C51.6722 27.3226 52.3621 26.3623 53.0615 25.3887L53.0618 25.3883L53.0624 25.3874C53.1139 25.3158 53.1654 25.2442 53.2168 25.1724ZM51.0446 42.1926C52.0409 42.5401 52.8415 43.1682 53.6575 43.8083C54.15 44.1946 54.648 44.5853 55.1981 44.9215C55.2722 44.8018 55.346 44.683 55.4194 44.565L55.4222 44.5605L55.4223 44.5603L55.423 44.5593L55.423 44.5592L55.4232 44.5589C55.7201 44.0811 56.01 43.6148 56.2845 43.1432C56.3244 43.0777 56.3004 42.8892 56.2365 42.84C55.1981 42.0041 54.0799 41.3322 52.714 41.2666C52.035 41.2502 51.428 41.4305 51.0446 42.1926ZM58.6407 36.753C58.6247 37.4243 58.6084 38.1119 58.1854 38.6768C58.0194 38.6208 57.8552 38.5642 57.6921 38.5079L57.6921 38.5079L57.6921 38.5079L57.6921 38.5079L57.6919 38.5078C57.2587 38.3584 56.8336 38.2118 56.4042 38.0868C55.6454 37.8819 54.8865 37.6935 54.1197 37.5214C53.8322 37.4558 53.7683 37.3083 53.8082 37.0297C53.9121 36.2594 54.4313 35.7841 55.3099 35.7513C56.4361 35.7021 57.4745 36.0873 58.489 36.5462C58.5609 36.579 58.6407 36.6855 58.6407 36.7511L58.6407 36.753ZM55.821 61.6948C55.6505 61.9087 55.498 62.0967 55.3557 62.272C55.1981 62.4662 55.0532 62.6448 54.9104 62.8257C54.8615 62.8879 54.8104 62.9488 54.7595 63.0094C54.6362 63.1564 54.5137 63.3024 54.4232 63.4649C54.1277 63.9893 54.2714 64.563 54.8146 64.8006C55.2459 64.9891 55.7252 65.112 56.1885 65.1612C57.4266 65.3005 58.6487 65.1776 59.8468 64.8088C59.7669 64.2352 59.5113 63.9729 58.9522 63.9156C58.6731 63.89 58.3909 63.8804 58.1094 63.8708L58.1092 63.8708L58.1089 63.8708L58.1086 63.8708C57.9393 63.865 57.7702 63.8593 57.6023 63.85C56.516 63.7845 56.3402 63.6124 56.1246 62.5307C56.0871 62.3493 56.0137 62.1717 55.9356 61.9829C55.8973 61.8901 55.8579 61.7947 55.821 61.6948ZM56.8276 41.6593C55.5496 40.9791 54.2476 40.3891 52.8018 40.0941C53.0095 39.0452 53.6884 38.5781 54.7588 38.7174C55.8371 38.8485 56.7956 39.3074 57.6743 39.9384C57.7621 40.004 57.874 40.1515 57.85 40.217C57.6743 40.6759 57.4906 41.143 57.2589 41.5773C57.211 41.6593 56.9314 41.7167 56.8276 41.6593ZM60.3338 59.9576C60.3338 60.8098 60.4696 60.9492 61.1086 60.8262C61.3722 60.7771 61.6518 60.6623 61.8674 60.4985C62.6982 59.8675 62.9298 58.3433 62.3547 57.4992C62.2189 57.3025 62.0991 57.2206 61.8754 57.3845C60.9489 58.081 60.3737 58.9579 60.3338 59.9576Z" fill="#20113D"/>
</svg>
