<svg width="100" height="144" viewBox="0 0 100 144" fill="none" xmlns="http://www.w3.org/2000/svg">
<path d="M49.6123 8.56201C27.3304 8.56201 9.30225 25.8072 9.30225 47.0582C9.30225 68.3092 49.6123 129.211 49.6123 129.211C49.6123 129.211 89.9224 68.3092 89.9224 47.0582C89.9224 25.8072 71.8943 8.56201 49.6123 8.56201Z" fill="#F58021"/>
<path d="M35.6769 67.4852C35.408 66.1008 35.3213 64.7251 35.5641 63.3494C35.9457 61.164 37.0297 59.379 38.7728 58.0469C39.64 57.3851 40.6373 56.8975 41.5739 56.3229C42.1896 55.9485 42.8487 55.6176 43.3777 55.1474C44.7739 53.8849 46.1094 52.5615 47.4709 51.2641C48.2774 50.4979 49.0753 49.723 49.9338 48.8958C49.3528 48.8523 48.8324 48.8436 48.3208 48.7652C47.8091 48.6869 47.2975 48.5563 46.9246 48.0338C47.1067 48.0251 47.2368 48.0164 47.3669 48.0164C48.737 47.9729 49.4308 47.2763 49.4568 45.9442C49.4742 45.2999 49.3181 44.6468 49.2314 44.0025C48.8411 41.2772 49.5175 38.8219 51.1132 36.6103C51.2173 36.4623 51.33 36.3055 51.4601 36.1227C51.0178 36.0705 50.6189 36.053 50.2373 35.966C49.8644 35.8789 49.5175 35.7222 49.1533 35.6003C49.162 35.5567 49.1707 35.5132 49.1793 35.4784C49.4655 35.4174 49.7517 35.3652 50.0292 35.2955C52.0758 34.7557 53.5761 33.5628 54.4866 31.6125C54.8682 30.8027 55.3018 30.0104 55.7875 29.2616C56.646 27.9468 57.8688 27.111 59.3864 26.7105C59.5251 26.6756 59.6552 26.6321 59.8373 26.5798C59.5598 26.4144 59.291 26.3012 59.0915 26.1097C58.9181 25.9442 58.8314 25.6917 58.7533 25.4044C59.4731 25.6482 59.9847 25.3086 60.5051 25.0039C61.3896 24.4815 62.3089 24.0897 63.3669 24.1332C64.6677 24.1941 65.6563 24.8472 66.4801 25.8136C66.5929 25.9442 66.6969 26.0836 66.8097 26.2316C67.5121 25.7179 68.2146 25.8572 68.865 26.2925C69.2292 26.5363 69.5154 26.902 69.8623 27.1893C70.4173 27.6595 70.955 28.1732 71.5707 28.565C71.8742 28.7566 72.3165 28.7218 72.7674 28.8088C73.0623 29.6534 72.6113 30.2629 71.111 30.8463C71.484 31.4993 71.8568 32.1523 72.2297 32.8053C72.5073 33.2842 72.7241 33.7544 72.5593 34.3639C72.4899 34.6425 72.672 35.0517 72.8541 35.3217C73.3224 36.0008 73.8514 36.6364 74.3544 37.2894C74.6146 37.6377 74.8661 37.9947 75.1176 38.343C75.3604 38.6825 75.3604 39.0134 75.1089 39.3443C74.788 39.7535 74.5105 40.215 74.1203 40.5458C73.5392 41.0334 73.0623 41.5907 72.5766 42.174C71.9002 42.9925 70.9289 43.0273 70.1311 42.3134C69.9316 42.1305 69.7148 41.9303 69.5934 41.6952C69.3159 41.1379 68.839 40.9289 68.2926 40.7809C67.7723 40.6416 67.252 40.5197 66.749 40.3456C66.3327 40.1976 65.9425 39.9973 65.5436 39.8145C65.4742 40.0844 65.5002 40.3108 65.8471 40.5458C66.3501 40.8767 66.8877 41.1466 67.4427 41.3991C67.6856 41.5123 67.8243 41.6168 67.911 41.8867C68.2926 43.1492 68.7002 44.403 69.1165 45.6481C69.5241 46.8758 69.5587 48.1383 69.5154 49.4183C69.4634 50.8549 69.2292 52.2393 68.7956 53.5976C68.4834 54.5641 68.1365 55.191 67.6942 55.6263C67.3994 54.8514 67.1132 54.0852 66.8184 53.3277C66.775 53.3364 66.7316 53.3451 66.6883 53.3538C66.7577 54.12 66.801 54.8862 66.9051 55.6525C67.382 59.0133 68.1105 62.3307 69.0818 65.5871C69.2119 66.0051 69.446 66.4143 69.6975 66.7713C70.1658 67.433 70.8422 67.6594 71.6314 67.5897C72.5419 67.5114 73.0189 67.79 73.227 68.6781C73.3831 69.3572 73.3918 70.0712 73.4699 70.8026C70.8075 70.8026 68.2753 70.8026 65.6476 70.8026C65.5696 69.7926 65.5175 68.7826 65.3961 67.7813C65.3354 67.2414 65.2574 66.6755 65.0146 66.2053C64.4769 65.1779 63.8438 64.2114 63.2281 63.2275C62.3522 61.8344 61.459 60.45 60.5831 59.0743C58.8053 59.8144 56.9582 60.5893 55.059 61.3729C54.9983 61.8692 54.9289 62.4787 54.8595 63.0795C54.7642 63.9328 54.3479 64.5945 53.6628 65.0647C52.9083 65.5784 52.1105 66.0138 51.33 66.4839C51.1219 66.6145 50.9137 66.7539 50.7056 66.8845C50.723 66.9367 50.7316 66.9889 50.749 67.0412C51.0091 67.076 51.278 67.1457 51.5295 67.1283C52.5354 67.0586 53.5414 66.9628 54.556 66.8757C54.7988 66.8583 55.0417 66.8322 55.2932 66.8322C57.5739 66.8235 59.0222 68.4691 58.7533 70.8113C58.6146 70.82 58.4758 70.8287 58.3371 70.8287C50.9831 70.8287 43.6205 70.8374 36.2666 70.8287C35.5208 70.8287 34.749 70.7939 34.0292 70.611C33.4395 70.463 32.7891 70.1757 32.3641 69.749C30.6731 68.0599 29.7885 66.0399 30.5603 63.628C31.0373 62.1479 31.6964 60.7199 32.3295 59.292C32.7457 58.3516 33.214 57.4374 33.3788 56.4013C33.6736 54.5815 32.8845 52.9359 31.3408 52.1697C30.3435 51.6734 28.6872 52.4396 28.4617 53.5105C28.4357 53.6411 28.5051 53.8675 28.6005 53.9285C29.3549 54.4074 29.7105 55.1213 29.8752 55.9659C30.1007 57.1413 29.8752 58.9959 29.3983 59.9189C29.1555 59.5445 28.9126 59.1701 28.6698 58.7957C28.7999 60.3629 28.1755 61.5819 27.2216 62.6703C27.1696 62.6529 27.1262 62.6529 27.1175 62.6442C26.7533 61.6603 26.0769 60.9289 25.2964 60.2584C24.9148 59.9276 24.62 59.5009 24.2817 59.1091C24.1777 59.3094 24.0303 59.5967 23.8828 59.884C23.4406 59.5009 23.163 58.6999 23.2845 57.9163C23.4666 56.7669 23.9522 55.7918 25.1056 55.2955C25.2183 55.2432 25.3051 55.0691 25.3571 54.9298C25.9121 53.467 26.7446 52.2132 28.1148 51.4034C29.2248 50.7417 30.4563 50.4892 31.7397 50.6895C32.9365 50.8723 33.6823 51.656 34.1072 52.7617C34.7143 54.3377 34.6796 55.9659 34.3067 57.5593C34.0379 58.726 33.6129 59.8579 33.162 60.9724C32.7717 61.9563 32.3468 62.9228 32.2254 63.9937C32.0173 66.0486 33.5435 67.642 35.6769 67.4852Z" fill="#20113D"/>
</svg>
