<svg width="100" height="144" viewBox="0 0 100 144" fill="none" xmlns="http://www.w3.org/2000/svg">
<path d="M49.6123 8.56201C27.3304 8.56201 9.30225 25.8072 9.30225 47.0582C9.30225 68.3092 49.6123 129.211 49.6123 129.211C49.6123 129.211 89.9224 68.3092 89.9224 47.0582C89.9224 25.8072 71.8943 8.56201 49.6123 8.56201Z" fill="#F58021"/>
<path fill-rule="evenodd" clip-rule="evenodd" d="M41.2527 50.8338C38.8342 51.5556 36.3968 51.4446 33.9408 49.8344C33.7523 50.0683 33.5592 50.3037 33.3641 50.5415L33.3636 50.5421L33.3636 50.5421L33.3636 50.5421L33.3636 50.5422L33.3635 50.5422C32.8796 51.1322 32.3835 51.737 31.9159 52.3699C31.5691 52.8604 31.2457 53.3693 30.9223 53.8783L30.9222 53.8783L30.9222 53.8784C30.5988 54.3873 30.2754 54.8963 29.9286 55.3867C29.1599 56.4786 28.8786 57.6631 28.9536 58.9772C29.0474 60.6614 28.3724 61.5127 26.7038 61.8088C23.2728 62.4196 20.198 59.9026 20.1793 56.4786C20.1793 56.1443 20.1732 55.81 20.1672 55.4768C20.1582 54.9801 20.1493 54.486 20.1605 53.9986C20.192 52.6916 20.7669 51.5547 21.3391 50.4228C21.4475 50.2084 21.5559 49.9941 21.6604 49.7789C21.9309 49.2253 22.2039 48.6725 22.4769 48.1197L22.4769 48.1196L22.477 48.1194C23.4909 46.0664 24.5052 44.0128 25.3914 41.9131C26.6941 38.836 28.6511 36.1894 30.615 33.5334L30.615 33.5334L30.615 33.5334L30.615 33.5334C31.0253 32.9785 31.4359 32.4232 31.8409 31.8635C31.8604 31.8395 31.8811 31.8155 31.902 31.7912L31.9021 31.7912L31.9021 31.7911C31.9621 31.7217 32.0243 31.6496 32.0659 31.5674C34.2595 27.6252 38.1592 26.6999 42.1714 25.9225C43.1609 25.7341 44.1423 25.498 45.1231 25.262C46.261 24.9883 47.398 24.7148 48.546 24.516C50.6458 24.1458 52.8019 23.8497 54.9392 23.7757C57.4703 23.6831 59.6076 24.8491 61.5013 26.4593C58.6327 25.0157 55.5579 24.516 52.3707 24.59C51.5645 24.6085 50.7583 24.6825 49.9521 24.7751C48.7897 24.9046 48.3022 25.756 47.9835 26.7369C47.1586 29.2354 47.3273 31.6969 48.2085 34.1769C48.4209 34.7728 48.5533 35.4015 48.6852 36.0278L48.6852 36.0279C48.7745 36.4521 48.8636 36.8752 48.9772 37.2862C49.122 37.7985 49.2634 38.3125 49.4048 38.8267L49.4048 38.8267L49.4048 38.8268L49.4048 38.8268L49.4048 38.8268C49.9226 40.7091 50.4412 42.5946 51.1333 44.4117C51.4145 45.1705 52.3519 45.9108 53.1581 46.2069C56.3266 47.3359 59.5701 47.9466 62.9262 46.8177C67.1446 45.3926 69.3194 40.9507 67.7258 36.8235C67.2151 35.516 66.6094 34.2488 66.0011 32.9761C65.8947 32.7535 65.7882 32.5308 65.6822 32.3077C65.5851 32.1023 65.3853 31.9374 65.1893 31.7755C65.1203 31.7187 65.0519 31.6621 64.9885 31.6044C64.746 31.3773 64.4932 31.1563 64.2397 30.9347C63.7287 30.488 63.2148 30.0387 62.7762 29.5315C62.1575 28.8097 62.1762 27.9029 62.7199 27.1255C63.2449 26.3667 64.0886 26.1817 64.9697 26.3297C66.3384 26.5518 67.2196 27.3846 67.6696 28.6247C68.1008 29.8277 67.6883 30.8641 66.6196 31.771C68.0258 32.9184 68.4945 34.5656 68.907 36.1943C69.0631 36.811 69.147 37.4474 69.2311 38.0854L69.2311 38.0855L69.2312 38.0855L69.2312 38.0856C69.3288 38.8261 69.4267 39.5686 69.6382 40.2845C69.9914 41.4699 70.4152 42.6393 70.8394 43.8098C71.2034 44.8141 71.5677 45.8192 71.888 46.8362C72.3039 48.138 72.6869 49.4508 73.0697 50.7626L73.0697 50.7627L73.0697 50.7628L73.0698 50.7629C73.3943 51.8754 73.7187 52.9872 74.0628 54.0912C74.2546 54.7064 74.5 55.3066 74.7452 55.9061L74.7453 55.9062L74.7454 55.9067L74.7455 55.9068L74.7455 55.9069C74.8837 56.2449 75.0219 56.5826 75.1503 56.9228C75.5611 57.9993 76.4916 58.4839 77.4137 58.9643C77.5856 59.0539 77.7572 59.1432 77.9251 59.2363C78.7875 59.7175 79.2375 60.3467 79.0125 61.3461C78.8062 62.29 78.1875 62.8823 77.0439 62.8453C74.7003 62.7527 72.3755 62.5306 70.0506 62.29C69.6569 62.253 69.2444 61.8459 68.9632 61.5127C67.3883 59.6434 65.8322 57.7557 64.2948 55.8679C63.2261 54.5539 62.4387 53.1103 62.0262 51.4631C61.8509 50.7853 61.4935 50.1412 61.1402 49.5046C61.0401 49.3242 60.9403 49.1444 60.845 48.9645C60.7513 48.7795 60.4888 48.6129 60.2826 48.5759L60.1345 48.5469C58.9467 48.3138 57.7652 48.082 56.7391 49.1126C56.4779 49.3889 56.0496 49.5368 55.6759 49.6659L55.6704 49.6678C55.0142 49.8899 54.7143 50.2971 54.958 50.9264C55.8229 53.2155 55.7576 55.5542 55.6921 57.8983V57.8984C55.6596 59.0604 55.6272 60.2238 55.7079 61.3832C55.7413 61.8273 55.8042 62.2715 55.8672 62.7157C55.9459 63.2709 56.0246 63.8262 56.0454 64.3814C56.0642 64.8071 55.8767 65.4178 55.5767 65.6399C53.0831 67.4907 50.2896 67.8053 47.421 66.7874C45.9961 66.2692 45.04 65.2513 44.815 63.5115C44.3838 59.9026 43.8026 56.3121 43.0526 52.7586C42.7825 51.4256 42.1326 50.1527 41.4994 48.9127C41.4293 48.7754 41.3594 48.6384 41.2902 48.5019C39.4904 44.9669 38.9842 41.3024 39.6216 37.3788C40.1466 34.1214 40.859 31.0121 43.0526 28.4396C43.505 27.9141 44.0425 27.4633 44.5778 27.0142L44.5779 27.0142C44.7967 26.8306 45.0152 26.6472 45.2274 26.4593C45.2594 26.4322 45.2936 26.4063 45.3281 26.3801L45.3283 26.3799L45.3284 26.3798L45.3285 26.3798C45.4356 26.2986 45.5457 26.215 45.6024 26.0891C42.7151 26.1261 40.1091 26.922 37.5405 28.1064C35.1343 29.1957 33.7554 31.1384 32.3593 33.1053C32.0475 33.5446 31.7348 33.9851 31.4097 34.4175C31.2785 34.6026 31.2785 34.9173 31.2972 35.1764C31.5725 37.7672 32.5845 40.1275 33.5944 42.483L33.6595 42.6349C33.8604 43.0844 33.9656 43.5811 34.0709 44.0778L34.0709 44.0779L34.0709 44.0779L34.0709 44.078C34.113 44.2766 34.1551 44.4752 34.2033 44.6708C34.3157 45.1705 34.4282 45.6887 34.4657 46.2069C34.4734 46.3123 34.4817 46.4183 34.49 46.5248L34.49 46.5248C34.5433 47.204 34.5979 47.9014 34.4845 48.5574C34.2595 49.7234 34.3532 50.075 35.5719 50.2601C35.965 50.2989 36.3613 50.3377 36.7594 50.3767C38.2602 50.5236 39.7857 50.6729 41.2527 50.8338ZM50.2896 33.4555C49.2022 33.0113 48.7522 31.9564 48.6023 30.7164C48.4335 29.3653 49.6709 27.6811 51.1146 27.1814C52.2582 26.7928 53.8706 27.422 54.5081 28.5325C54.883 29.1988 55.033 29.7355 54.2081 30.3092C53.2747 30.9542 52.4077 31.6834 51.4722 32.4702L51.4722 32.4703L51.4721 32.4703C51.0923 32.7898 50.7011 33.1188 50.2896 33.4555ZM53.8518 39.1368C53.5144 40.5989 54.4705 41.7648 55.633 41.6723C55.7382 41.3411 55.8389 41.0168 55.9381 40.6969L55.9381 40.6968L55.9382 40.6965L55.9383 40.6963C56.1219 40.1047 56.3007 39.5282 56.4954 38.9517C56.547 38.8075 56.6182 38.6672 56.6893 38.5272C56.7733 38.3617 56.8571 38.1967 56.9079 38.0263C57.0579 37.4896 57.2266 36.7863 56.5329 36.6197C56.0267 36.5087 55.2205 36.6752 54.9018 37.0269C54.3956 37.5821 54.0206 38.3779 53.8518 39.1368ZM60.545 37.0639C60.6287 36.9537 60.7058 36.8336 60.7817 36.7155C60.9607 36.4367 61.133 36.1684 61.37 36.0645C61.6137 35.9534 62.1387 36.1755 62.4011 36.3976C62.459 36.4468 62.5171 36.4959 62.5753 36.5452L62.5754 36.5452C63.1966 37.0708 63.8303 37.6069 64.276 38.2669C64.5197 38.6555 64.426 39.3773 64.2573 39.8585C64.126 40.2102 63.6385 40.5803 63.2636 40.6543C63.0198 40.6913 62.6261 40.2472 62.3824 39.951C61.9699 39.4513 61.6137 38.9331 61.2575 38.3779C61.076 38.1347 60.9393 37.8561 60.7792 37.5299L60.7792 37.5299C60.7078 37.3844 60.6318 37.2294 60.545 37.0639ZM61.5269 43.7154L61.5387 43.7082C61.5334 43.6766 61.5266 43.6435 61.5195 43.6093C61.5017 43.5234 61.4825 43.4307 61.4825 43.338C61.3825 43.3134 61.2825 43.2805 61.1825 43.2476C60.9825 43.1818 60.7826 43.1159 60.5826 43.1159C59.8139 43.1159 59.0452 43.1345 58.2952 43.227C57.9953 43.264 57.639 43.4676 57.5078 43.6897C57.4328 43.8192 57.6765 44.2264 57.8828 44.4115C57.9923 44.5196 58.153 44.5582 58.3163 44.5975C58.4325 44.6255 58.5501 44.6537 58.6515 44.7076C58.8577 44.8187 59.2327 45.0407 59.2139 45.1333C59.1389 45.3924 58.9514 45.6515 58.7265 45.8366C58.6175 45.9321 58.4617 45.966 58.2691 46.0079C58.1634 46.0309 58.0465 46.0563 57.9203 46.0957C58.648 46.0486 59.3225 46.0015 59.9971 45.9544C60.3827 45.9274 60.7683 45.9005 61.1638 45.8736C60.9424 45.7765 60.6888 45.747 60.4446 45.7187C59.9441 45.6606 59.4832 45.6071 59.4202 44.9852C60.1843 44.5252 60.8559 44.1201 61.5269 43.7154Z" fill="#20113D"/>
</svg>
