<svg width="100" height="144" viewBox="0 0 100 144" fill="none" xmlns="http://www.w3.org/2000/svg">
<path d="M49.6123 8.56201C27.3304 8.56201 9.30225 25.8072 9.30225 47.0582C9.30225 68.3092 49.6123 129.211 49.6123 129.211C49.6123 129.211 89.9224 68.3092 89.9224 47.0582C89.9224 25.8072 71.8943 8.56201 49.6123 8.56201Z" fill="#F58021"/>
<path fill-rule="evenodd" clip-rule="evenodd" d="M58.0579 44.3932C59.3131 42.8611 60.0329 41.1684 60.0637 39.2038C60.0679 38.99 60.2193 38.7792 60.37 38.5692L60.3701 38.5691C60.4415 38.4696 60.5128 38.3702 60.5682 38.2709C60.8614 37.7387 61.1736 37.2134 61.4859 36.6878C62.196 35.4929 62.907 34.2964 63.3984 33.0135C64.469 30.2149 63.823 28.4975 61.4973 26.712C61.6449 24.8401 62.3833 23.5551 64.4382 23.1845C65.4108 23.0104 66.3543 22.6729 67.3847 22.3043C67.8534 22.1366 68.3402 21.9625 68.8558 21.7944C67.3115 26.4711 65.8472 30.9007 64.3152 35.5341L64.6729 35.4575L64.675 35.457C66.6684 35.0302 68.4922 34.6396 70.3324 34.2491C70.8 35.0831 70.437 35.5217 69.7295 35.9233L69.3071 36.1613L69.3071 36.1613C67.4963 37.1814 65.6805 38.2043 63.9337 39.3335C63.3492 39.7104 62.8447 40.3899 62.5801 41.0386C62.1455 42.1144 61.7922 43.2234 61.4296 44.3615L61.4294 44.3621C61.2736 44.8511 61.1161 45.3456 60.9497 45.845L58.0579 44.3932ZM63.4045 44.1469C65.2072 45.4937 65.964 48.3911 65.1396 50.6028C64.4197 52.5241 62.7523 53.4385 60.2667 53.1543C59.5518 53.0712 58.8484 52.9118 58.1453 52.7525L58.1453 52.7525L58.1452 52.7525L58.1452 52.7525C57.6986 52.6513 57.2521 52.5501 56.8027 52.4685C54.2433 51.9928 52.0529 52.3512 50.564 53.5003C50.9085 53.5435 51.2039 53.5806 51.653 53.6362C51.2684 54.3631 51.0728 55.1509 50.8832 55.9144C50.6087 57.0196 50.3468 58.074 49.5426 58.8194C50.001 59.1412 50.4904 59.4579 50.9911 59.7819C52.1435 60.5277 53.3553 61.3119 54.3848 62.2852C56.7781 64.5463 56.6305 67.9257 54.2802 70.4277C53.5751 70.178 52.8689 69.9283 52.162 69.6783L52.1602 69.6776C49.4749 68.728 46.7781 67.7743 44.0853 66.8013C43.6387 66.639 43.2127 66.4177 42.787 66.1965C42.5968 66.0977 42.4067 65.999 42.2149 65.9055C39.4277 64.5649 37.9819 62.3161 37.7358 59.2457C37.422 55.3598 38.1787 51.616 39.0709 47.9092C39.1317 47.8975 39.1818 47.8822 39.2236 47.8694C39.2919 47.8486 39.338 47.8345 39.3723 47.8536C45.4142 50.9797 50.9762 49.5649 56.2367 45.9447C57.1288 45.3331 57.8056 45.3022 58.6608 45.7532C59.1654 46.0188 59.676 46.2721 60.1929 46.5069C61.6756 47.1802 62.3463 46.9146 62.9431 45.4072C63.0422 45.1545 63.1342 44.8971 63.228 44.635L63.2282 44.6343C63.2857 44.4736 63.3438 44.3112 63.4045 44.1469ZM57.1993 57.3123C57.5946 56.1093 58.0061 54.8574 58.4457 53.5172C57.9879 53.5024 57.5442 53.4866 57.1111 53.4711L57.1101 53.4711L57.1093 53.471C55.733 53.4219 54.464 53.3766 53.1914 53.3813C52.9207 53.3813 52.5085 53.7149 52.41 53.9867C52.0102 55.1136 51.6506 56.2539 51.304 57.353C51.1813 57.7422 51.0602 58.1263 50.9395 58.5028L52.1533 59.3928L52.1537 59.3931C53.331 60.2566 54.477 61.0971 55.6709 61.9686C56.1702 60.4432 56.6696 58.924 57.1976 57.3174L57.1982 57.3154L57.1993 57.3123ZM44.9038 75.7085C45.6791 73.3979 46.3989 71.2542 47.1619 68.9869C49.063 69.5862 50.8596 70.1545 52.7792 70.7662C52.6753 71.0883 52.5737 71.4053 52.4735 71.7181C52.0934 72.9051 51.7326 74.0315 51.3333 75.1463C51.2472 75.381 50.8965 75.6776 50.6627 75.6838C49.2451 75.7169 47.8203 75.7138 46.3138 75.7105C45.8522 75.7095 45.3829 75.7085 44.9038 75.7085ZM36.4476 36.4518L36.4477 36.4519C37.011 37.3225 37.5581 38.1681 37.9512 39.0807C38.6772 40.7796 38.991 42.6947 37.5636 44.1527C36.0993 45.6416 34.2781 44.9806 32.6538 44.2639C31.7001 43.8438 30.7649 43.2693 29.9774 42.5835C26.9811 39.9579 27.2764 35.9485 30.605 33.7491C32.7953 32.3035 35.201 32.0811 37.6251 32.9522C38.6772 33.329 39.2679 33.051 40.0923 32.4271C41.4767 31.383 42.9656 30.3884 44.553 29.715C47.457 28.4794 50.2934 28.8562 52.8775 30.7467C53.4497 31.1668 54.028 31.5745 54.7663 31.7969C54.2618 31.1853 53.7573 30.5799 53.1851 29.8941C55.117 28.1272 57.2397 27.0894 59.8546 27.528C61.7065 27.8369 62.7032 29.0848 62.6602 30.9629C62.611 33.2302 61.4789 35.0465 60.2422 36.8628C57.8488 34.4905 57.1536 31.7042 58.3595 29.6099C57.1905 29.8571 56.5875 30.5799 56.8398 31.8711C57.0859 33.1375 57.492 34.4102 58.0457 35.5716C59.6085 38.8644 59.1224 42.1078 56.323 44.4246C52.5268 47.5753 48.1277 48.4587 43.3655 47.2479C42.4488 47.0131 41.5751 46.4756 40.7814 45.9258C39.8401 45.2771 39.4032 44.4307 39.5509 43.1148C39.6986 41.7372 39.5017 40.2545 39.151 38.8953C38.6834 37.1161 37.4282 35.9114 35.6809 35.238C35.9312 35.6536 36.1911 36.0553 36.4476 36.4518ZM53.7312 44.9807C53.7441 44.9248 53.7555 44.868 53.7657 44.8107C53.8164 44.5237 53.8359 44.221 53.8549 43.9263L53.8549 43.926C53.8628 43.8039 53.8706 43.6831 53.8805 43.5654C53.8128 41.7552 53.296 40.1428 51.9547 38.9196C50.7734 37.8446 49.6105 38.1968 49.2291 39.7474L49.2153 39.8048C49.194 39.8957 49.1747 39.9864 49.1576 40.0767C48.8476 41.7142 49.2355 43.2515 50.1642 44.6531L50.1952 44.6999C50.3027 44.8619 50.4131 45.0283 50.5292 45.1897C51.0274 45.8834 51.6306 46.4862 52.5613 46.2469C52.5905 46.2395 52.62 46.2314 52.6498 46.2223C53.3238 46.0173 53.6023 45.5399 53.7312 44.9807ZM47.0895 39.8507L47.0895 39.8507C46.8078 39.5898 46.5919 39.39 46.4295 39.4266C46.1803 39.4827 45.9761 39.7317 45.7708 39.982C45.6821 40.09 45.5933 40.1984 45.5005 40.2915C45.5909 40.3748 45.6796 40.476 45.7684 40.5772C45.9694 40.8066 46.1707 41.0362 46.3926 41.0576C46.5884 41.0781 46.8058 40.8977 47.0896 40.6621L47.0896 40.6621C47.234 40.5423 47.3955 40.4083 47.5801 40.2792C47.3979 40.1362 47.2349 39.9853 47.0895 39.8507ZM55.64 37.8698L55.6397 37.8696L55.6401 37.8693C55.419 37.7319 55.2354 37.5995 55.0766 37.4851L55.0766 37.485C54.7716 37.2651 54.5585 37.1115 54.3481 37.1156C54.3427 37.1157 54.3372 37.116 54.3316 37.1165C54.0588 37.1345 53.5732 37.6188 53.6097 37.8018C53.6773 38.1293 54.0465 38.5741 54.348 38.6297C54.3759 38.6344 54.4044 38.635 54.4337 38.6318C54.5677 38.6187 54.7206 38.5227 54.9119 38.3842C54.9619 38.3482 55.0145 38.3092 55.07 38.268C55.2321 38.1479 55.4192 38.0092 55.64 37.8698Z" fill="#20113D"/>
</svg>
