<svg width="100" height="144" viewBox="0 0 100 144" fill="none" xmlns="http://www.w3.org/2000/svg">
<path d="M49.6123 8.56201C27.3304 8.56201 9.30225 25.8072 9.30225 47.0582C9.30225 68.3092 49.6123 129.211 49.6123 129.211C49.6123 129.211 89.9224 68.3092 89.9224 47.0582C89.9224 25.8072 71.8943 8.56201 49.6123 8.56201Z" fill="#F58021"/>
<path d="M35.1229 57.4213C35.0882 57.4827 35.0592 57.5529 34.9897 57.6756C34.2153 56.3737 33.9906 54.9338 33.7165 53.5141C33.6669 53.4963 33.6087 53.4843 33.565 53.4753C33.3973 53.9052 33.1742 54.3085 33.0735 54.7447C32.7249 56.173 32.8303 57.6036 33.1714 59.0294C33.5888 60.7223 34.0062 62.4151 34.3625 64.1106C34.6275 65.3837 34.7821 66.6797 34.503 67.9853C34.1981 69.4227 33.5608 70.5859 32.1129 71.1326C31.4675 71.3727 30.8329 71.2876 30.2472 70.9536C29.676 70.6226 29.6018 70.0362 30.0954 69.6049C30.3887 69.3455 30.7227 69.0717 31.0832 68.9328C31.7955 68.6608 32.1609 68.1497 32.2173 67.4379C32.271 66.7788 32.2925 66.0903 32.1774 65.4421C31.8589 63.7087 31.4763 61.9926 31.0705 60.2792C30.6147 58.3576 30.348 56.4369 30.6808 54.4722C30.9704 52.7652 31.7089 51.3183 33.0623 50.2113C33.161 50.1327 33.251 50.0598 33.3498 49.9812C33.4108 49.9405 33.4689 49.9144 33.5794 49.8534C33.6646 50.1908 33.7323 50.5017 33.8087 50.8069C34.2631 48.6464 34.3972 46.3819 36.1974 44.735C38.8375 46.216 40.3011 48.5205 40.8904 51.4597C41.4205 48.104 39.4214 45.7881 37.4686 43.3903C37.9568 43.1025 38.4188 42.8323 38.8809 42.562C39.2732 42.3383 39.6655 42.1145 40.0606 41.8762C40.9498 41.3589 40.976 41.3414 41.5776 42.2118C42.1413 43.0438 42.6352 43.9224 43.1495 44.7747C43.246 44.9393 43.3337 45.1097 43.4795 45.254C43.3826 43.7033 42.7506 42.3317 41.9789 40.939C42.8624 40.451 43.7225 39.9658 44.6061 39.5159C44.7252 39.4491 44.967 39.5675 45.1157 39.659C46.7973 40.6987 47.7819 42.2801 48.4644 44.0885C48.6695 44.6258 48.8484 45.1805 49.0854 45.7091C49.0816 42.9897 47.7142 40.7735 46.3146 38.4898C47.3169 37.8207 48.2931 37.169 49.3303 36.4766C50.3135 37.5246 50.896 38.8784 51.5337 40.2207C51.5951 39.1748 51.3134 38.2181 50.8077 37.3219C50.6294 36.9958 50.4424 36.6754 50.2292 36.3726C49.9693 35.9992 49.9743 35.6651 50.2965 35.3355C50.9467 34.6852 51.5853 34.0173 52.2355 33.367C54.8209 35.0499 56.3689 37.349 56.9495 40.332C57.0911 38.762 56.6772 37.2831 56.1091 35.8562C55.5439 34.4146 54.6242 33.1969 53.469 32.0602C54.7872 30.8622 56.059 29.7079 57.3656 28.5304C58.5708 29.9136 59.5636 31.2605 60.0391 32.9273C59.9124 31.104 59.3205 29.4513 58.1614 27.9101C58.7805 27.6113 59.3239 27.3121 59.8908 27.0863C60.0129 27.043 60.2373 27.173 60.3918 27.2734C61.0709 27.7104 61.7961 27.9513 62.6225 27.9084C61.6704 27.7045 61.1362 27.0308 60.7152 26.2434C60.4141 25.694 60.6141 25.3697 61.2076 25.3169C62.1968 25.2162 63.1771 25.0833 64.1545 24.9269C64.8264 24.8217 65.4748 24.6051 66.1468 24.4999C67.162 24.3437 68.0938 24.5739 69.0348 25.0268C69.7399 25.3702 70.5666 25.4797 71.3556 25.6271C71.836 25.7262 72.2794 26.1298 72.298 26.6134C72.3076 26.9504 72.3259 27.2817 72.3674 27.6101C72.489 28.5337 72.2086 29.306 71.5789 30.0062C71.5205 29.918 71.4709 29.8621 71.4387 29.7946C71.1518 29.0957 71.1576 29.1046 70.4363 29.2681C69.7529 29.4318 69.0958 29.6542 68.6258 30.2351C68.0833 30.9152 68.0242 31.7179 68.5058 32.3121C68.894 32.8034 69.9653 32.9405 70.6017 32.5919C70.7208 32.5251 70.84 32.4583 70.9591 32.3915C71.2781 33.1198 71.1689 33.676 70.5968 34.1597C70.1438 34.5384 69.647 34.8701 69.13 35.2661C68.5355 34.8998 67.903 34.4953 67.2532 34.1405C66.5888 33.7827 65.8985 33.5185 65.0232 33.7721C65.3612 33.9408 65.6147 34.0768 65.9643 34.2631C64.5224 34.8568 63.5528 35.784 63.015 37.2114C62.8304 36.686 62.6516 36.1693 62.4318 35.5529C62.1925 38.7781 64.6796 43.1213 69.5692 44.6016C69.3424 44.6766 69.1651 44.7315 68.9848 44.8009C68.9907 44.8478 68.988 44.9006 68.9939 44.9475C69.2005 44.9368 69.4013 44.9553 69.5991 44.9123C70.2797 44.7633 70.9514 44.5819 71.6379 44.4417C72.301 44.3042 72.9009 44.4888 73.5248 44.9373C72.6445 45.525 71.8339 46.0661 71.0321 46.6014C70.3464 47.0464 69.6666 47.5002 68.9693 47.9276C68.8327 48.006 68.6 48.0342 68.4688 47.9691C65.7185 46.6253 62.8012 46.0543 59.7776 46.0249C58.794 46.0201 57.9175 45.7785 57.1158 45.1944C56.903 45.0439 56.6554 44.9548 56.3585 44.924C56.6882 45.289 57.0093 45.6598 57.4003 46.0983C53.7379 46.6226 50.4119 47.8636 47.3555 49.8912C46.9668 49.2094 46.6014 48.563 46.2419 47.9253C46.21 47.9339 46.1867 47.9368 46.1547 47.9454C46.2075 48.1391 46.243 48.3444 46.3191 48.5352C46.694 49.5187 46.6178 50.4854 46.3089 51.4802C45.6015 53.7332 44.1245 55.4315 42.5427 57.0853C41.6661 58.0012 40.8829 59.0201 40.1113 60.0185C39.5225 60.7805 39.2162 61.6845 39.1983 62.6631C39.1987 62.8155 39.1525 62.9735 39.121 63.1727C38.9636 63.0869 38.8325 63.0218 38.6693 62.9272C38.6841 63.0064 38.6813 63.0592 38.6988 63.0856C39.4581 64.156 40.3939 64.8668 41.7989 64.6157C42.3166 64.5245 42.8086 64.6031 43.2261 65.1384C43.0343 65.2664 42.8513 65.3886 42.677 65.505C41.326 66.4068 39.9693 67.2999 38.6387 68.2135C38.3337 68.4172 38.1503 68.387 37.8646 68.1834C36.8559 67.4576 36.2307 66.4377 35.6577 65.3829C35.4472 64.9892 35.3906 64.4673 35.3982 64.0043C35.4061 62.4981 35.4984 60.9865 35.5005 59.4715C35.5075 58.78 35.3632 58.0877 35.2946 57.3958C35.2364 57.4219 35.184 57.4187 35.1229 57.4213ZM66.3832 25.9575C66.3747 26.0395 66.3749 26.1157 66.3663 26.1977C66.8177 26.3288 67.2663 26.5127 67.7292 26.5853C67.898 26.6125 68.1069 26.3586 68.2987 26.2306C68.1295 26.0891 67.963 25.8187 67.7971 25.8149C67.3228 25.8009 66.8487 25.9012 66.3832 25.9575Z" fill="#20113D"/>
<path d="M48.5746 56.4963C48.4989 56.496 48.3271 56.4834 48.0623 56.4821C48.8264 57.1426 49.6385 57.1729 50.4504 57.0888C51.4164 56.9908 52.3765 56.8078 53.3425 56.7098C53.9129 56.6597 54.4633 56.7884 54.8227 57.3883C54.6978 57.4845 54.5874 57.5837 54.4654 57.6652C53.0182 58.6317 51.5769 59.6071 50.1094 60.5618C49.9089 60.6958 49.5917 60.7294 49.3501 60.6872C48.625 60.5606 47.9173 60.3842 47.2009 60.2136C46.3622 60.0102 45.8488 59.5386 45.7797 58.6176C45.7586 58.3008 45.5861 57.9833 45.4224 57.6981C45.098 57.1511 44.7301 56.6333 44.362 56.0774C45.7124 54.8318 46.2818 53.1661 46.9066 51.5271C47.1814 50.8217 47.6227 50.3488 48.3263 50.0443C48.9012 50.7039 49.3802 51.3894 49.17 52.3443C49.0807 52.7221 48.9855 53.0911 48.9312 53.4837C48.8083 54.4566 48.6972 55.4472 48.5746 56.4963Z" fill="#20113D"/>
<path d="M53.0467 47.6946C54.8126 47.3424 56.436 47.0218 58.1147 46.6897C58.3691 48.4034 57.8843 50.1399 58.6507 51.7534C58.389 51.8519 58.1534 51.9329 57.915 52.0285C57.918 52.0901 57.9298 52.1459 57.9329 52.2075C58.3054 52.2004 58.6926 52.2346 59.0563 52.1571C59.6498 52.028 60.211 51.7932 60.8015 51.6406C61.4705 51.4737 61.9893 51.7636 62.4651 52.3113C61.8984 52.6898 61.3492 53.0566 60.8086 53.4176C59.8235 54.0756 58.85 54.7513 57.8473 55.3828C57.6671 55.4904 57.3528 55.5094 57.146 55.4439C56.3159 55.1966 55.7555 54.5781 55.4423 53.82C54.6138 51.8279 53.8609 49.7981 53.0467 47.6946Z" fill="#20113D"/>
</svg>
