<svg width="168" height="38" viewBox="0 0 168 38" fill="none" xmlns="http://www.w3.org/2000/svg">
<g filter="url(#filter0_d)">
<path d="M0.243978 14.5492C0.573619 12.5546 1.17796 10.724 2.057 9.05738C2.93605 7.39071 3.96618 6.01093 5.14739 4.91803C6.35607 3.82514 7.68837 2.89617 9.14429 2.13115C10.6277 1.36612 12.0973 0.819672 13.5532 0.491802C15.0366 0.163934 16.52 0 18.0034 0C21.2174 0 24.0193 0.655738 26.4092 1.96721L25.1319 9.95902C23.676 8.78415 21.6844 8.19672 19.1571 8.19672C16.9046 8.19672 14.8993 8.75683 13.1412 9.87705C11.3831 10.9973 10.298 12.7459 9.88598 15.123C9.55634 17.1995 10.0233 18.8115 11.287 19.959C12.5506 21.1066 14.1576 21.6803 16.108 21.6803C18.9648 21.6803 21.5333 20.9973 23.8133 19.6311L22.4123 28.4016C20.0774 29.4672 17.3578 30 14.2537 30C12.1935 30 10.2568 29.6995 8.4438 29.0984C6.65825 28.4699 5.06498 27.5546 3.664 26.3525C2.26303 25.123 1.2329 23.4973 0.573619 21.4754C-0.0581932 19.4262 -0.168074 17.1175 0.243978 14.5492Z" fill="url(#paint0_linear)"/>
<path d="M55.1511 29.3443H45.88L45.2207 25.5328H35.043L33.1888 29.3443H23.382L38.7103 0.655737H48.9703L55.1511 29.3443ZM41.3886 12.418L38.2982 18.6885H44.1081L43.078 12.459C42.8857 11.1749 42.7896 9.94536 42.7896 8.77049C42.3775 10.1366 41.9105 11.3525 41.3886 12.418Z" fill="url(#paint1_linear)"/>
<path d="M58.8261 8.11475C59.2382 5.51912 60.6117 3.52459 62.9466 2.13115C65.2816 0.710383 67.9874 0 71.064 0C75.1571 0 78.6732 0.833334 81.6125 2.5L80.3764 10.4098C77.7667 8.63388 74.8686 7.77322 71.6821 7.82787C69.5944 7.82787 68.5093 8.26503 68.4269 9.13934C68.3994 9.54918 68.7016 9.95902 69.3334 10.3689C69.9927 10.7514 70.8168 11.0929 71.8057 11.3934C72.7946 11.694 73.8385 12.1311 74.9373 12.7049C76.0636 13.2514 77.08 13.8661 77.9865 14.5492C78.9205 15.2322 79.621 16.1749 80.088 17.377C80.5824 18.5792 80.706 19.959 80.4588 21.5164C79.4974 27.1721 75.1296 30 67.3556 30C62.9054 30 59.142 29.0574 56.0654 27.1721L57.3839 18.9754C60.2133 21.0519 63.3861 22.0902 66.9023 22.0902C69.3746 22.0902 70.6794 21.653 70.8168 20.7787C70.8992 20.2869 70.6245 19.8361 69.9927 19.4262C69.3609 18.9891 68.5505 18.6202 67.5616 18.3197C66.6001 18.0191 65.5563 17.5956 64.43 17.0492C63.3037 16.5027 62.2736 15.9016 61.3396 15.2459C60.4056 14.5628 59.6914 13.6066 59.1969 12.377C58.7025 11.1475 58.5789 9.72678 58.8261 8.11475Z" fill="url(#paint2_linear)"/>
<path d="M86.8388 0.655737H96.3572L91.7835 29.3443H82.2651L86.8388 0.655737Z" fill="url(#paint3_linear)"/>
<path d="M105.626 29.3443H96.1074L100.681 0.655737H107.851L116.38 14.4672C116.408 12.8005 116.559 11.1885 116.834 9.63115L118.235 0.655737H127.753L123.179 29.3443H116.01L107.521 15.5738C107.521 16.776 107.384 18.3333 107.109 20.2459L105.626 29.3443Z" fill="url(#paint4_linear)"/>
<path d="M159.758 15.5738C159.098 19.7541 157.231 23.2104 154.154 25.9426C151.077 28.6475 147.108 30 142.246 30C137.328 30 133.661 28.5109 131.244 25.5328C128.826 22.5546 127.975 18.8525 128.689 14.4262C129.348 10.2459 131.216 6.80328 134.293 4.09836C137.37 1.36612 141.339 0 146.201 0C151.063 0 154.717 1.48907 157.162 4.46721C159.607 7.44535 160.472 11.1475 159.758 15.5738ZM138.331 15.4918C138.111 17.3497 138.4 18.8115 139.196 19.877C140.021 20.9153 141.298 21.4344 143.028 21.4344C144.979 21.4344 146.586 20.8197 147.849 19.5902C149.141 18.3333 149.91 16.6393 150.157 14.5082C150.404 12.6503 150.116 11.2022 149.292 10.1639C148.495 9.09836 147.218 8.56557 145.46 8.56557C143.537 8.56557 141.943 9.19399 140.68 10.4508C139.416 11.6803 138.633 13.3607 138.331 15.4918Z" fill="url(#paint5_linear)"/>
</g>
<defs>
<filter id="filter0_d" x="0" y="0" width="168" height="38" filterUnits="userSpaceOnUse" color-interpolation-filters="sRGB">
<feFlood flood-opacity="0" result="BackgroundImageFix"/>
<feColorMatrix in="SourceAlpha" type="matrix" values="0 0 0 0 0 0 0 0 0 0 0 0 0 0 0 0 0 0 127 0" result="hardAlpha"/>
<feOffset dx="4" dy="4"/>
<feGaussianBlur stdDeviation="2"/>
<feColorMatrix type="matrix" values="0 0 0 0 0 0 0 0 0 0 0 0 0 0 0 0 0 0 0.25 0"/>
<feBlend mode="normal" in2="BackgroundImageFix" result="effect1_dropShadow"/>
<feBlend mode="normal" in="SourceGraphic" in2="effect1_dropShadow" result="shape"/>
</filter>
<linearGradient id="paint0_linear" x1="4.95872" y1="15" x2="153.72" y2="15" gradientUnits="userSpaceOnUse">
<stop stop-color="#00B2FF"/>
<stop offset="1" stop-color="#8F00FF"/>
</linearGradient>
<linearGradient id="paint1_linear" x1="4.95872" y1="15" x2="153.72" y2="15" gradientUnits="userSpaceOnUse">
<stop stop-color="#00B2FF"/>
<stop offset="1" stop-color="#8F00FF"/>
</linearGradient>
<linearGradient id="paint2_linear" x1="4.95872" y1="15" x2="153.72" y2="15" gradientUnits="userSpaceOnUse">
<stop stop-color="#00B2FF"/>
<stop offset="1" stop-color="#8F00FF"/>
</linearGradient>
<linearGradient id="paint3_linear" x1="4.95872" y1="15" x2="153.72" y2="15" gradientUnits="userSpaceOnUse">
<stop stop-color="#00B2FF"/>
<stop offset="1" stop-color="#8F00FF"/>
</linearGradient>
<linearGradient id="paint4_linear" x1="4.95872" y1="15" x2="153.72" y2="15" gradientUnits="userSpaceOnUse">
<stop stop-color="#00B2FF"/>
<stop offset="1" stop-color="#8F00FF"/>
</linearGradient>
<linearGradient id="paint5_linear" x1="4.95872" y1="15" x2="153.72" y2="15" gradientUnits="userSpaceOnUse">
<stop stop-color="#00B2FF"/>
<stop offset="1" stop-color="#8F00FF"/>
</linearGradient>
</defs>
</svg>
