<svg width="100" height="22" viewBox="0 0 100 22" fill="none" xmlns="http://www.w3.org/2000/svg">
<path fill-rule="evenodd" clip-rule="evenodd" d="M10.4167 15.6415C10.8167 15.6415 11.1667 15.5572 11.5 15.4054C11.8333 15.2368 12.1 15.0344 12.3333 14.7477C12.5667 14.4779 12.7333 14.1574 12.8667 13.7864C12.9833 13.4154 13.05 13.0275 13.05 12.6058C13.05 12.0324 12.8833 11.5602 12.5667 11.1723C12.25 10.7844 11.7833 10.5989 11.1667 10.5989C10.8 10.5989 10.45 10.6832 10.1167 10.835C9.78333 11.0036 9.5 11.2229 9.26666 11.4927C9.03333 11.7794 8.83333 12.0999 8.7 12.4709C8.56667 12.8419 8.5 13.2298 8.5 13.6346C8.5 14.2249 8.68333 14.714 9.03333 15.085C9.35 15.456 9.81666 15.6415 10.4167 15.6415Z" fill="white"/>
<path fill-rule="evenodd" clip-rule="evenodd" d="M20.3333 10.4639C20 10.4639 19.7 10.5145 19.4333 10.6494C19.1667 10.7674 18.9333 10.9192 18.7333 11.1047C18.5333 11.2903 18.3667 11.5095 18.25 11.7288C18.1167 11.948 18.0333 12.1672 18 12.3696H21.9833C22 12.3022 22 12.2178 22 12.1672C22 12.0998 22 12.0323 22 11.9649C22 11.5432 21.85 11.1891 21.5667 10.9024C21.2833 10.5988 20.8667 10.4639 20.3333 10.4639Z" fill="white"/>
<path fill-rule="evenodd" clip-rule="evenodd" d="M35.7168 3.54935C33.9335 -0.683801 25.7335 -1.54392 14.5002 3.24578C12.7836 3.97098 11.2336 4.74677 9.81691 5.53943L8.90024 10.4809H8.93358C9.25024 10.0256 9.63358 9.67139 10.1169 9.41841C10.6002 9.16544 11.1169 9.03051 11.7002 9.03051C12.1836 9.03051 12.6336 9.11484 13.0336 9.26663C13.4336 9.43528 13.7669 9.65452 14.0502 9.95809C14.3336 10.2617 14.5502 10.6158 14.7002 11.0206C14.8502 11.4254 14.9336 11.8807 14.9336 12.3867C14.9336 13.0613 14.8336 13.6853 14.6169 14.2587C14.4002 14.8321 14.1169 15.3549 13.7502 15.7934C13.3836 16.2319 12.9336 16.5692 12.4169 16.8222C11.9002 17.0752 11.3336 17.2101 10.7169 17.2101C10.1502 17.2101 9.60024 17.0752 9.10024 16.8222C8.60025 16.5692 8.21691 16.1813 7.96691 15.6922H7.93358L7.71692 17.0246H5.96692L7.73358 6.83805C1.45026 10.9531 -0.999729 15.5405 0.366934 18.7954C2.15026 23.0286 11.5002 23.0792 21.2669 18.8797C22.8502 18.1883 24.3502 17.4462 25.7502 16.6367C25.4502 16.3162 25.3002 15.9115 25.3002 15.3887C25.3002 15.2369 25.3169 15.0682 25.3169 14.8996C25.3335 14.7309 25.3502 14.5623 25.3835 14.4105L26.0335 10.8182H24.6669L24.9335 9.26663H26.2669L26.6502 7.0067H28.5002L28.1169 9.26663H29.8335L29.5669 10.8182H27.8669L27.2002 14.4442C27.1669 14.596 27.1502 14.7478 27.1502 14.8996C27.1502 15.1694 27.2335 15.3718 27.4002 15.473C27.4335 15.4899 27.4835 15.5236 27.5169 15.5405C33.6168 11.5603 37.0835 6.78745 35.7168 3.54935ZM23.6669 12.8589C23.6335 13.1625 23.5835 13.4492 23.5169 13.719H17.8336C17.8169 13.7696 17.8169 13.8371 17.8169 13.9045C17.8169 14.1575 17.8669 14.3936 17.9669 14.6129C18.0669 14.8321 18.2002 15.0176 18.3836 15.1694C18.5669 15.3212 18.7836 15.4561 19.0169 15.5405C19.2669 15.6248 19.5336 15.6754 19.8169 15.6754C20.3002 15.6754 20.7169 15.591 21.0669 15.4055C21.4169 15.22 21.7169 14.967 22.0002 14.6635L23.0669 15.6754C22.1169 16.7041 20.9669 17.227 19.6002 17.227C19.0836 17.227 18.6002 17.1426 18.1669 16.9909C17.7336 16.8391 17.3502 16.603 17.0336 16.3162C16.7169 16.0295 16.4669 15.6754 16.2836 15.2369C16.1002 14.8153 16.0169 14.3262 16.0169 13.7696C16.0169 13.095 16.1336 12.4879 16.3502 11.8976C16.5669 11.3242 16.8836 10.8182 17.2836 10.3797C17.6836 9.94123 18.1502 9.60393 18.7002 9.36781C19.2502 9.1317 19.8502 8.99678 20.5002 8.99678C20.9502 8.99678 21.3835 9.06424 21.7669 9.19916C22.1502 9.33408 22.5002 9.5196 22.7835 9.77258C23.0669 10.0256 23.3002 10.346 23.4502 10.7339C23.6169 11.1218 23.6835 11.5771 23.6835 12.1C23.7002 12.3192 23.6835 12.5553 23.6669 12.8589Z" fill="white"/>
<path d="M42.3333 10.4303L42.5333 9.24975H44.3167L43.1 16.35C42.9833 17.0246 42.8167 17.6486 42.5833 18.2051C42.3667 18.7617 42.0667 19.2508 41.6833 19.6387C41.3167 20.0434 40.85 20.347 40.3 20.5662C39.75 20.7855 39.0834 20.8867 38.3 20.8867C37.9834 20.8867 37.65 20.853 37.3167 20.8024C36.9834 20.7518 36.6334 20.6506 36.3167 20.5325C35.9834 20.4145 35.6667 20.2627 35.3834 20.094C35.0834 19.9254 34.8334 19.723 34.6167 19.5037L35.8667 18.1208C36.1667 18.475 36.5334 18.7448 36.9667 18.9472C37.4 19.1327 37.8667 19.2339 38.35 19.2339C38.8167 19.2339 39.2167 19.1664 39.5334 19.0315C39.8667 18.8966 40.1334 18.7111 40.35 18.475C40.5667 18.2389 40.75 17.9522 40.8833 17.6149C41.0167 17.2775 41.1167 16.9234 41.2 16.5355L41.3333 15.9115H41.3167C41.0333 16.2825 40.6667 16.5861 40.2167 16.8053C39.7667 17.0246 39.25 17.1426 38.6667 17.1426C38.1834 17.1426 37.7334 17.0583 37.3334 16.9065C36.9334 16.7379 36.6 16.5186 36.3167 16.2319C36.0334 15.9452 35.8167 15.591 35.6667 15.1863C35.5167 14.7815 35.4334 14.3261 35.4334 13.8371C35.4334 13.1793 35.5334 12.5553 35.75 11.9819C35.95 11.4085 36.25 10.8857 36.6167 10.4472C36.9834 10.0087 37.4334 9.67137 37.95 9.4184C38.4667 9.16542 39.0334 9.04736 39.65 9.04736C40.35 9.04736 40.9167 9.18229 41.35 9.43526C41.7833 9.68824 42.1 10.0255 42.3 10.4303H42.3333ZM37.35 13.5841C37.35 14.1575 37.5167 14.6297 37.8334 15.0176C38.1667 15.4055 38.6167 15.591 39.2334 15.591C39.6 15.591 39.95 15.5067 40.2833 15.3549C40.6167 15.1863 40.9 14.967 41.1333 14.6972C41.3667 14.4105 41.5667 14.09 41.7 13.7359C41.8333 13.3648 41.9 12.9769 41.9 12.5722C41.9 11.9819 41.7333 11.4928 41.3667 11.1218C41.0167 10.7507 40.5333 10.5652 39.95 10.5652C39.55 10.5652 39.2 10.6495 38.8667 10.8013C38.55 10.97 38.2667 11.1724 38.0334 11.4591C37.8 11.7289 37.6334 12.0494 37.5 12.4204C37.4167 12.7746 37.35 13.1625 37.35 13.5841Z" fill="white"/>
<path d="M50.4668 12.1C50.4834 11.9651 50.5001 11.8639 50.5001 11.7964C50.5001 11.7289 50.5168 11.6615 50.5168 11.594C50.5168 11.223 50.4001 10.9531 50.1501 10.7845C49.9168 10.6158 49.5501 10.5484 49.0835 10.5484C48.7168 10.5484 48.3168 10.6158 47.9335 10.7676C47.5335 10.9194 47.1835 11.1049 46.8668 11.3242L46.1501 10.0424C46.5835 9.72199 47.0835 9.48588 47.6501 9.30036C48.2168 9.11484 48.7835 9.03052 49.3668 9.03052C49.7334 9.03052 50.0834 9.06425 50.4501 9.14858C50.8168 9.2329 51.1334 9.36782 51.4168 9.53647C51.7001 9.72199 51.9168 9.9581 52.1001 10.2617C52.2668 10.5652 52.3501 10.9194 52.3501 11.3748C52.3501 11.476 52.3501 11.594 52.3334 11.7289C52.3168 11.8639 52.3001 11.9988 52.2834 12.1L51.7168 15.2538C51.6668 15.5573 51.6168 15.8609 51.5834 16.1982C51.5501 16.5186 51.5334 16.7885 51.5334 17.0077H49.8168C49.8168 16.721 49.8501 16.4174 49.9168 16.0801H49.8835C49.2835 16.8053 48.4501 17.1595 47.3835 17.1595C47.1168 17.1595 46.8335 17.1258 46.5501 17.0583C46.2668 16.9909 46.0001 16.8897 45.7668 16.721C45.5335 16.5692 45.3335 16.35 45.1835 16.097C45.0335 15.8272 44.9668 15.5067 44.9668 15.102C44.9668 14.4611 45.1335 13.9551 45.4668 13.5672C45.8001 13.1793 46.2335 12.8589 46.7668 12.6397C47.3001 12.4204 47.9001 12.2686 48.5501 12.2012C49.2001 12.1337 49.8335 12.1 50.4668 12.1ZM50.0668 13.4492C49.7001 13.4492 49.3335 13.466 48.9335 13.4829C48.5501 13.5166 48.1835 13.5672 47.8668 13.6684C47.5335 13.7696 47.2835 13.9045 47.0668 14.0901C46.8668 14.2587 46.7501 14.5117 46.7501 14.8153C46.7501 15.0008 46.7835 15.1526 46.8501 15.2706C46.9168 15.3887 47.0168 15.4899 47.1335 15.5742C47.2501 15.6416 47.3835 15.7091 47.5335 15.7428C47.6835 15.7766 47.8335 15.7934 48.0001 15.7934C48.2835 15.7934 48.5501 15.7428 48.8001 15.6416C49.0501 15.5405 49.2668 15.4055 49.4501 15.2538C49.6335 15.0851 49.7835 14.8996 49.9168 14.6635C50.0335 14.4442 50.1335 14.2081 50.1835 13.9383L50.2834 13.4492H50.0668Z" fill="white"/>
<path d="M54.6667 10.1267C54.7167 9.80629 54.7501 9.51959 54.7667 9.24975H56.5167C56.5001 9.3678 56.4834 9.55332 56.4501 9.82316C56.4167 10.0761 56.4001 10.2954 56.3667 10.464H56.4001C56.6334 10.093 56.9334 9.77256 57.3167 9.48586C57.7001 9.19915 58.1834 9.04736 58.7667 9.04736C59.4001 9.04736 59.9167 9.18228 60.3 9.46899C60.6834 9.7557 60.95 10.1099 61.0667 10.5652C61.4 10.093 61.7834 9.72197 62.2334 9.45213C62.6834 9.18228 63.2 9.04736 63.7834 9.04736C64.2334 9.04736 64.6167 9.11482 64.9334 9.23288C65.25 9.3678 65.5167 9.53645 65.7334 9.7557C65.95 9.97495 66.1 10.2279 66.2 10.5315C66.3 10.8351 66.35 11.1386 66.35 11.4591C66.35 11.7289 66.3334 11.965 66.2834 12.1843L65.4334 17.0077H63.5667L64.3 12.7408C64.3167 12.6059 64.3334 12.4878 64.35 12.3529C64.3667 12.218 64.3667 12.1 64.3667 11.965C64.3667 11.7964 64.35 11.6277 64.3 11.4591C64.25 11.2904 64.1834 11.1555 64.1 11.0375C64 10.9194 63.8667 10.8182 63.7167 10.7507C63.5667 10.6833 63.35 10.6327 63.1 10.6327C62.8 10.6327 62.5334 10.7001 62.3 10.8182C62.0667 10.9531 61.8667 11.1218 61.6834 11.3242C61.5 11.5265 61.3667 11.7626 61.2667 12.0156C61.1667 12.2686 61.0834 12.5216 61.05 12.7746L60.3167 17.0077H58.4334L59.2501 12.3192C59.2834 12.1505 59.3 12.0156 59.3 11.8807C59.3 11.5097 59.2001 11.223 59.0167 10.9869C58.8334 10.7507 58.5334 10.6327 58.1167 10.6327C57.8334 10.6327 57.5667 10.7001 57.3334 10.8182C57.1001 10.9363 56.9001 11.1049 56.7334 11.2904C56.5667 11.4759 56.4167 11.7121 56.3167 11.965C56.2001 12.218 56.1334 12.471 56.0834 12.724L55.3334 16.9908H53.4834L54.5334 10.9025C54.5834 10.717 54.6167 10.4472 54.6667 10.1267Z" fill="white"/>
<path d="M69.4334 13.7191C69.4167 13.7697 69.4167 13.8371 69.4167 13.8877C69.4167 14.1407 69.4667 14.3768 69.5667 14.5961C69.6667 14.8153 69.8 15.0008 69.9834 15.1526C70.1667 15.3044 70.3834 15.4393 70.6167 15.5236C70.8667 15.608 71.1334 15.6586 71.4167 15.6586C71.9 15.6586 72.3334 15.5742 72.6667 15.3887C73.0167 15.2032 73.3167 14.9502 73.6 14.6467L74.6667 15.6586C73.7167 16.6873 72.5667 17.2102 71.2 17.2102C70.6834 17.2102 70.2 17.1258 69.7667 16.974C69.3334 16.8223 68.95 16.5862 68.6334 16.2994C68.3167 16.0127 68.0667 15.6586 67.8834 15.2201C67.7 14.7984 67.6167 14.3094 67.6167 13.7528C67.6167 13.0782 67.7334 12.4542 67.95 11.8808C68.1667 11.3074 68.4834 10.8014 68.8834 10.3629C69.2834 9.92443 69.75 9.60399 70.3 9.35102C70.85 9.1149 71.45 8.97998 72.1 8.97998C72.55 8.97998 72.9834 9.04744 73.3667 9.1655C73.75 9.30042 74.1 9.48594 74.3833 9.75578C74.6667 10.0088 74.9 10.3292 75.05 10.7171C75.2167 11.105 75.2833 11.5603 75.2833 12.0832C75.2833 12.2518 75.2667 12.4879 75.2333 12.8084C75.2 13.1119 75.15 13.3986 75.0833 13.6685H69.4334V13.7191ZM73.5834 12.3699C73.6 12.3024 73.6 12.2181 73.6 12.1675C73.6 12.1 73.6 12.0326 73.6 11.9651C73.6 11.5435 73.45 11.1893 73.1667 10.9026C72.8667 10.6159 72.4667 10.4641 71.9334 10.4641C71.6 10.4641 71.3 10.5147 71.0334 10.6496C70.7667 10.7677 70.5334 10.9195 70.3334 11.105C70.1334 11.2905 69.9667 11.5097 69.85 11.729C69.7167 11.9482 69.6334 12.1675 69.6 12.3699H73.5834Z" fill="white"/>
<path d="M77.05 14.7815C77.2167 15.1019 77.45 15.338 77.7667 15.5067C78.0834 15.6753 78.4334 15.7597 78.8167 15.7597C79.25 15.7597 79.6 15.6753 79.8667 15.5067C80.1334 15.338 80.25 15.1019 80.25 14.7984C80.25 14.5116 80.15 14.3093 79.9334 14.1743C79.7334 14.0394 79.4 13.9045 78.9334 13.7527C78.5667 13.6347 78.25 13.5166 77.9834 13.3817C77.7167 13.2636 77.4834 13.1118 77.3 12.9432C77.1167 12.7745 76.9834 12.589 76.9 12.3698C76.8167 12.1505 76.7667 11.8976 76.7667 11.6108C76.7667 11.2398 76.85 10.8856 77.0167 10.5821C77.1834 10.2616 77.4167 10.0087 77.7167 9.77255C78.0167 9.5533 78.3667 9.36778 78.7667 9.24973C79.1667 9.13167 79.6167 9.06421 80.1 9.06421C80.7 9.06421 81.2334 9.18226 81.7167 9.40151C82.2 9.62076 82.5833 9.95806 82.8667 10.4134L81.4167 11.2904C81.2834 11.0712 81.1 10.9025 80.8667 10.7507C80.65 10.5989 80.3334 10.5315 79.95 10.5315C79.7834 10.5315 79.6334 10.5483 79.4667 10.5821C79.3 10.6158 79.15 10.6664 79.0334 10.7339C78.9 10.8013 78.8 10.9025 78.7167 11.0206C78.6334 11.1386 78.6 11.2904 78.6 11.4591C78.6 11.712 78.7 11.8975 78.9167 12.0156C79.1167 12.1337 79.4334 12.2517 79.8334 12.3698C80.55 12.5722 81.1 12.8589 81.5 13.1962C81.9 13.5503 82.0833 14.0394 82.0833 14.6972C82.0833 15.1357 82 15.5067 81.8167 15.844C81.6334 16.1644 81.4 16.4511 81.0834 16.6704C80.7834 16.8896 80.4334 17.0583 80.0334 17.1763C79.6334 17.2944 79.2167 17.345 78.7667 17.345C77.9334 17.345 77.2667 17.1932 76.7667 16.9065C76.2667 16.6029 75.8667 16.2488 75.6167 15.7934L77.05 14.7815Z" fill="white"/>
<path d="M85.3832 15.8441C85.3832 16.1814 85.2665 16.4681 85.0332 16.7042C84.7999 16.9403 84.5165 17.0753 84.1999 17.0753C83.8832 17.0753 83.5999 16.9741 83.3832 16.7717C83.1499 16.5693 83.0332 16.2826 83.0332 15.9116C83.0332 15.5574 83.1499 15.2707 83.3999 15.0346C83.6499 14.7985 83.9332 14.6804 84.2499 14.6804C84.5665 14.6804 84.8332 14.7816 85.0499 15.0009C85.2832 15.2032 85.3832 15.49 85.3832 15.8441Z" fill="white"/>
<path d="M86.5669 10.8013L86.8336 9.24967H88.1669L88.5502 6.98975H90.4002L90.0169 9.24967H91.7502L91.4835 10.8013H89.7836L89.1169 14.4273C89.0836 14.5959 89.0669 14.7308 89.0669 14.8826C89.0669 15.1693 89.1502 15.3548 89.3169 15.456C89.4836 15.5572 89.7002 15.6078 89.9836 15.6078C90.1169 15.6078 90.2335 15.6078 90.3669 15.5741C90.4835 15.5572 90.6002 15.5404 90.7169 15.5066L90.6002 16.9402C90.4336 17.0076 90.2502 17.0582 90.0336 17.092C89.8169 17.1257 89.6169 17.1425 89.4336 17.1425C88.6169 17.1425 88.0502 16.9739 87.7002 16.6535C87.3502 16.333 87.1836 15.8945 87.1836 15.3548C87.1836 15.2031 87.2002 15.0344 87.2002 14.8658C87.2169 14.6971 87.2336 14.5285 87.2669 14.3767L87.9169 10.7844H86.5669V10.8013Z" fill="white"/>
<path d="M95.4502 17.0077H93.4336L91.9336 9.24976H93.9003L94.7836 14.9333H94.8169L98.0169 9.24976H100L95.4502 17.0077Z" fill="white"/>
</svg>
