<svg width="100" height="24" viewBox="0 0 100 24" fill="none" xmlns="http://www.w3.org/2000/svg">
<path d="M99.9999 10.0597H99.4536L99.4926 8.48204H99.4584C99.2926 8.98129 99.1267 9.52547 98.9706 10.0547H98.4828L97.9414 8.4471H97.9121C97.9121 8.94635 97.9414 9.49552 97.956 10.0297H97.4048V7.89792H98.2926L98.6926 9.22093H98.717L99.0975 7.88794H99.9999V10.0597Z" fill="white"/>
<path d="M61.3171 9.8649C61.3464 12.2114 61.3903 14.5578 61.4196 16.9193H59.0684V7.7381H63.1171L63.1756 7.89287C63.9854 10.1162 64.7984 12.3412 65.6146 14.5678C65.6258 14.6082 65.6422 14.6468 65.6634 14.6826C65.6634 14.6826 65.7073 14.7126 65.7561 14.7376C65.7561 13.5543 65.7268 12.3911 65.7171 11.2428C65.7073 10.0946 65.6829 8.92631 65.6683 7.74808C65.7854 7.71813 67.7756 7.70315 68.0439 7.74808V16.9343H63.9512C63.9512 16.8843 63.9073 16.8294 63.8878 16.7695C63.0846 14.5196 62.2765 12.2713 61.4635 10.0247C61.4539 9.98454 61.4392 9.94591 61.4196 9.90983C61.4196 9.87988 61.3659 9.86989 61.3366 9.84493L61.3171 9.8649Z" fill="white"/>
<path d="M41.3711 7.73335H46.293C46.7905 7.72864 47.2852 7.80965 47.7564 7.97299C48.0524 8.06121 48.317 8.2356 48.5179 8.47492C48.7189 8.71424 48.8475 9.00818 48.8881 9.32096C49.0089 10.0008 48.9721 10.7002 48.7808 11.3629C48.7421 11.5077 48.672 11.6417 48.5758 11.7549C48.4795 11.8681 48.3595 11.9577 48.2247 12.0169C48.0476 12.0898 47.8669 12.1531 47.6833 12.2066C47.6359 12.2157 47.592 12.2382 47.5565 12.2715L47.6296 12.3015C47.8199 12.3514 48.015 12.3814 48.2003 12.4463C48.3703 12.5007 48.5252 12.5956 48.6524 12.7232C48.7796 12.8507 48.8754 13.0073 48.932 13.1801C49.0319 13.4639 49.0863 13.7623 49.093 14.0638C49.1256 14.567 49.0811 15.0724 48.9613 15.5616C48.9269 15.6864 48.8828 15.8083 48.8296 15.926C48.6974 16.2379 48.4554 16.4874 48.1516 16.625C47.8092 16.781 47.4426 16.8739 47.0687 16.8995C46.7662 16.8995 46.4638 16.9345 46.1613 16.9345H41.4004C41.3516 16.8097 41.337 7.98797 41.3711 7.73335ZM43.7858 13.1352V14.8976H43.8833C44.454 14.8976 45.0248 14.8976 45.5955 14.8976C45.8136 14.8868 46.0305 14.8584 46.2443 14.8127C46.3325 14.7995 46.4149 14.7596 46.4809 14.6983C46.547 14.6369 46.5936 14.5568 46.615 14.4682C46.71 14.1544 46.71 13.8185 46.615 13.5047C46.5972 13.4339 46.5603 13.3697 46.5086 13.3194C46.4568 13.269 46.3923 13.2346 46.3223 13.2201C46.1627 13.1768 45.9993 13.15 45.8345 13.1402C45.1809 13.1402 44.5272 13.1402 43.8833 13.1402L43.7858 13.1352ZM43.7858 9.77527V11.4428C43.854 11.4428 43.9126 11.4428 43.9711 11.4428C44.4297 11.4428 44.8833 11.4428 45.337 11.4428C45.6196 11.4516 45.902 11.4196 46.176 11.3479C46.2587 11.3312 46.3346 11.2895 46.3937 11.228C46.4529 11.1666 46.4926 11.0883 46.5077 11.0034C46.5711 10.7411 46.5711 10.4669 46.5077 10.2046C46.4892 10.1126 46.4438 10.0285 46.3776 9.96347C46.3114 9.89841 46.2275 9.85541 46.137 9.84018C46.0035 9.81429 45.8679 9.80092 45.7321 9.80024H43.7809L43.7858 9.77527Z" fill="white"/>
<path d="M82.9706 13.3698C82.9706 13.4597 83.0487 13.4397 83.0877 13.4497C83.272 13.4807 83.4544 13.5223 83.634 13.5745C83.8696 13.6518 84.0796 13.7944 84.2406 13.9865C84.4017 14.1787 84.5075 14.4128 84.5462 14.6629C84.5852 14.8499 84.6048 15.0407 84.6048 15.232C84.6048 15.7612 84.6048 16.2904 84.6048 16.8146C84.6048 16.8496 84.6048 16.8795 84.6048 16.9195H82.1658V15.6414C82.1668 15.419 82.1254 15.1985 82.0438 14.9924C82.0021 14.8777 81.9321 14.7761 81.8406 14.6974C81.7492 14.6187 81.6393 14.5655 81.5219 14.543C81.4224 14.5215 81.3211 14.5098 81.2194 14.5081H79.4731H79.3755V16.8945C79.2536 16.9294 77.239 16.9444 76.9609 16.8945V7.73828H81.6048C82.1664 7.73068 82.7257 7.8115 83.2633 7.97792H83.2926C83.6027 8.06265 83.8833 8.23489 84.1024 8.475C84.3215 8.71511 84.4702 9.01342 84.5316 9.33588C84.5965 9.61854 84.6421 9.90546 84.6682 10.1946C84.7161 10.8303 84.6833 11.4697 84.5706 12.0967C84.5304 12.3239 84.4321 12.536 84.2855 12.7114C84.1389 12.8869 83.9495 13.0193 83.7365 13.0952C83.5462 13.1701 83.3462 13.23 83.1511 13.2949L82.9706 13.3698ZM79.3609 12.3713H81.4877C81.5873 12.3639 81.6857 12.3438 81.7804 12.3114C81.8555 12.293 81.9242 12.254 81.9792 12.1985C82.0342 12.1431 82.0734 12.0734 82.0926 11.9969C82.1385 11.818 82.1727 11.6362 82.195 11.4527C82.2291 11.08 82.2044 10.7041 82.1219 10.3394C82.1049 10.2333 82.0548 10.1356 81.9792 10.061C81.9037 9.98632 81.8065 9.93862 81.7024 9.92499C81.5419 9.88865 81.3787 9.86693 81.2146 9.86009H79.8341H79.3463L79.3609 12.3713Z" fill="white"/>
<path d="M85.6001 12.7008C85.6001 12.0517 85.6001 11.5475 85.644 11.0482C85.6574 10.5768 85.7278 10.109 85.8538 9.65534C85.9647 9.28234 86.1584 8.94063 86.4196 8.65684C86.6177 8.45014 86.8574 8.29001 87.122 8.18755C87.887 7.88077 88.7004 7.72002 89.522 7.71326C90.0368 7.69905 90.5519 7.72241 91.0635 7.78315C91.568 7.83803 92.0614 7.97101 92.5269 8.17756C93.006 8.40119 93.3844 8.80268 93.5854 9.30087C93.7639 9.74687 93.8741 10.2184 93.9122 10.6988C94.0156 11.8534 93.9845 13.0165 93.8195 14.1636C93.7539 14.6512 93.6361 15.13 93.4683 15.5914C93.3379 15.9479 93.0916 16.2476 92.7708 16.4401C92.4319 16.6402 92.0625 16.7803 91.6781 16.8545C91.1488 16.9674 90.609 17.021 90.0683 17.0143C89.6049 17.0143 89.1366 17.0143 88.6732 16.9743C88.0768 16.9337 87.4921 16.7849 86.9464 16.535C86.5618 16.3547 86.2462 16.0493 86.0489 15.6663C85.8298 15.2728 85.6982 14.8347 85.6635 14.3832C85.6294 13.7642 85.6196 13.1551 85.6001 12.7008ZM91.5025 12.2315C91.5025 11.9868 91.5025 11.7322 91.5025 11.4876C91.5009 11.1988 91.4698 10.911 91.4098 10.6289C91.3762 10.4273 91.2795 10.2424 91.1344 10.102C90.9892 9.9615 90.8034 9.87309 90.6049 9.85004H90.5464C90.1851 9.80515 89.8199 9.80515 89.4586 9.85004C89.2305 9.86321 89.0038 9.89493 88.7806 9.9449C88.6494 9.96735 88.5288 10.0324 88.4366 10.1304C88.3444 10.2284 88.2854 10.3541 88.2684 10.4891C88.21 10.752 88.1708 11.019 88.1513 11.2879C88.1172 11.867 88.1074 12.4561 88.1025 13.0402C88.0943 13.4392 88.1403 13.8374 88.2391 14.2235C88.2684 14.3601 88.3347 14.4855 88.4305 14.5853C88.5263 14.6851 88.6476 14.7552 88.7806 14.7876C88.9609 14.8382 89.1454 14.8716 89.3318 14.8875C89.7797 14.9268 90.2308 14.893 90.6683 14.7876C90.8463 14.7525 91.01 14.664 91.1386 14.5333C91.2672 14.4026 91.3548 14.2356 91.3903 14.0537C91.4706 13.7273 91.51 13.3918 91.5074 13.0552C91.5025 12.7806 91.5025 12.506 91.5025 12.2315Z" fill="white"/>
<path d="M28.0595 11.1979V7.74312H30.4692V16.9343H28.0644V13.3497C27.9473 13.3147 25.1376 13.3097 24.9425 13.3497V16.9093C24.8254 16.9443 22.7376 16.9543 22.5376 16.9093V7.75809C22.64 7.72315 24.7278 7.71815 24.9327 7.75809V11.2079L28.0595 11.1979Z" fill="white"/>
<path d="M55.5027 15.3469H52.2881L51.8589 16.9345H49.376C49.376 16.8196 51.932 8.03286 52.0491 7.74829H55.6979C56.6149 10.797 57.5255 13.8591 58.4295 16.9345H55.9905L55.5027 15.3469ZM55.0149 13.5595C54.6393 12.2315 54.2686 10.9285 53.9028 9.62547C53.7564 10.0598 53.6345 10.4942 53.5125 10.9285C53.3906 11.3629 53.2686 11.8022 53.1515 12.2415C53.0345 12.6809 52.8979 13.1052 52.8003 13.5595H55.0149Z" fill="white"/>
<path d="M37.8348 15.3469H34.6202L34.1909 16.9345H31.708C31.708 16.8196 34.2641 8.03286 34.3811 7.74829H38.0299C38.947 10.797 39.8575 13.8591 40.7616 16.9345H38.3226L37.8348 15.3469ZM37.347 13.5595C36.9714 12.2315 36.6006 10.9285 36.2348 9.62547C36.0884 10.0598 35.9665 10.4942 35.8445 10.9285C35.7226 11.3629 35.6007 11.8022 35.4836 12.2415C35.3665 12.6809 35.2299 13.1052 35.1324 13.5595H37.347Z" fill="white"/>
<path d="M71.6396 13.1301V14.8975C72.103 14.8975 72.5615 14.8975 73.0201 14.8975H75.8005V16.8944C75.6981 16.9294 69.5664 16.9444 69.2445 16.8944C69.2152 16.7846 69.2055 7.93793 69.2445 7.71826H75.7078C75.7371 7.8231 75.7469 9.49059 75.7078 9.71526H71.6591C71.6219 10.2671 71.6219 10.8209 71.6591 11.3728C71.9713 11.3728 72.2884 11.3728 72.6054 11.3728H75.4639V13.0752C75.2835 13.0752 75.103 13.0752 74.9225 13.0752H71.6493L71.6396 13.1301Z" fill="white"/>
<path d="M97.0731 7.89804V8.39728C96.8877 8.43223 96.7023 8.39728 96.5072 8.39728V10.0448C96.3121 10.0448 96.1365 10.0448 95.9316 10.0448C95.9316 9.49064 95.9316 8.94646 95.9316 8.3823H95.4146V7.88306L97.0731 7.89804Z" fill="white"/>
<path d="M7.8226 23.9638H7.76624C7.74417 23.9434 7.71954 23.9261 7.69299 23.9122L0.102534 19.4229C0.069076 19.4083 0.041133 19.3831 0.0228585 19.3511C0.00458393 19.3191 -0.00304664 19.2819 0.00110226 19.2451V10.1575C0.00110226 9.89376 0.00110226 9.63002 0.00110226 9.37201C0.00905847 9.28567 0.0339699 9.20183 0.0743589 9.12547C0.129777 9.02845 0.214768 8.95245 0.316455 8.90899C0.418141 8.86554 0.53098 8.857 0.637867 8.88466C0.745869 8.90995 0.842596 8.97092 0.91294 9.05805C0.983284 9.14518 1.02328 9.25357 1.02669 9.36628C1.02669 9.64149 1.02669 9.93963 1.02669 10.1919C1.01912 10.2654 1.02683 10.3397 1.04929 10.41C1.07176 10.4803 1.10849 10.545 1.1571 10.5999C1.20571 10.6548 1.26513 10.6987 1.33148 10.7287C1.39784 10.7588 1.46966 10.7743 1.5423 10.7743C1.61493 10.7743 1.68675 10.7588 1.75311 10.7287C1.81947 10.6987 1.87888 10.6548 1.92749 10.5999C1.9761 10.545 2.01283 10.4803 2.0353 10.41C2.05777 10.3397 2.06547 10.2654 2.05791 10.1919V8.41451C2.05791 8.17944 2.05791 7.9501 2.05791 7.71502C2.06232 7.57561 2.12025 7.44351 2.21927 7.34704C2.31829 7.25058 2.45052 7.19743 2.5876 7.199C2.72361 7.199 2.85404 7.25397 2.9502 7.35182C3.04637 7.44967 3.1004 7.58238 3.1004 7.72075C3.1004 7.81822 3.1004 7.90996 3.1004 8.00743C3.1004 8.23677 3.1004 8.46611 3.1004 8.69545C3.10855 8.76813 3.13196 8.83818 3.16905 8.90084C3.20613 8.96351 3.25603 9.01733 3.31535 9.05865C3.37467 9.09998 3.44203 9.12785 3.51286 9.14036C3.5837 9.15288 3.65635 9.14976 3.72589 9.1312C3.8502 9.10241 3.95972 9.02802 4.03353 8.92225C4.10733 8.81648 4.14025 8.68675 4.12598 8.55785V5.24961C4.12465 5.17131 4.14047 5.0937 4.17229 5.02241C4.20411 4.95111 4.25114 4.88792 4.30995 4.83741C4.36876 4.78691 4.43788 4.75036 4.5123 4.73042C4.58672 4.71047 4.66457 4.70764 4.74021 4.72212C4.86852 4.74713 4.98322 4.81951 5.06227 4.92534C5.14132 5.03117 5.17914 5.16299 5.16847 5.29547V7.45128C5.16602 7.52641 5.18049 7.60111 5.21077 7.66968C5.24105 7.73824 5.28633 7.79886 5.34316 7.84689C5.41742 7.91771 5.51109 7.96387 5.61174 7.97923C5.71239 7.99459 5.81526 7.97843 5.90667 7.9329C5.99985 7.89412 6.07905 7.8271 6.13349 7.74093C6.18793 7.65477 6.21498 7.55363 6.21096 7.45128V5.88029C6.20465 5.80678 6.21356 5.73274 6.23713 5.66295C6.2607 5.59316 6.2984 5.52918 6.34779 5.47514C6.39718 5.42111 6.45717 5.37822 6.52387 5.34924C6.59057 5.32027 6.66251 5.30586 6.73502 5.30694C6.80682 5.30752 6.87773 5.3231 6.94336 5.35272C7.00899 5.38234 7.06794 5.42536 7.11655 5.47912C7.16516 5.53288 7.2024 5.59623 7.22595 5.66524C7.2495 5.73425 7.25886 5.80745 7.25345 5.88029C7.25345 6.11537 7.25345 6.35618 7.25345 6.59125C7.24589 6.66475 7.25359 6.73905 7.27606 6.80933C7.29852 6.87961 7.33525 6.9443 7.38387 6.99921C7.43248 7.05412 7.49189 7.09802 7.55825 7.12807C7.6246 7.15813 7.69643 7.17365 7.76906 7.17365C7.84169 7.17365 7.91352 7.15813 7.97988 7.12807C8.04623 7.09802 8.10564 7.05412 8.15426 6.99921C8.20287 6.9443 8.2396 6.87961 8.26206 6.80933C8.28453 6.73905 8.29223 6.66475 8.28467 6.59125V4.56732C8.27923 4.49399 8.28875 4.42032 8.31264 4.35092C8.33653 4.28152 8.37427 4.2179 8.42349 4.16405C8.47271 4.11021 8.53234 4.0673 8.59864 4.03803C8.66494 4.00876 8.73646 3.99375 8.80873 3.99396C8.88103 3.99279 8.95276 4.0072 9.01921 4.03622C9.08565 4.06525 9.14531 4.10825 9.19427 4.16239C9.24323 4.21654 9.28038 4.28061 9.30328 4.35039C9.32618 4.42018 9.33432 4.4941 9.32716 4.56732V6.37911C9.32716 6.57405 9.32716 6.77472 9.32716 6.95246C9.3308 7.0489 9.36282 7.14201 9.41909 7.21971C9.47536 7.2974 9.55327 7.35611 9.64273 7.38821C9.72373 7.42065 9.81139 7.43205 9.89781 7.42139C9.98422 7.41072 10.0667 7.37831 10.1377 7.3271C10.2087 7.27589 10.2661 7.20748 10.3046 7.12806C10.3431 7.04864 10.3616 6.9607 10.3584 6.87219C10.3584 6.60272 10.3584 6.29884 10.3584 6.0523C10.3606 5.96643 10.3818 5.88218 10.4204 5.80576C10.4733 5.7003 10.56 5.6163 10.666 5.56758C10.7721 5.51886 10.8913 5.5083 11.0041 5.53765C11.1169 5.567 11.2165 5.63451 11.2865 5.72908C11.3566 5.82365 11.3929 5.93966 11.3896 6.05803C11.3896 6.79192 11.3896 7.52008 11.3896 8.25397C11.382 8.32747 11.3897 8.40177 11.4122 8.47205C11.4347 8.54233 11.4714 8.60702 11.52 8.66193C11.5686 8.71684 11.628 8.76074 11.6944 8.79079C11.7608 8.82085 11.8326 8.83638 11.9052 8.83638C11.9778 8.83638 12.0497 8.82085 12.116 8.79079C12.1824 8.76074 12.2418 8.71684 12.2904 8.66193C12.339 8.60702 12.3757 8.54233 12.3982 8.47205C12.4207 8.40177 12.4284 8.32747 12.4208 8.25397C12.4153 8.21404 12.4153 8.1735 12.4208 8.13357C12.4365 7.98455 12.5097 7.84797 12.6244 7.75389C12.7391 7.65981 12.8858 7.61592 13.0322 7.63188C13.1787 7.64785 13.3129 7.72236 13.4054 7.83903C13.4979 7.95569 13.541 8.10495 13.5253 8.25397V9.53255C13.5199 9.60587 13.5294 9.67955 13.5533 9.74895C13.5772 9.81835 13.6149 9.88197 13.6641 9.93581C13.7133 9.98966 13.773 10.0326 13.8393 10.0618C13.9056 10.0911 13.9771 10.1061 14.0494 10.1059C14.1209 10.1054 14.1916 10.0898 14.257 10.0601C14.3223 10.0304 14.3809 9.98731 14.4291 9.93345C14.4773 9.87959 14.514 9.81616 14.5369 9.74717C14.5598 9.67817 14.5684 9.6051 14.5622 9.53255C14.5622 9.46375 14.5622 9.40068 14.5622 9.33188C14.5584 9.25771 14.57 9.18358 14.596 9.11421C14.6221 9.04485 14.6621 8.98179 14.7135 8.92908C14.7649 8.87636 14.8266 8.83515 14.8945 8.80809C14.9625 8.78102 15.0353 8.7687 15.1082 8.77191C15.1811 8.77511 15.2525 8.79378 15.318 8.82672C15.3834 8.85965 15.4413 8.90612 15.488 8.96316C15.5348 9.02019 15.5693 9.08653 15.5894 9.15792C15.6094 9.22931 15.6147 9.30419 15.6046 9.37774C15.6046 10.8608 15.6046 12.3458 15.6046 13.8327C15.6046 15.6445 15.6046 17.4525 15.6046 19.2566C15.6077 19.2896 15.6007 19.3227 15.5846 19.3514C15.5684 19.3801 15.5439 19.4031 15.5145 19.4171L7.89022 23.8778L7.8226 23.9638ZM11.4516 11.8833H9.01723V13.8728H6.56597V11.8546H4.13162V17.7716H6.56597V15.891H9.01723V17.7716H11.4516V11.8833Z" fill="white"/>
<path d="M9.26546 1.75535V2.45073C9.27253 2.51949 9.26526 2.589 9.2441 2.65474C9.22294 2.72048 9.18837 2.78099 9.14263 2.83235C9.09689 2.88371 9.041 2.92477 8.97858 2.95288C8.91616 2.98099 8.8486 2.99551 8.78028 2.99551C8.71196 2.99551 8.6444 2.98099 8.58198 2.95288C8.51956 2.92477 8.46367 2.88371 8.41793 2.83235C8.37219 2.78099 8.33763 2.72048 8.31647 2.65474C8.29531 2.589 8.28803 2.51949 8.2951 2.45073V1.04405C8.28803 0.975282 8.29531 0.905776 8.31647 0.840035C8.33763 0.774294 8.37219 0.713784 8.41793 0.662425C8.46367 0.611066 8.51956 0.570004 8.58198 0.541897C8.6444 0.513791 8.71196 0.499268 8.78028 0.499268C8.8486 0.499268 8.91616 0.513791 8.97858 0.541897C9.041 0.570004 9.09689 0.611066 9.14263 0.662425C9.18837 0.713784 9.22294 0.774294 9.2441 0.840035C9.26526 0.905776 9.27253 0.975282 9.26546 1.04405V1.75535Z" fill="white"/>
<path d="M7.31429 3.22453V3.93595C7.32136 4.00631 7.31408 4.07742 7.29292 4.14468C7.27176 4.21194 7.2372 4.27384 7.19146 4.32639C7.14572 4.37893 7.08983 4.42094 7.02741 4.4497C6.96499 4.47845 6.89743 4.49331 6.82911 4.49331C6.76079 4.49331 6.69323 4.47845 6.63081 4.4497C6.56839 4.42094 6.5125 4.37893 6.46676 4.32639C6.42102 4.27384 6.38645 4.21194 6.36529 4.14468C6.34413 4.07742 6.33686 4.00631 6.34393 3.93595V2.50768C6.34177 2.4405 6.35288 2.37357 6.37656 2.31099C6.40024 2.2484 6.43601 2.19147 6.48167 2.14369C6.52733 2.09591 6.58192 2.05827 6.64211 2.03308C6.70231 2.00789 6.76683 1.99568 6.83173 1.9972C6.89599 1.99718 6.95961 2.01046 7.01885 2.03624C7.07809 2.06203 7.13176 2.0998 7.17671 2.14735C7.22166 2.1949 7.25698 2.25127 7.28061 2.31315C7.30423 2.37502 7.31568 2.44116 7.31429 2.50768V3.22453Z" fill="white"/>
<path d="M7.317 0.493908C7.31804 0.5931 7.29018 0.690358 7.23698 0.773276C7.18378 0.856195 7.10766 0.921014 7.01831 0.959465C6.92897 0.997915 6.83046 1.00825 6.73535 0.989162C6.64023 0.97007 6.55284 0.922413 6.4843 0.85227C6.41577 0.782127 6.36921 0.692679 6.35055 0.595337C6.3319 0.497995 6.342 0.397172 6.37957 0.30573C6.41713 0.214289 6.48047 0.136375 6.56149 0.0819274C6.6425 0.02748 6.73753 -0.00103239 6.83445 2.85678e-05C6.96243 2.85678e-05 7.08517 0.0520626 7.17567 0.144683C7.26616 0.237303 7.317 0.362923 7.317 0.493908Z" fill="white"/>
<path d="M10.7073 3.99661C10.7719 3.98933 10.8372 3.99675 10.899 4.01838C10.9608 4.04002 11.0176 4.07539 11.0659 4.1222C11.1142 4.16902 11.1528 4.22623 11.1792 4.29013C11.2056 4.35403 11.2193 4.4232 11.2193 4.49314C11.2193 4.56309 11.2056 4.63226 11.1792 4.69616C11.1528 4.76006 11.1142 4.81728 11.0659 4.86409C11.0176 4.9109 10.9608 4.94628 10.899 4.96791C10.8372 4.98955 10.7719 4.99696 10.7073 4.98968C10.5852 4.98691 10.4687 4.93342 10.3823 4.84039C10.2959 4.74735 10.2462 4.62197 10.2437 4.49043C10.2463 4.35941 10.2961 4.23462 10.3826 4.14245C10.4692 4.05029 10.5856 3.99799 10.7073 3.99661Z" fill="white"/>
<path d="M22.6567 22.546L23.0855 22.4992C23.1083 22.7352 23.1598 22.9195 23.2398 23.0521C23.3217 23.1828 23.438 23.2881 23.5885 23.368C23.739 23.448 23.9086 23.488 24.0973 23.488C24.3678 23.488 24.5774 23.4207 24.7261 23.2861C24.8766 23.1496 24.9519 22.9731 24.9519 22.7567C24.9519 22.6299 24.9242 22.5197 24.869 22.4261C24.8156 22.3305 24.7337 22.2525 24.6232 22.1921C24.5146 22.1316 24.2783 22.0468 23.9143 21.9376C23.5904 21.8401 23.3599 21.7416 23.2227 21.6421C23.0855 21.5427 22.9788 21.4169 22.9025 21.2648C22.8263 21.1107 22.7882 20.9371 22.7882 20.7441C22.7882 20.3969 22.8978 20.1132 23.1169 19.8928C23.336 19.6724 23.6314 19.5623 24.003 19.5623C24.2583 19.5623 24.4812 19.6139 24.6718 19.7173C24.8642 19.8207 25.0128 19.9689 25.1177 20.1619C25.2244 20.355 25.2815 20.5822 25.2891 20.8435L24.8518 20.8845C24.829 20.6056 24.747 20.3989 24.606 20.2643C24.4669 20.1298 24.2707 20.0625 24.0172 20.0625C23.76 20.0625 23.5637 20.122 23.4285 20.2409C23.2932 20.3579 23.2255 20.51 23.2255 20.6973C23.2255 20.8708 23.2751 21.0054 23.3741 21.101C23.4732 21.1965 23.6962 21.293 24.043 21.3906C24.3821 21.4861 24.6203 21.569 24.7575 21.6392C24.9671 21.7484 25.1253 21.8927 25.232 22.0721C25.3387 22.2496 25.392 22.4622 25.392 22.7099C25.392 22.9556 25.3358 23.1799 25.2234 23.3827C25.111 23.5835 24.9576 23.7366 24.7632 23.8419C24.5708 23.9473 24.3383 23.9999 24.0658 23.9999C23.6409 23.9999 23.3017 23.8692 23.0483 23.6079C22.7968 23.3466 22.6663 22.9926 22.6567 22.546Z" fill="white"/>
<path d="M26.185 23.9239V19.6354H26.6395V21.3964H28.4258V19.6354H28.8803V23.9239H28.4258V21.9025H26.6395V23.9239H26.185Z" fill="white"/>
<path d="M29.8362 23.9239V19.6354H32.32V20.1415H30.2907V21.4549H32.1914V21.9581H30.2907V23.4178H32.4V23.9239H29.8362Z" fill="white"/>
<path d="M33.213 23.9239V19.6354H35.6968V20.1415H33.6674V21.4549H35.5682V21.9581H33.6674V23.4178H35.7768V23.9239H33.213Z" fill="white"/>
<path d="M36.5784 23.9239V19.6354H38.1018C38.42 19.6354 38.6544 19.6754 38.8049 19.7553C38.9573 19.8353 39.0821 19.9689 39.1793 20.1561C39.2765 20.3414 39.3251 20.5569 39.3251 20.8026C39.3251 21.1263 39.2422 21.3886 39.0764 21.5895C38.9126 21.7903 38.6734 21.9181 38.359 21.9727C38.4867 22.0507 38.5839 22.1297 38.6506 22.2096C38.7858 22.3735 38.9049 22.5558 39.0078 22.7567L39.608 23.9239H39.0364L38.5791 23.0316C38.4019 22.6826 38.2676 22.4476 38.1761 22.3266C38.0865 22.2057 37.9989 22.1248 37.9131 22.0838C37.8293 22.0409 37.7112 22.0195 37.5587 22.0195H37.0328V23.9239H36.5784ZM37.0328 21.528H38.0103C38.2237 21.528 38.3857 21.5017 38.4962 21.4491C38.6067 21.3964 38.6944 21.3135 38.7592 21.2004C38.8239 21.0873 38.8563 20.9557 38.8563 20.8055C38.8563 20.589 38.7944 20.4194 38.6706 20.2965C38.5467 20.1717 38.3628 20.1093 38.1189 20.1093H37.0328V21.528Z" fill="white"/>
<path d="M43.3519 22.2418V21.7387L44.8068 21.7357V23.3271C44.5838 23.5494 44.3533 23.7171 44.1151 23.8302C43.8769 23.9414 43.6321 23.997 43.3805 23.997C43.0452 23.997 42.746 23.9112 42.4831 23.7396C42.2201 23.5679 42.0115 23.3173 41.8571 22.9878C41.7047 22.6582 41.6285 22.2623 41.6285 21.8001C41.6285 21.3321 41.7056 20.9245 41.86 20.5773C42.0143 20.2302 42.2163 19.9747 42.4659 19.8109C42.7155 19.6451 43.0109 19.5623 43.3519 19.5623C43.6035 19.5623 43.8236 19.61 44.0122 19.7056C44.2008 19.8012 44.3561 19.9367 44.4781 20.1122C44.6 20.2877 44.6915 20.5286 44.7525 20.8348L44.3437 20.9752C44.2885 20.7333 44.2189 20.553 44.1351 20.434C44.0513 20.3131 43.9407 20.2185 43.8035 20.1502C43.6663 20.082 43.512 20.0479 43.3405 20.0479C43.0909 20.0479 42.8756 20.1103 42.6946 20.2351C42.5154 20.3579 42.3706 20.55 42.2601 20.8114C42.1515 21.0727 42.0972 21.3915 42.0972 21.7679C42.0972 22.3413 42.2144 22.7713 42.4488 23.058C42.6831 23.3427 42.988 23.4851 43.3634 23.4851C43.5425 23.4851 43.7254 23.4412 43.9122 23.3534C44.1008 23.2657 44.2504 23.1613 44.3609 23.0404V22.2418H43.3519Z" fill="white"/>
<path d="M45.2711 23.9239L46.5915 19.6354H47.0803L48.4865 23.9239H47.9663L47.5662 22.625H46.1314L45.7541 23.9239H45.2711ZM46.2629 22.1628H47.4261L47.0689 20.9752C46.9584 20.6105 46.8774 20.3141 46.8259 20.0859C46.7821 20.3609 46.7202 20.6339 46.6401 20.905L46.2629 22.1628Z" fill="white"/>
<path d="M49.0108 23.9239V19.6354H49.694L50.5085 22.6718L50.6715 23.3066C50.7115 23.1487 50.7724 22.9195 50.8544 22.6192L51.6775 19.6354H52.2892V23.9239H51.8519V20.3345L50.8515 23.9239H50.4428L49.4482 20.2731V23.9239H49.0108Z" fill="white"/>
<path d="M53.288 23.9239V19.6354H53.7424V23.9239H53.288Z" fill="white"/>
<path d="M54.7012 23.9239V19.6354H55.1671L56.9734 23.0024V19.6354H57.4079V23.9239H56.942L55.1385 20.5539V23.9239H54.7012Z" fill="white"/>
<path d="M59.973 22.2418V21.7387L61.4278 21.7357V23.3271C61.2048 23.5494 60.9743 23.7171 60.7361 23.8302C60.4979 23.9414 60.2531 23.997 60.0015 23.997C59.6662 23.997 59.367 23.9112 59.1041 23.7396C58.8411 23.5679 58.6325 23.3173 58.4781 22.9878C58.3257 22.6582 58.2495 22.2623 58.2495 21.8001C58.2495 21.3321 58.3266 20.9245 58.481 20.5773C58.6353 20.2302 58.8373 19.9747 59.0869 19.8109C59.3365 19.6451 59.6319 19.5623 59.973 19.5623C60.2245 19.5623 60.4446 19.61 60.6332 19.7056C60.8218 19.8012 60.9771 19.9367 61.0991 20.1122C61.221 20.2877 61.3125 20.5286 61.3735 20.8348L60.9648 20.9752C60.9095 20.7333 60.84 20.553 60.7561 20.434C60.6723 20.3131 60.5618 20.2185 60.4246 20.1502C60.2874 20.082 60.133 20.0479 59.9615 20.0479C59.7119 20.0479 59.4966 20.1103 59.3156 20.2351C59.1365 20.3579 58.9916 20.55 58.8811 20.8114C58.7725 21.0727 58.7182 21.3915 58.7182 21.7679C58.7182 22.3413 58.8354 22.7713 59.0698 23.058C59.3041 23.3427 59.609 23.4851 59.9844 23.4851C60.1635 23.4851 60.3464 23.4412 60.5332 23.3534C60.7218 23.2657 60.8714 23.1613 60.9819 23.0404V22.2418H59.973Z" fill="white"/>
</svg>
