<svg width="101" height="16" viewBox="0 0 101 16" fill="none" xmlns="http://www.w3.org/2000/svg">
<path d="M0.615895 7.0669e-05H7.75617C8.16067 -0.002273 8.56334 0.0536896 8.95129 0.166169C11.666 0.983048 13.6098 2.72028 14.8548 5.30978C14.9186 5.44321 15.06 5.61747 14.9158 5.74545C14.7717 5.87343 14.6386 5.69916 14.5055 5.62292C13.7395 5.13731 12.8689 4.83341 11.9627 4.73524C9.64452 4.54464 7.32359 4.6944 5.00543 4.65083C4.72814 4.65083 4.63108 4.78426 4.61445 5.062C4.58117 5.53306 4.85846 5.5848 5.20785 5.5848C7.57593 5.5848 9.944 5.5848 12.3121 5.5848C12.6076 5.5788 12.9029 5.60161 13.1939 5.65287C13.7151 5.75832 14.1818 6.04079 14.5119 6.45064C14.8421 6.86049 15.0145 7.37149 14.999 7.89384C14.999 10.3753 14.999 12.8568 14.999 15.3383C14.999 15.9973 14.999 16 14.3419 16H7.98355C4.76696 16 1.3729 13.6556 0.158365 10.5977C0.108452 10.4697 -0.019103 10.3254 0.0945867 10.2002C0.208276 10.0749 0.371879 10.2301 0.502206 10.3064C1.3843 10.8813 2.41363 11.2003 3.472 11.2267C5.63766 11.2458 7.8033 11.2267 9.96896 11.2458C10.2462 11.2458 10.4487 11.175 10.4542 10.8183C10.4598 10.4616 10.249 10.3744 9.94678 10.3608C7.98355 10.2818 6.02032 10.3363 4.05986 10.3281C3.39116 10.3638 2.72098 10.3638 2.05227 10.3281C1.49931 10.2613 0.989068 10.002 0.614118 9.59733C0.239168 9.19267 0.0243478 8.66944 0.00862686 8.12257C-0.0107836 5.62836 0.00862686 3.13144 0.00862686 0.637236C0.00338943 0.47374 0.0643645 0.314871 0.178192 0.19544C0.292019 0.0760088 0.449415 0.00575464 0.615895 7.0669e-05Z" fill="white"/>
<path d="M30.0165 13.9968V6.21452C30.0165 6.12679 30.0165 6.03905 30.0165 5.95457C30.0165 5.76286 30.0165 5.5549 30.289 5.56465C30.5615 5.57439 30.532 5.76286 30.532 5.94157C30.532 6.16903 30.532 6.39973 30.532 6.59145C30.5418 6.60147 30.5535 6.60944 30.5665 6.61488C30.5794 6.62033 30.5934 6.62313 30.6075 6.62313C30.6216 6.62313 30.6355 6.62033 30.6485 6.61488C30.6614 6.60944 30.6732 6.60147 30.683 6.59145C30.6914 6.58182 30.6981 6.57083 30.7027 6.55895C31.0974 6.03256 31.6563 5.64937 32.2929 5.4685C32.9295 5.28763 33.6086 5.31913 34.2254 5.55815C35.3121 5.91233 36.0639 6.98462 36.1492 8.35585C36.2642 9.35844 35.9896 10.3668 35.381 11.1763C34.4191 12.3981 31.7697 12.476 30.7848 11.1243C30.7145 11.0217 30.6117 10.9451 30.4926 10.9066V14L30.0165 13.9968ZM33.142 5.90583C31.7697 5.90583 30.8438 6.72467 30.6108 8.1219C30.5588 8.52317 30.5588 8.92938 30.6108 9.33066C30.8143 11.4622 32.7513 11.9302 34.0382 11.4785C35.2694 11.0333 35.8472 9.72384 35.5813 8.05691C35.3646 6.69868 34.4716 5.91233 33.1518 5.90583H33.142ZM23.503 3.01714C24.3023 2.94496 25.1057 3.10174 25.8175 3.4688C26.1485 3.64868 26.4288 3.90759 26.6329 4.22198C26.837 4.53636 26.9585 4.89627 26.9863 5.26895C27.006 5.44442 27.0651 5.67513 26.7992 5.72387C26.5332 5.77261 26.4971 5.5484 26.4709 5.34369C26.4306 4.91619 26.2472 4.51425 25.9498 4.20167C25.6524 3.88908 25.2581 3.68376 24.8293 3.61828C23.9506 3.4211 23.0371 3.43223 22.1635 3.65077C21.9319 3.69137 21.711 3.77794 21.5141 3.90526C21.3172 4.03258 21.1483 4.19802 21.0177 4.39162C20.893 4.58211 20.8135 4.79811 20.7853 5.02339C20.757 5.24867 20.7808 5.47735 20.8547 5.69223C20.9287 5.90711 21.0509 6.1026 21.2122 6.26398C21.3735 6.42536 21.5697 6.54843 21.786 6.62394C22.4054 6.85156 23.0468 7.01596 23.7 7.11459C24.5463 7.25243 25.3708 7.49931 26.1524 7.84895C26.4864 8.01119 26.7658 8.26567 26.9569 8.58165C27.148 8.89762 27.2426 9.26159 27.2292 9.6296C27.2664 9.98389 27.1968 10.3411 27.0291 10.6563C26.8614 10.9715 26.6032 11.2304 26.287 11.4005C25.4896 11.8535 24.5841 12.0864 23.6647 12.075C22.7454 12.0636 21.846 11.8082 21.0604 11.3355C20.2659 10.8839 20 10.0683 20 9.15195C20 8.98623 20.0394 8.86925 20.2265 8.85626C20.4137 8.84326 20.5023 8.95373 20.522 9.13895C20.5311 9.34173 20.5541 9.54365 20.5909 9.74333C20.6575 10.0866 20.816 10.4058 21.0499 10.6676C21.2838 10.9294 21.5845 11.1242 21.9206 11.2315C23.1282 11.6866 24.4657 11.668 25.6599 11.1796C26.0322 11.0438 26.3396 10.7751 26.5219 10.4264C26.7041 10.0776 26.748 9.67405 26.6449 9.29492C26.6069 9.06212 26.5064 8.84369 26.3539 8.66249C26.2015 8.48128 26.0026 8.34396 25.7781 8.26487C25.0365 8.00159 24.2746 7.79838 23.4997 7.65724C22.8387 7.52347 22.1898 7.33655 21.5594 7.09835C21.3002 7.00285 21.0632 6.85637 20.8627 6.66775C20.6622 6.47914 20.5023 6.25228 20.3928 6.00087C20.2833 5.74946 20.2264 5.4787 20.2254 5.20492C20.2245 4.93114 20.2796 4.66001 20.3874 4.40787C20.4837 4.15495 20.6347 3.9259 20.8297 3.73675C21.0248 3.54761 21.2593 3.40292 21.5168 3.31283C22.1486 3.06597 22.829 2.96485 23.5063 3.01714H23.503ZM60.575 6.44522C60.8637 6.0785 61.2492 5.79793 61.689 5.6345C62.1287 5.47107 62.6056 5.43115 63.0668 5.51915C63.3579 5.55138 63.6373 5.65079 63.8825 5.80938C64.1276 5.96796 64.3318 6.1813 64.4785 6.43223C64.5836 6.60769 64.6623 6.63369 64.7707 6.43223C65.378 5.35344 67.2067 5.24621 68.1161 5.78235C68.4028 5.95589 68.6372 6.20241 68.7949 6.49619C68.9525 6.78996 69.0276 7.12023 69.0124 7.45253C69.0386 8.84326 69.0124 10.2372 69.0124 11.628C69.0124 11.8164 69.0124 12.0374 68.7563 12.0374C68.5002 12.0374 68.4969 11.8197 68.4969 11.6312C68.4969 10.6012 68.4969 9.57112 68.4969 8.54107C68.4969 8.32336 68.4969 8.10565 68.4969 7.89119C68.4772 6.70517 67.9913 6.0683 67.0622 5.99681C65.8147 5.90258 64.9381 6.51996 64.8035 7.67349C64.6558 8.94399 64.774 10.221 64.7444 11.498C64.7444 11.5695 64.7444 11.6442 64.7444 11.7157C64.7444 11.8847 64.7444 12.0406 64.5245 12.0406C64.3045 12.0406 64.2257 11.9139 64.2224 11.7157C64.2224 11.251 64.2224 10.7864 64.2224 10.325C64.2224 9.49963 64.2224 8.67104 64.2224 7.8457C64.2224 6.79941 63.8711 6.26326 63.0898 6.0553C62.6586 5.92421 62.1945 5.94857 61.7798 6.12406C61.3651 6.29955 61.0266 6.6148 60.8245 7.01386C60.6153 7.4152 60.5115 7.86215 60.5224 8.31361C60.5224 9.39673 60.5224 10.4799 60.5224 11.563C60.5224 11.7514 60.5815 12.0146 60.2861 12.0309C59.9906 12.0471 60.007 11.7709 60.007 11.563C60.007 9.74983 60.007 7.93668 60.007 6.12354C60.007 5.92208 59.9381 5.63613 60.2664 5.63613C60.5947 5.63613 60.5027 5.92532 60.529 6.12354C60.5421 6.22752 60.5553 6.30875 60.575 6.44522ZM75.2731 9.04472C74.4491 9.04472 73.6316 9.04472 72.7977 9.04472C72.5285 9.04472 72.4333 9.11945 72.4694 9.42164C72.5712 10.8026 73.3985 11.6085 74.7347 11.6637C75.8739 11.7124 76.8096 11.3973 77.3611 10.2827C77.3762 10.2441 77.399 10.2089 77.4283 10.1792C77.4575 10.1496 77.4926 10.1262 77.5313 10.1103C77.57 10.0945 77.6115 10.0867 77.6534 10.0873C77.6952 10.0879 77.7365 10.0969 77.7748 10.1138H77.7912C78.0177 10.2145 77.87 10.3867 77.8142 10.5167C77.6246 10.9742 77.3083 11.3694 76.9017 11.6569C76.4951 11.9443 76.0148 12.1123 75.516 12.1414C75.0568 12.1998 74.591 12.1834 74.1372 12.0926C73.6672 12.018 73.2291 11.8105 72.8756 11.4952C72.522 11.1798 72.2681 10.7701 72.1444 10.3152C71.711 8.88225 71.7603 7.49802 72.8338 6.34449C73.6972 5.41842 75.2501 5.19097 76.5141 5.75961C77.5745 6.23727 78.1556 7.28681 78.1556 8.6483C78.1556 8.94724 78.0341 9.02197 77.778 9.01872C76.954 9.01872 76.1365 9.01872 75.3026 9.01872L75.2731 9.04472ZM74.9218 8.51507H76.8916C77.5154 8.51507 77.6073 8.39159 77.4366 7.77097C77.1083 6.56545 76.0938 5.90908 74.7314 6.00656C74.1619 6.05205 73.6259 6.29111 73.2142 6.68317C72.8025 7.07524 72.5405 7.59618 72.4727 8.15764C72.4366 8.43059 72.5154 8.52482 72.778 8.51832C73.4904 8.51832 74.2061 8.51832 74.9185 8.51832L74.9218 8.51507ZM94.9844 6.77666C94.9844 6.45172 94.9844 6.17553 94.9844 5.90908C94.9844 5.72387 94.9581 5.49966 95.2306 5.49966C95.5031 5.49966 95.4998 5.70437 95.4998 5.89933C95.4998 6.66618 95.4998 7.43628 95.4998 8.20313C95.4998 9.33391 95.4998 10.4777 95.4998 11.5922C95.4998 11.7807 95.5655 12.0471 95.2635 12.0536C94.9614 12.0601 94.991 11.7904 94.9844 11.5792C94.9778 11.368 94.9844 11.1536 94.9844 10.9293C94.7973 10.9521 94.7513 11.0886 94.6561 11.1796C94.202 11.6875 93.5905 12.032 92.9173 12.159C92.2442 12.286 91.5475 12.1884 90.9364 11.8814C90.6087 11.7173 90.3185 11.4884 90.0836 11.209C89.8487 10.9296 89.6742 10.6055 89.5707 10.2567C89.3702 9.71849 89.2882 9.14409 89.3301 8.57196C89.372 7.99982 89.5369 7.44313 89.8136 6.93913C90.0528 6.53726 90.3839 6.1965 90.7803 5.94423C91.1766 5.69196 91.6273 5.53519 92.0959 5.48653C92.5646 5.43787 93.0383 5.49866 93.4789 5.66403C93.9196 5.8294 94.3149 6.09473 94.6331 6.43873C94.7251 6.53946 94.8301 6.63369 94.9877 6.78966L94.9844 6.77666ZM92.358 6.00331C91.9806 5.97182 91.6018 6.04331 91.2626 6.21002C90.9234 6.37673 90.6368 6.63227 90.4341 6.94888C90.0839 7.45081 89.8774 8.03713 89.8363 8.64575C89.7953 9.25438 89.9213 9.86267 90.201 10.4062C90.34 10.7338 90.5626 11.0201 90.8468 11.2371C91.1311 11.4541 91.4674 11.5943 91.8228 11.6442C93.507 11.9302 94.8728 10.8319 94.9581 9.06096C95.0435 7.29006 94.0816 5.97407 92.3744 6.00006L92.358 6.00331ZM53.8743 12.1771C51.9505 12.1771 50.6996 10.8774 50.6832 8.83676C50.6668 6.79615 51.9964 5.46717 53.9203 5.46717C55.8441 5.46717 57.072 6.82865 57.0753 8.8595C57.0785 10.8904 55.8441 12.1804 53.8907 12.1804L53.8743 12.1771ZM53.9104 6.00331C52.3149 6.00331 51.2085 7.13734 51.2085 8.78477C51.2085 10.5167 52.2689 11.7092 53.8349 11.7092C55.4567 11.7092 56.5565 10.5882 56.5598 8.90175C56.5598 7.1081 55.5585 6.00331 53.917 6.00006L53.9104 6.00331ZM81.6159 6.51996C82.4432 5.50941 83.5004 5.32744 84.6691 5.58414C85.8379 5.84084 86.4026 6.62069 86.4091 7.80996C86.4157 8.99923 86.4091 10.2762 86.4091 11.5077C86.4102 11.624 86.4025 11.7403 86.3861 11.8554C86.3833 11.8858 86.3744 11.9153 86.3599 11.9422C86.3454 11.9691 86.3257 11.9929 86.3019 12.0123C86.2781 12.0316 86.2507 12.0461 86.2212 12.0548C86.1917 12.0636 86.1607 12.0665 86.1301 12.0634H86.1104C86.0821 12.063 86.0541 12.057 86.0282 12.0458C86.0022 12.0346 85.9788 12.0183 85.9593 11.9981C85.9397 11.9778 85.9244 11.9539 85.9143 11.9277C85.9042 11.9016 85.8994 11.8737 85.9003 11.8457C85.9003 11.7287 85.9003 11.615 85.9003 11.498C85.9003 10.3802 85.9003 9.26351 85.9003 8.14789C85.9003 6.52321 84.6954 5.61339 83.1721 6.10404C82.1248 6.42898 81.5732 7.27706 81.5601 8.57031C81.5601 9.51263 81.5601 10.4549 81.5601 11.3973C81.5601 11.5142 81.5601 11.628 81.5601 11.7449C81.5601 11.9204 81.5141 12.0699 81.3106 12.0699C81.107 12.0699 81.0479 11.9399 81.0447 11.7449C81.0447 11.628 81.0447 11.5142 81.0447 11.3973V6.30875C81.0447 6.20802 81.0447 6.10729 81.0447 6.00331C81.0447 5.81485 81.0841 5.64588 81.3172 5.65238C81.5502 5.65888 81.5535 5.8116 81.5667 5.97732C81.5513 6.15671 81.5748 6.33729 81.6356 6.50696L81.6159 6.51996ZM43.1125 6.43873C44.0252 5.13898 46.5531 5.19747 47.3805 6.16903C47.7108 6.51837 47.9021 6.97434 47.9189 7.45253C47.9189 8.84326 47.9189 10.234 47.9189 11.628C47.9189 11.8034 47.9419 11.9919 47.6891 12.0016C47.4363 12.0114 47.3936 11.8392 47.3936 11.6312C47.3936 10.3835 47.3542 9.1357 47.3936 7.89119C47.4428 6.59145 46.4809 5.85059 45.2925 5.94157C43.8611 6.0618 43.106 6.93913 43.0994 8.42734C43.0994 9.45739 43.0994 10.4842 43.0994 11.5142C43.0994 11.7059 43.1552 11.9659 42.8597 11.9789C42.5643 11.9919 42.584 11.7124 42.584 11.5077C42.584 9.65235 42.584 7.79696 42.584 5.94157C42.584 5.76286 42.5544 5.57114 42.8138 5.57439C43.0731 5.57764 43.1027 5.71412 43.106 5.91558C43.1092 6.11704 43.106 6.26001 43.106 6.42898L43.1125 6.43873ZM98.5005 7.615V3.86523C98.5005 3.73525 98.5005 3.60528 98.5005 3.4753C98.493 3.41295 98.5105 3.35018 98.5491 3.30039C98.5878 3.2506 98.6446 3.21775 98.7074 3.20885H98.7632C98.7934 3.20799 98.8234 3.21302 98.8516 3.22366C98.8799 3.23429 98.9057 3.25033 98.9276 3.27085C98.9496 3.29137 98.9672 3.31597 98.9796 3.34325C98.9919 3.37052 98.9987 3.39994 98.9996 3.42981C99.0002 3.43955 99.0002 3.44932 98.9996 3.45906C98.9996 3.57603 98.9996 3.68976 98.9996 3.80674C98.9996 6.34558 98.9996 8.88333 98.9996 11.42C98.9996 11.4622 98.9996 11.5077 98.9996 11.55C98.9799 11.7547 99.0554 12.0374 98.7435 12.0504C98.4316 12.0634 98.4874 11.7677 98.4874 11.5695C98.4874 10.2502 98.4874 8.93099 98.4874 7.6085L98.5005 7.615ZM39.6883 8.71978C39.6883 9.63285 39.6883 10.5459 39.6883 11.459C39.6883 11.654 39.7244 11.9042 39.4224 11.8977C39.1204 11.8912 39.1729 11.6345 39.1729 11.4427C39.1729 9.60144 39.1729 7.76013 39.1729 5.91883C39.1729 5.72387 39.1368 5.47366 39.4388 5.48016C39.7409 5.48666 39.6883 5.74336 39.6883 5.93507C39.6916 6.86439 39.6883 7.79046 39.6883 8.71978Z" fill="white"/>
</svg>
