<svg width="90" height="55" viewBox="0 0 90 55" fill="none" xmlns="http://www.w3.org/2000/svg">
<path d="M3.8223 16.8515C4.24191 14.7804 6.44481 14.2626 7.49381 14.2626H71.4828C73.9305 10.8109 79.1405 3.49307 80.3993 1.83621C81.9728 -0.234861 85.1198 -0.752629 88.2668 1.31844C90.7844 2.9753 90.0152 5.46059 89.3158 6.49612L84.0708 14.2626C87.8472 14.2626 88.4417 16.3337 88.2668 17.3693C87.043 24.7906 84.4904 40.2546 84.0708 42.7399C83.6512 45.2252 81.0986 45.8465 79.8748 45.8465H68.3358C68.6854 46.3643 69.4897 47.3998 69.9093 47.3998C70.4338 47.3998 70.9583 46.882 73.5808 47.3998C75.6788 47.814 75.504 49.9886 75.1543 51.0242C74.6298 51.8871 73.371 53.8201 72.5318 54.6485C71.6926 55.477 69.7344 54.6485 68.8603 54.1308L52.0762 45.8465H2.7733C-0.163907 45.8465 -0.198873 43.4302 0.150794 42.2221C1.1998 34.6282 3.4027 18.9226 3.8223 16.8515Z" fill="white"/>
<path d="M83.6372 1.84232C84.4848 1.79261 85.3114 2.04943 86.0499 2.44707C86.6835 2.8033 87.2667 3.29621 87.5814 3.95896C87.7828 4.35246 87.8164 4.8868 87.5605 5.26373C87.2667 5.72351 86.9394 6.15844 86.6625 6.63064C86.5492 6.27442 86.4485 5.93062 86.2303 5.61582C85.7352 4.88266 84.9379 4.37317 84.1239 4.0418C83.2344 3.66901 82.2063 3.58202 81.2748 3.85954C81.5979 3.41219 81.8916 2.93999 82.2189 2.49264C82.5504 2.037 83.0917 1.86303 83.6372 1.84232Z" fill="#5C5C5C"/>
<path d="M82.5921 3.98832C83.6746 4.06287 84.7362 4.52265 85.5167 5.26824C85.9363 5.67831 86.2887 6.20022 86.3055 6.80083C86.2971 7.26476 85.9069 7.69968 85.6635 8.07247C84.1488 10.3092 82.6298 12.546 81.1235 14.791C80.9095 13.6768 80.0702 12.9395 79.1052 12.43C78.0771 11.8957 76.8981 11.6803 75.7651 12.0075C77.2631 9.81632 78.7401 7.61684 80.2255 5.4215C80.4899 5.05285 80.729 4.5765 81.1025 4.30726C81.5263 4.03388 82.0969 3.95518 82.5921 3.98832Z" fill="#5C5C5C"/>
<path d="M76.6758 12.1479C77.5696 12.0982 78.4549 12.3881 79.2144 12.8396C79.7767 13.1751 80.2844 13.6183 80.5823 14.2065C80.8257 14.687 80.8509 15.2586 80.5026 15.6977C78.1696 15.6853 75.8366 15.6977 73.5078 15.6894C73.5666 15.4367 73.6127 15.1924 73.7638 14.977C74.1414 14.4095 74.5358 13.8586 74.9051 13.287C75.0771 13.026 75.2617 12.7236 75.5093 12.5248C75.8408 12.268 76.2604 12.1686 76.6758 12.1479Z" fill="#5C5C5C"/>
<path d="M17.1473 17.375C17.5081 17.3419 17.8732 17.3626 18.234 17.3626C20.7852 17.375 23.3406 17.3585 25.8918 17.3709C25.7239 18.7295 25.4889 20.084 25.3001 21.4426C23.949 21.4467 22.5979 21.4467 21.2468 21.4426C21.1209 22.2379 20.9614 23.0332 20.8817 23.8326C22.0734 23.8326 23.2651 23.8326 24.4609 23.8326C24.3224 25.1954 24.0203 26.5416 23.8441 27.9043C22.6315 27.9168 21.4188 27.9085 20.2062 27.9085C20.0803 28.7783 19.9082 29.644 19.8243 30.5222C21.1586 30.5263 22.493 30.5263 23.8273 30.5222C23.6469 31.8808 23.4245 33.2311 23.2189 34.5856C21.4692 34.5939 19.7236 34.5856 17.9739 34.5939C17.2186 32.3447 16.4675 30.0955 15.729 27.8422C16.3416 27.4943 16.9081 27.1256 17.3738 26.5913C18.1795 25.6552 18.7124 24.4829 18.9012 23.2734C19.0858 22.1136 19.132 20.9207 18.7334 19.8023C18.427 18.949 17.8312 18.2573 17.0843 17.7437C17.1011 17.6153 17.1221 17.4951 17.1473 17.375Z" fill="#5C5C5C"/>
<path d="M62.871 17.363C64.4109 17.3547 65.9551 17.3589 67.495 17.3589C67.2307 19.2601 66.9076 21.1531 66.6096 23.0502C66.5341 23.5887 66.4082 24.1106 66.3873 24.6532C66.7439 23.8786 67.1551 23.1289 67.537 22.3626C68.393 20.6933 69.2364 19.0199 70.1007 17.3547C71.7624 17.363 73.4282 17.3465 75.0898 17.3672C73.4072 20.1383 71.7204 22.9011 70.0378 25.668C70.2266 26.3639 70.4574 27.0474 70.6756 27.7349C71.3973 30.0173 72.0938 32.3037 72.8323 34.5778C71.1329 34.5902 69.4336 34.5819 67.73 34.5819C67.3607 32.8712 67.0125 31.1605 66.6306 29.4498C66.4208 28.522 66.2614 27.5858 66.0264 26.6663C65.9886 26.9894 65.9551 27.3124 65.9005 27.6314C65.5145 29.9469 65.1872 32.2664 64.797 34.5819C63.2151 34.5778 61.6332 34.5861 60.0513 34.5778C60.4919 31.9806 60.8569 29.3752 61.2891 26.7781C61.7507 23.7336 62.2542 20.6974 62.7115 17.653C62.7535 17.5701 62.7283 17.3216 62.871 17.363Z" fill="#5C5C5C"/>
<path d="M76.0924 17.3714C76.3904 17.3424 76.6967 17.359 76.9946 17.359C79.6171 17.3631 82.2438 17.3548 84.8663 17.3631C84.6271 18.7217 84.4593 20.0886 84.2285 21.4473C82.8816 21.439 81.5347 21.4431 80.1878 21.4431C80.0577 22.2384 79.9276 23.0296 79.7891 23.8249C80.9976 23.8207 82.2018 23.8249 83.4103 23.8207C83.2509 25.1876 82.9571 26.5338 82.7935 27.9007C81.5766 27.9173 80.3598 27.9049 79.1471 27.909C79.0045 28.7789 78.8786 29.6529 78.7275 30.5186C80.0787 30.5144 81.4256 30.5144 82.7767 30.5186C82.5669 31.873 82.3739 33.2317 82.1599 34.5862C79.2269 34.5944 76.2939 34.5944 73.3608 34.5862C73.8098 31.9269 74.1875 29.2552 74.628 26.596C75.035 23.887 75.484 21.1863 75.8952 18.4815C75.9624 18.1087 75.9833 17.7276 76.0924 17.3714Z" fill="#5C5C5C"/>
<path d="M17.2059 25.5769C18.02 24.384 18.2759 23.0129 18.2801 21.5963C18.2591 20.7182 18.0787 19.8732 17.529 19.1566C16.9374 18.3779 16.0814 17.9512 15.1457 17.6986C13.4043 17.2636 11.7763 17.3796 10.0014 17.363C9.15377 17.3713 8.30198 17.3465 7.45019 17.3755C6.55224 23.1082 5.6501 28.8451 4.75635 34.5819C6.33405 34.5778 7.91595 34.5944 9.49365 34.5737C9.80835 32.1754 10.3203 29.7812 10.5301 27.3539C10.7441 28.1368 10.8825 28.9403 11.0546 29.7356C11.3777 31.3511 11.7133 32.9707 12.0574 34.5819C13.761 34.5778 15.4646 34.5819 17.1682 34.5778C16.3961 32.1836 15.5821 29.8061 14.7974 27.416C15.7793 27.0598 16.6437 26.4633 17.2059 25.5769ZM13.4883 23.1413C13.333 23.978 12.8966 24.7485 12.1078 25.142C11.7343 25.3367 11.3651 25.3118 10.9581 25.3201C11.1049 24.1727 11.3105 23.0336 11.4742 21.8904C11.5203 21.617 11.5455 21.3229 11.6462 21.062C12.1665 21.0827 12.7498 21.149 13.1358 21.5342C13.5554 21.936 13.5806 22.6029 13.4883 23.1413Z" fill="#5C5C5C"/>
<path d="M47.1401 27.4203C48.08 27.0724 48.9067 26.4966 49.4731 25.6682C50.3627 24.4007 50.6438 22.9054 50.5977 21.3894C50.5599 20.5816 50.3501 19.7905 49.8508 19.1402C49.2801 18.378 48.336 17.9182 47.4255 17.6863C46.2128 17.3963 45.0002 17.359 43.7624 17.3673C42.4238 17.3756 41.0853 17.3508 39.7468 17.3797C39.7174 17.649 39.6922 17.9182 39.6503 18.1875C38.7691 23.651 37.9467 29.1269 37.0571 34.5904C38.639 34.5987 40.2209 34.5904 41.8028 34.5945C42.0798 32.859 42.3567 31.1234 42.6252 29.3879C42.7301 28.721 42.7427 28.0458 42.8938 27.3872C43.3763 29.7938 43.8714 32.1962 44.375 34.5945C46.0869 34.5863 47.7989 34.5987 49.5067 34.5863C49.02 33.1199 48.5248 31.6578 48.0465 30.1914C47.7402 29.2677 47.4171 28.3523 47.1401 27.4203ZM45.8352 22.8474C45.7638 23.7711 45.2855 24.7486 44.3918 25.1463C44.0309 25.3285 43.6658 25.3078 43.2714 25.3161C43.4938 23.9078 43.7036 22.4912 43.9302 21.0828C44.4337 21.1118 44.8911 21.1077 45.3107 21.4225C45.7806 21.758 45.8687 22.3089 45.8352 22.8474Z" fill="#5C5C5C"/>
<path d="M59.6782 32.1503C59.4558 27.9501 59.1831 23.6754 58.9523 19.4918C58.8768 18.7835 58.9145 18.0669 58.818 17.3586C56.8962 17.3794 54.9703 17.3379 53.0485 17.3794C52.6079 18.4605 52.1799 19.5457 51.7477 20.6309C51.5673 21.1031 51.3239 21.4925 51.3281 22.0103C51.3113 23.634 50.8162 25.2246 49.7672 26.4879C49.5322 26.7737 49.1798 27.0016 49.0581 27.3454C48.8693 27.8176 48.672 28.2898 48.4874 28.7661C48.4161 28.9318 48.4329 29.0519 48.4916 29.2176C49.0958 31.0029 49.6875 32.7964 50.2791 34.5858C50.5393 34.5858 50.7952 34.5817 51.0554 34.5776C51.282 33.8403 51.5379 33.1154 51.7771 32.3864C52.8219 32.3822 53.8709 32.3864 54.9157 32.3864C54.9073 33.1195 54.9115 33.8485 54.9115 34.5776C56.5522 34.5776 58.197 34.5983 59.8376 34.5651C59.7327 33.7615 59.7621 32.9538 59.6782 32.1503ZM55.1633 22.6482C55.0626 23.576 55.1213 24.5287 55.0374 25.4524C54.9661 26.5376 55.05 27.6436 54.9199 28.7247C54.2737 28.7081 53.6317 28.7164 52.9855 28.7164C53.7366 26.3015 54.5842 23.895 55.1885 21.4387C55.2094 21.8404 55.201 22.2422 55.1633 22.6482Z" fill="#5C5C5C"/>
<path d="M37.263 21.8862C36.9651 20.6518 36.2854 19.5251 35.2657 18.7464C33.8769 17.6943 32.1901 17.3671 30.4739 17.3671C29.2025 17.3754 27.9185 17.3422 26.6471 17.3836C26.5464 17.773 26.5129 18.1831 26.4457 18.5807C25.6107 23.9117 24.7631 29.2509 23.9365 34.5819C25.1282 34.5902 26.3241 34.5819 27.5199 34.586C28.25 34.586 29.0053 34.5984 29.7312 34.4949C31.5565 34.2836 33.3566 33.4842 34.6196 32.1504C35.9203 30.7835 36.7427 28.9403 37.1204 27.1177C37.4938 25.3946 37.7078 23.6176 37.263 21.8862ZM32.5006 25.9745C32.2908 27.2958 31.9467 28.7124 30.9816 29.7066C30.5117 30.1829 29.9956 30.3983 29.3242 30.4439C29.3871 29.7645 29.5172 29.0977 29.6179 28.4225C29.9662 26.3224 30.2893 24.2223 30.6082 22.1181C30.6375 21.9607 30.6585 21.8075 30.7299 21.6625C31.46 21.6625 32.1062 22.0809 32.3537 22.7643C32.723 23.7501 32.6474 24.9472 32.5006 25.9745Z" fill="#5C5C5C"/>
<path d="M61.4655 36.4583C62.397 36.4418 63.3285 36.4542 64.26 36.4542C63.0222 38.3057 61.7508 40.1407 60.5255 42.0046C59.8542 41.6111 59.3045 40.9318 58.5576 40.7454C59.3381 39.5566 60.1479 38.3886 60.941 37.2081C61.1088 36.9512 61.2766 36.6944 61.4655 36.4583Z" fill="#5C5C5C"/>
<path d="M6.09505 37.3319C6.32583 37.4728 6.3552 37.7834 6.32163 38.0237C6.29226 38.2266 6.27547 38.4669 6.17897 38.6491C6.04889 38.7154 5.85587 38.6864 5.70901 38.7071C5.75097 38.4337 5.79713 38.1645 5.84748 37.8952C5.65446 37.6964 5.50341 37.5929 5.21388 37.7006C4.86981 37.8621 4.86981 38.3799 4.79428 38.6988C4.6642 39.6805 4.38727 40.6498 4.34111 41.6397C4.6684 41.764 4.93275 41.8344 5.15514 41.503C5.35235 41.0267 5.38592 40.4716 5.46145 39.9663C5.37333 39.9373 5.28102 39.9042 5.1929 39.8752C5.23067 39.7385 5.27263 39.6059 5.31039 39.4693C5.56215 39.4693 5.81391 39.4734 6.06148 39.4734C5.91881 40.1444 5.83489 40.832 5.67125 41.4989C5.57894 41.9007 5.25165 42.1699 4.83624 42.1823C4.57189 42.1906 4.18166 42.2279 3.98445 42.0167C3.74947 41.7888 3.8292 41.445 3.86277 41.1634C4.04319 40.1734 4.22362 39.1834 4.39986 38.1893C4.46699 37.858 4.55091 37.5473 4.86981 37.3609C5.24325 37.1704 5.7258 37.1455 6.09505 37.3319Z" fill="#5C5C5C"/>
<path d="M15.8718 37.2993C16.0396 37.2827 16.2075 37.2827 16.3753 37.2786C16.4592 38.5709 16.5767 39.8632 16.6439 41.1597C17.2187 39.8798 17.7558 38.5792 18.3055 37.2868C18.4817 37.2868 18.6579 37.2827 18.8342 37.2827C18.5363 38.8981 18.2635 40.5177 17.9488 42.1331C17.8062 42.1331 17.6635 42.1331 17.5208 42.1373C17.6006 41.5284 17.7348 40.9278 17.8355 40.3189C17.9195 39.7597 18.0831 39.2378 18.0747 38.6662C17.6635 39.826 17.1138 40.936 16.669 42.0876C16.5515 42.0834 16.4341 42.0793 16.3166 42.0751C16.2956 41.0603 16.1361 40.0538 16.1487 39.039L15.9935 39.0141C15.8592 40.0413 15.6368 41.0562 15.469 42.0793C15.3137 42.0834 15.1543 42.0875 14.999 42.0917C15.2844 40.5011 15.5445 38.8816 15.8718 37.2993Z" fill="#5C5C5C"/>
<path d="M23.0304 37.3029C23.1856 37.2864 23.3451 37.2864 23.5003 37.2822C23.2905 38.6201 23.0178 39.9498 22.7954 41.2835C22.7493 41.5735 22.6863 41.8593 22.615 42.141C22.4639 42.1368 22.3129 42.1368 22.166 42.1327C22.3758 40.8113 22.6444 39.4983 22.8542 38.1769C22.9087 37.887 22.9381 37.5846 23.0304 37.3029Z" fill="#5C5C5C"/>
<path d="M29.6976 37.3076C29.8402 37.2868 29.9871 37.2827 30.134 37.2786C29.836 38.8816 29.5507 40.4887 29.2654 42.0958C29.0892 42.0917 28.9129 42.0917 28.7367 42.0876C28.6612 40.9485 28.5227 39.8094 28.4807 38.6703C28.2038 39.8177 28.1031 41.0065 27.7968 42.1497C27.6709 42.1455 27.5492 42.1414 27.4233 42.1373C27.4569 41.4787 27.6122 40.8449 27.7171 40.1946C27.8849 39.2254 28.0779 38.2602 28.2374 37.291C28.4094 37.291 28.5814 37.291 28.7493 37.291C28.8584 38.4715 28.9885 39.6437 28.9843 40.8325C29.2234 40.3023 29.2444 39.6768 29.3661 39.097C29.4878 38.5005 29.5507 37.8957 29.6976 37.3076Z" fill="#5C5C5C"/>
<path d="M35.1142 37.1997C35.4205 37.208 35.752 37.2826 35.8863 37.5932C35.9702 37.9412 35.8527 38.3595 35.7856 38.7075C35.6345 38.7033 35.4835 38.695 35.3324 38.6909C35.3576 38.4051 35.4205 38.0986 35.3702 37.8169C35.2359 37.6263 34.9758 37.6305 34.7785 37.7092C34.531 37.8417 34.4974 38.1441 34.4429 38.3844C34.2792 39.3868 34.0736 40.3809 33.9268 41.3874C33.9058 41.8638 34.6107 41.8472 34.766 41.4703C34.9422 40.9939 34.9632 40.4596 35.0807 39.9667C34.9925 39.9418 34.9002 39.917 34.8121 39.8921C34.8331 39.7513 34.8583 39.6104 34.8792 39.4696C35.131 39.4696 35.387 39.4696 35.6387 39.4696C35.5716 40.0122 35.4583 40.5466 35.366 41.0851C35.2988 41.4206 35.2485 41.7395 34.9716 41.9756C34.6988 42.2241 34.296 42.1952 33.9561 42.1744C33.7128 42.162 33.4442 41.9632 33.4526 41.7064C33.4274 41.3874 33.482 41.0561 33.5365 40.7413C33.696 39.917 33.8428 39.0885 33.9855 38.2642C34.04 37.9784 34.0904 37.6843 34.317 37.4731C34.5058 37.2701 34.8457 37.2121 35.1142 37.1997Z" fill="#5C5C5C"/>
<path d="M50.0233 37.3405C50.4933 37.4482 50.8751 37.7671 51.1185 38.1689C51.1017 38.3056 51.0262 38.434 50.98 38.5624C50.1492 38.3553 49.3352 38.0819 48.5085 37.8583C48.3113 37.8003 48.1183 37.7174 47.9253 37.6346C48.5841 37.3612 49.31 37.179 50.0233 37.3405Z" fill="#5C5C5C"/>
<path d="M11.3779 37.2991C10.866 38.8814 10.2576 40.5134 9.80859 42.133C9.94706 42.1413 10.0562 42.1454 10.1988 42.1537L10.6226 41.0394C10.9583 41.0394 11.2898 41.0394 11.6255 41.0394L11.5499 42.0874C11.7262 42.0916 11.8982 42.0957 12.0744 42.0998C12.0702 41.5489 12.2045 38.3471 12.2255 37.2908C11.9486 37.2867 11.6464 37.2825 11.3779 37.2991ZM11.6297 40.588C11.3401 40.588 11.0548 40.588 10.7653 40.588C11.0716 39.6311 11.7513 37.6222 11.7849 37.5186L11.6297 40.588Z" fill="#5C5C5C"/>
<path d="M47.4888 37.8416C48.0468 37.9658 48.5839 38.1605 49.1336 38.3138C52.117 39.2043 55.1003 40.0949 58.0837 40.9937C58.4362 41.1056 58.86 41.1801 59.1537 41.4038C62.5231 43.9429 65.8925 46.4862 69.2661 49.017C69.5053 49.1827 69.5598 49.4188 69.6605 49.6715C70.0214 50.6656 70.4032 51.6514 70.7641 52.6414C70.4284 52.4964 70.0969 52.3307 69.7738 52.1568C62.7791 48.5407 55.7675 44.9287 48.7811 41.3085C48.3532 40.1529 47.9042 39.0014 47.4888 37.8416Z" fill="#5C5C5C"/>
<path d="M72.1951 49.0293C72.6357 49.1743 72.8833 49.4932 73.1728 49.8246C72.5308 50.8146 71.8594 51.7921 71.1881 52.7656C70.7643 51.6016 70.3111 50.4501 69.8789 49.2903C70.6132 48.9796 71.4063 48.7684 72.1951 49.0293Z" fill="#5C5C5C"/>
</svg>
