<svg width="100" height="32" viewBox="0 0 100 32" fill="none" xmlns="http://www.w3.org/2000/svg">
<g clip-path="url(#clip0_1:229)">
<path d="M39.1368 18.1018C39.1368 19.0734 39.8838 19.8127 40.7969 19.8127C41.0044 19.8127 41.2119 19.7704 41.6892 19.5803L42.3947 21.3335C41.7099 21.6081 41.2741 21.6925 40.7969 21.6925C38.8463 21.6925 37.2484 20.0873 37.2484 18.0807V6.40015H39.1368V9.33612H42.3947V11.2371H39.1368V18.1018Z" fill="white"/>
<path d="M43.6395 18.1016V12.2508C43.6395 10.2442 45.2374 8.63892 47.188 8.63892C49.1386 8.63892 50.7364 10.2442 50.7364 12.2508V18.1016C50.7364 20.1082 49.1386 21.7135 47.188 21.7135C45.2374 21.7135 43.6395 20.1082 43.6395 18.1016ZM47.188 10.5188C46.2957 10.5188 45.5279 11.3003 45.5279 12.2297V18.0805C45.5279 19.0099 46.2957 19.7914 47.188 19.7914C48.101 19.7914 48.8481 19.031 48.8481 18.0805V12.2508C48.8688 11.2792 48.1218 10.5188 47.188 10.5188Z" fill="white"/>
<path d="M61.444 11.8496C61.444 11.1315 60.8629 10.5189 60.1366 10.5189C59.4311 10.5189 58.8293 11.1315 58.8293 11.8496V21.4602H56.9617V11.8496C56.9617 11.1315 56.3807 10.5189 55.6544 10.5189C54.9488 10.5189 54.347 11.1315 54.347 11.8496V21.4602H52.4794V11.8496C52.4794 10.0542 53.8905 8.61792 55.6544 8.61792C56.5259 8.61792 57.3145 8.95587 57.8955 9.54729C58.4558 8.95587 59.2443 8.61792 60.1159 8.61792C61.9005 8.61792 63.3116 10.0542 63.3116 11.8496V21.4602H61.4232L61.444 11.8496Z" fill="white"/>
<path d="M73.3762 12.2508C73.3762 11.3214 72.6292 10.561 71.7161 10.561C70.8238 10.561 70.056 11.3214 70.056 12.2508V21.4812H68.1677V4.01318H70.056V9.04025C70.5541 8.76566 71.1143 8.59668 71.7161 8.59668C73.6667 8.59668 75.2646 10.202 75.2646 12.2086V21.4389H73.3762V12.2508Z" fill="white"/>
<path d="M76.9452 18.1016V12.2508C76.9452 10.2442 78.543 8.63892 80.4936 8.63892C82.4443 8.63892 84.0421 10.2442 84.0421 12.2508V18.1016C84.0421 20.1082 82.4443 21.7135 80.4936 21.7135C78.543 21.7135 76.9452 20.1082 76.9452 18.1016ZM80.4936 10.5188C79.6013 10.5188 78.8336 11.3003 78.8336 12.2297V18.0805C78.8336 19.0099 79.6013 19.7914 80.4936 19.7914C81.4067 19.7914 82.1537 19.031 82.1537 18.0805V12.2508C82.1745 11.2792 81.4275 10.5188 80.4936 10.5188Z" fill="white"/>
<path d="M89.2715 10.5188C88.3792 10.5188 87.6114 11.3003 87.6114 12.2297V21.46H85.7438V12.2508C85.7438 10.2442 87.3209 8.63892 89.2715 8.63892C90.5166 8.63892 91.6786 9.2937 92.4464 10.6244L90.8486 11.596C90.4128 10.8356 89.894 10.5188 89.2715 10.5188Z" fill="white"/>
<path d="M98.1322 12.2508C98.1322 11.3214 97.3644 10.5399 96.4721 10.5399C95.559 10.5399 94.812 11.3003 94.812 12.2508V21.4812H92.9236V12.2508C92.9236 10.2442 94.5214 8.63892 96.4721 8.63892C98.4227 8.63892 99.9998 10.2442 99.9998 12.2508V21.4812H98.1322V12.2508Z" fill="white"/>
<path d="M52.9776 30.585V27.2477C52.9776 26.4662 53.6001 25.8325 54.3679 25.8325C54.9282 25.8325 55.4262 26.1705 55.6753 26.783L55.0735 27.0576C54.9282 26.6985 54.6584 26.5295 54.3679 26.5295C53.9737 26.5295 53.6416 26.8675 53.6416 27.2688V30.6061C53.6416 31.0074 53.9737 31.3454 54.3679 31.3454C54.7622 31.3454 55.0942 31.0074 55.0942 30.6061V29.888H54.0359V29.2121H55.7375V30.6061C55.7375 31.3876 55.115 32.0213 54.3472 32.0213C53.6001 32.0002 52.9776 31.3665 52.9776 30.585Z" fill="white"/>
<path d="M60.8008 30.0357H59.3482V31.9156H58.6841V27.2687C58.6841 26.4872 59.3067 25.8535 60.0745 25.8535C60.8423 25.8535 61.4648 26.4872 61.4648 27.2687V31.9156H60.8008V30.0357ZM60.0745 26.5294C59.6802 26.5294 59.3482 26.8674 59.3482 27.2687V29.3598H60.8008V27.2687C60.8008 26.8463 60.4687 26.5294 60.0745 26.5294Z" fill="white"/>
<path d="M67.3581 27.9656L66.445 30.6481H66.0922L65.1792 27.9656V31.9154H64.5151V25.9167H65.1792L66.2582 29.1273L67.3581 25.9167H68.0221V31.9154H67.3581V27.9656Z" fill="white"/>
<path d="M72.2346 25.9167H71.5706V31.9154H72.2346V25.9167Z" fill="white"/>
<path d="M76.3849 27.8811V31.9154H75.7208V25.9167H76.3641L77.8167 29.9511V25.9167H78.4807V31.9154H77.8374L76.3849 27.8811Z" fill="white"/>
<path d="M81.5104 30.585V27.2477C81.5104 26.4662 82.133 25.8325 82.9008 25.8325C83.4611 25.8325 83.9591 26.1705 84.2081 26.783L83.6063 27.0576C83.461 26.6985 83.1913 26.5295 82.9008 26.5295C82.5065 26.5295 82.1745 26.8675 82.1745 27.2688V30.6061C82.1745 31.0074 82.5065 31.3454 82.9008 31.3454C83.295 31.3454 83.6271 31.0074 83.6271 30.6061V29.888H82.5687V29.2121H84.2703V30.6061C84.2703 31.3876 83.6478 32.0213 82.88 32.0213C82.133 32.0002 81.5104 31.3665 81.5104 30.585Z" fill="white"/>
<path d="M4.62739 4.62574C-1.51496 10.8356 -1.55647 20.932 4.54439 27.1842C3.40307 26.0224 3.40307 24.1215 4.56514 22.9809C5.70645 21.8191 7.55331 21.8191 8.69463 23.002C4.87641 19.0944 4.89716 12.7578 8.73613 8.87129C12.5751 4.98482 18.8005 5.00594 22.6187 8.91353C23.76 10.0752 25.6068 10.0964 26.7482 8.93465C27.8895 7.77294 27.9102 5.89307 26.7689 4.73135C23.7185 1.56304 19.6928 0 15.667 0C11.6828 0 7.67782 1.54191 4.62739 4.62574Z" fill="white"/>
<path d="M26.7689 8.91362C25.6276 10.0753 23.7807 10.0753 22.6394 8.8925C26.4576 12.8001 26.4369 19.1367 22.5979 23.0232C18.7589 26.9097 12.5336 26.8885 8.71534 22.9809L8.69459 22.9598C8.63234 22.8965 8.57008 22.8331 8.50783 22.7908C8.42483 22.7275 8.36257 22.6641 8.27957 22.6219C8.27957 22.6219 8.27957 22.6219 8.25882 22.6219C8.17581 22.5796 8.11356 22.5163 8.03055 22.474H8.0098C7.159 22.0305 6.16295 22.0305 5.31215 22.474C5.2914 22.4951 5.24989 22.5163 5.22914 22.5163C5.08388 22.6007 4.95938 22.6852 4.83487 22.7908C4.75186 22.8542 4.68961 22.9176 4.60661 23.0021C3.46529 24.1638 3.44454 26.0437 4.58586 27.2054C10.6867 33.4575 20.6058 33.4998 26.7481 27.2899C32.8905 21.08 32.932 10.9836 26.8311 4.73145C27.9309 5.87204 27.9102 7.77303 26.7689 8.91362Z" fill="white"/>
</g>
<defs>
<clipPath id="clip0_1:229">
<rect width="100" height="32" fill="white"/>
</clipPath>
</defs>
</svg>
