<svg width="130" height="28" viewBox="0 0 130 28" fill="none" xmlns="http://www.w3.org/2000/svg">
<path d="M26.7349 17.3881C24.9221 24.8881 17.5577 29.4524 10.2857 27.5822C3.01676 25.7123 -1.40833 18.1157 0.405304 10.6162C2.21725 3.11536 9.58166 -1.44944 16.8515 0.420407C24.123 2.29025 28.5477 9.88776 26.7349 17.3881Z" fill="#C4C4C4"/>
<path d="M19.5541 12.0071C19.8242 10.1442 18.4492 9.14282 16.5689 8.47477L17.1789 5.95131L15.6897 5.5685L15.0959 8.02546C14.7044 7.92484 14.3023 7.82991 13.9028 7.73584L14.5008 5.26269L13.0125 4.87988L12.4022 7.40246C12.0781 7.32634 11.76 7.2511 11.4512 7.17192L11.4529 7.16404L9.39923 6.6351L9.00308 8.2757C9.00308 8.2757 10.108 8.53689 10.0846 8.55307C10.6878 8.70838 10.7968 9.12006 10.7785 9.44643L10.0838 12.3212C10.1254 12.3321 10.1792 12.3479 10.2386 12.3724C10.189 12.3597 10.136 12.3457 10.0813 12.3321L9.10741 16.3593C9.03361 16.5483 8.84657 16.8318 8.42497 16.7241C8.43982 16.7464 7.34256 16.4455 7.34256 16.4455L6.60327 18.2037L8.54118 18.702C8.90171 18.7952 9.25501 18.8928 9.60281 18.9847L8.98654 21.537L10.474 21.9198L11.0843 19.3946C11.4907 19.5083 11.8851 19.6133 12.2711 19.7122L11.6629 22.2256L13.152 22.6084L13.7683 20.0609C16.3077 20.5566 18.2172 20.3566 19.0209 17.9876C19.6686 16.0801 18.9887 14.9799 17.6526 14.2624C18.6256 14.0309 19.3585 13.3708 19.5541 12.0071ZM16.1516 16.9284C15.6914 18.8359 12.5778 17.8047 11.5683 17.5462L12.386 14.1648C13.3955 14.4247 16.6326 14.9392 16.1516 16.9284ZM16.6122 11.9795C16.1923 13.7146 13.6008 12.8331 12.7601 12.6169L13.5015 9.55013C14.3422 9.76625 17.0495 10.1696 16.6122 11.9795Z" fill="white"/>
<path d="M39.773 8.47222C40.8737 8.47222 41.8246 8.67565 42.6237 9.07508C43.4266 9.47845 44.0891 10.0218 44.6206 10.7052C45.1448 11.3921 45.535 12.1949 45.787 13.1149C46.0372 14.0376 46.1628 15.0294 46.1628 16.0912C46.1628 17.7221 45.8731 19.263 45.2882 20.7155C44.7033 22.1701 43.9097 23.4319 42.9002 24.5081C41.8916 25.583 40.7006 26.4304 39.3273 27.0565C37.956 27.683 36.4651 27.9962 34.8644 27.9962C34.6574 27.9962 34.2935 27.9901 33.7795 27.9792C33.2654 27.9682 32.6746 27.9135 32.0129 27.8212C31.347 27.7254 30.6429 27.5837 29.8994 27.3938C29.1563 27.2074 28.4505 26.9462 27.7859 26.6146L33.729 0.856787L39.052 0.00585938L36.9241 9.14641C37.3796 8.93466 37.8385 8.77059 38.2966 8.65116C38.7551 8.53347 39.2471 8.47222 39.773 8.47222ZM35.3081 23.6405C36.1097 23.6405 36.8651 23.4371 37.5747 23.0377C38.2864 22.6378 38.9006 22.0979 39.4151 21.4255C39.9295 20.75 40.3367 19.9892 40.6336 19.1392C40.9305 18.2891 41.0807 17.4023 41.0807 16.4797C41.0807 15.3461 40.897 14.4619 40.531 13.8228C40.1649 13.1862 39.4876 12.866 38.504 12.866C38.1816 12.866 37.7664 12.9294 37.2515 13.0427C36.7349 13.163 36.2726 13.4128 35.8582 13.7886L33.5924 23.4957C33.729 23.5207 33.8499 23.5443 33.9529 23.5666C34.0539 23.5907 34.1654 23.6077 34.2765 23.6196C34.394 23.6331 34.5285 23.6401 34.6909 23.6401C34.8534 23.6401 35.0566 23.6405 35.3081 23.6405Z" fill="white"/>
<path d="M51.6828 27.5031H46.5986L50.8922 8.86717H56.0112L51.6828 27.5031ZM54.1569 6.59658C53.4473 6.59658 52.8039 6.37871 52.233 5.94209C51.6574 5.5081 51.3724 4.84005 51.3724 3.93969C51.3724 3.44444 51.4699 2.97982 51.6633 2.54145C51.8597 2.10396 52.1163 1.72728 52.4378 1.40704C52.7589 1.08942 53.1309 0.835667 53.5533 0.644483C53.9783 0.456361 54.4305 0.362305 54.9123 0.362305C55.6214 0.362305 56.2615 0.580177 56.8345 1.0168C57.4054 1.4556 57.6925 2.12365 57.6925 3.0192C57.6925 3.51619 57.5954 3.98256 57.4003 4.42005C57.2065 4.85754 56.9499 5.23422 56.6284 5.55447C56.3098 5.87252 55.9345 6.1254 55.5129 6.31483C55.0874 6.50602 54.637 6.59658 54.1569 6.59658Z" fill="white"/>
<path d="M60.467 4.22422L65.7921 3.37329L64.4844 8.86646H70.1875L69.1577 13.188H63.489L61.979 19.7067C61.8399 20.25 61.761 20.7575 61.739 21.2291C61.7139 21.7029 61.772 22.1098 61.9095 22.4524C62.046 22.7958 62.2916 23.0605 62.6479 23.2477C63.0025 23.438 63.5102 23.5339 64.1761 23.5339C64.7245 23.5339 65.2589 23.48 65.7755 23.3733C66.2892 23.2683 66.8096 23.1222 67.3364 22.931L67.7156 26.9717C67.0285 27.2315 66.2845 27.4551 65.4829 27.6432C64.68 27.834 63.7295 27.9258 62.6309 27.9258C61.0514 27.9258 59.8269 27.6839 58.9545 27.2022C58.0833 26.7171 57.4674 26.0543 57.0988 25.2151C56.7353 24.3791 56.5729 23.4153 56.6183 22.3294C56.6654 21.241 56.8244 20.0969 57.0988 18.8921L60.467 4.22422Z" fill="white"/>
<path d="M69.9635 20.0613C69.9635 18.4562 70.2154 16.9424 70.7189 15.5254C71.2215 14.107 71.9455 12.8668 72.885 11.8023C73.8211 10.7432 74.9616 9.90404 76.304 9.28805C77.6401 8.67556 79.136 8.3667 80.7847 8.3667C81.8166 8.3667 82.7383 8.46733 83.5492 8.66901C84.3636 8.87245 85.1003 9.13538 85.7667 9.46525L84.0132 13.5777C83.5552 13.3861 83.0797 13.2172 82.5881 13.0641C82.0961 12.9079 81.4955 12.8326 80.7851 12.8326C79.0881 12.8326 77.7465 13.4359 76.7481 14.6386C75.7535 15.8421 75.2526 17.4622 75.2526 19.4943C75.2526 20.6988 75.5045 21.6726 76.0101 22.4177C76.5131 23.1627 77.4424 23.5333 78.7916 23.5333C79.4575 23.5333 80.1001 23.4615 80.7155 23.3215C81.3356 23.1798 81.8832 23.0013 82.3654 22.7904L82.7451 27.0061C82.1021 27.2633 81.3929 27.4956 80.615 27.6991C79.8354 27.8955 78.9074 27.9975 77.8314 27.9975C76.4109 27.9975 75.2085 27.7831 74.2249 27.3609C73.2409 26.9322 72.4278 26.363 71.7873 25.642C71.1435 24.9193 70.6812 24.0753 70.3953 23.1067C70.1094 22.139 69.9635 21.1222 69.9635 20.0613Z" fill="white"/>
<path d="M92.5491 27.9975C91.3357 27.9975 90.2817 27.8067 89.3876 27.4291C88.496 27.0516 87.7576 26.5218 87.1735 25.8349C86.5886 25.1516 86.1509 24.3418 85.8511 23.4086C85.5512 22.4758 85.407 21.4429 85.407 20.3111C85.407 18.8915 85.628 17.4722 86.0746 16.057C86.5191 14.6386 87.1786 13.3642 88.0515 12.2315C88.9176 11.0971 89.986 10.1696 91.244 9.44643C92.5008 8.72806 93.9463 8.3667 95.5699 8.3667C96.7613 8.3667 97.8098 8.55788 98.7162 8.93543C99.6183 9.31212 100.361 9.8463 100.949 10.5297C101.53 11.2165 101.971 12.0228 102.268 12.9573C102.567 13.8883 102.715 14.9238 102.715 16.0565C102.715 17.4718 102.497 18.891 102.064 20.3107C101.631 21.7234 100.989 23.0009 100.14 24.1361C99.2939 25.2688 98.2352 26.1959 96.9636 26.916C95.6937 27.6361 94.2211 27.9975 92.5491 27.9975ZM95.0902 12.8331C94.3365 12.8331 93.6701 13.0588 93.0997 13.5046C92.5271 13.9557 92.0461 14.5227 91.6584 15.2065C91.2665 15.8933 90.976 16.6423 90.7796 17.4565C90.5849 18.2724 90.4895 19.0437 90.4895 19.7765C90.4895 20.9591 90.6744 21.88 91.0379 22.5428C91.4065 23.2021 92.0686 23.5337 93.031 23.5337C93.7872 23.5337 94.4502 23.3097 95.024 22.8591C95.5932 22.4115 96.0746 21.8441 96.4653 21.159C96.8546 20.4756 97.1477 19.7245 97.3441 18.909C97.5362 18.0957 97.6342 17.32 97.6342 16.5885C97.6342 15.409 97.4501 14.4859 97.0832 13.824C96.7168 13.1647 96.0517 12.8331 95.0902 12.8331Z" fill="white"/>
<path d="M108.255 27.5031H103.167L107.46 8.86717H112.582L108.255 27.5031ZM110.725 6.59658C110.016 6.59658 109.373 6.37871 108.803 5.94209C108.231 5.5081 107.943 4.84005 107.943 3.93969C107.943 3.44444 108.042 2.97982 108.236 2.54145C108.43 2.10396 108.688 1.72728 109.009 1.40704C109.329 1.08942 109.704 0.835667 110.126 0.644483C110.548 0.456361 111 0.362305 111.48 0.362305C112.191 0.362305 112.833 0.580177 113.405 1.0168C113.977 1.4556 114.266 2.12365 114.266 3.0192C114.266 3.51619 114.164 3.98256 113.971 4.42005C113.779 4.85754 113.521 5.23422 113.201 5.55447C112.878 5.87252 112.508 6.1254 112.085 6.31483C111.659 6.50602 111.208 6.59658 110.725 6.59658Z" fill="white"/>
<path d="M116.246 9.71479C116.632 9.59842 117.063 9.45842 117.532 9.30618C118.002 9.15393 118.527 9.01218 119.114 8.88444C119.695 8.75275 120.35 8.646 121.071 8.56331C121.792 8.47888 122.613 8.43774 123.525 8.43774C126.207 8.43774 128.055 9.24318 129.075 10.8492C130.095 12.4553 130.272 14.6532 129.61 17.4392L127.271 27.5015H122.153L124.42 17.6509C124.558 17.0358 124.667 16.4412 124.747 15.8603C124.828 15.2845 124.823 14.777 124.729 14.3378C124.639 13.9038 124.426 13.5485 124.095 13.2734C123.76 13.0026 123.253 12.8665 122.565 12.8665C121.902 12.8665 121.228 12.94 120.54 13.0817L117.207 27.5011H112.087L116.246 9.71479Z" fill="white"/>
</svg>
