<svg width="100" height="46" viewBox="0 0 100 46" fill="none" xmlns="http://www.w3.org/2000/svg">
<path d="M6.649 14.4294L17.5942 19.5535C17.337 19.3812 12.1317 15.8587 10.5277 13.0711C8.8784 10.2177 8.99945 8.10419 10.3916 6.06166C11.7837 4.01913 15.2337 2.73178 20.4793 3.07135C25.725 3.41093 31.4952 5.00745 35.8228 8.92019C35.8228 8.92019 32.1307 2.32631 22.7339 0.481446C13.3372 -1.36342 6.10426 2.36179 1.93297 6.17823C0.828359 7.19189 0.258401 8.15487 0.0717773 9.0773C0.157523 11.8851 6.649 14.4294 6.649 14.4294Z" fill="white"/>
<path d="M10.3916 39.9381C8.9944 37.8956 8.8784 35.7821 10.5277 32.9286C12.1771 30.0751 17.6043 26.4412 17.6043 26.4412L6.649 31.5703C6.649 31.5703 0.152479 34.1146 0.0717773 36.9224C0.258401 37.8449 0.828359 38.8079 1.93297 39.8215C6.10426 43.638 13.3321 47.3581 22.7289 45.5132C32.1307 43.6734 35.8228 37.0796 35.8228 37.0796C31.4952 40.9923 25.725 42.5939 20.4793 42.9284C15.2337 43.268 11.7837 41.9857 10.3916 39.9381Z" fill="white"/>
<path d="M6.64883 31.5704L17.6041 26.4412C17.6041 26.4412 20.7162 24.7687 20.7162 23.1114C20.7162 23.0759 20.7162 23.0353 20.7112 22.9999C20.7112 22.9644 20.7162 22.9238 20.7162 22.8884C20.7162 21.231 17.6041 19.5585 17.6041 19.5585C17.6041 19.5585 17.5991 19.5534 17.5941 19.5534L6.64883 14.4293C6.64883 14.4293 0.157356 11.8901 0.0716099 9.08228C-0.44791 11.6316 1.96307 13.8364 3.95036 15.7268C6.60848 18.2458 7.78875 20.7495 7.76857 22.9999C7.78875 25.2502 6.60848 27.7539 3.95036 30.278C1.96307 32.1634 -0.44791 34.3681 0.0716099 36.9225C0.152312 34.1147 6.64883 31.5704 6.64883 31.5704Z" fill="white"/>
<path d="M26.865 24.1101C26.865 24.3736 26.9962 24.5713 27.2585 24.698C27.5207 24.8298 27.8486 24.8957 28.2521 24.9007C28.6506 24.9058 29.044 24.8855 29.4273 24.85C29.8107 24.8095 30.1738 24.769 30.5118 24.7183C30.8547 24.6676 31.0464 24.6422 31.0968 24.6422C31.1322 25.3772 30.9859 25.8992 30.6631 26.2033C30.3403 26.5074 29.6896 26.6594 28.7111 26.6594C27.3644 26.6594 26.3758 26.3857 25.7402 25.8333C25.1098 25.2809 24.792 24.3331 24.792 22.9748C24.792 22.2956 24.8777 21.7229 25.0492 21.2566C25.2207 20.7853 25.4729 20.4305 25.8058 20.1821C26.1387 19.9389 26.5069 19.7615 26.9155 19.6601C27.324 19.5587 27.8032 19.5081 28.3479 19.5081C29.392 19.5081 30.1637 19.7311 30.653 20.1771C31.1473 20.6231 31.3944 21.3326 31.3944 22.3058C31.3944 22.6808 31.3238 22.9748 31.1775 23.2028C31.0363 23.4259 30.8447 23.5779 30.6177 23.6539C30.3857 23.73 30.1082 23.7857 29.7854 23.8212C29.4626 23.8567 29.1398 23.8668 28.8271 23.8516C28.5093 23.8364 28.1714 23.8516 27.8032 23.8972C27.44 23.9378 27.1223 24.0087 26.865 24.1101ZM26.7995 22.7771C26.9407 22.6757 27.1778 22.6099 27.5006 22.5744C27.8234 22.5389 28.126 22.5237 28.4085 22.5186C28.6909 22.5136 28.9431 22.4527 29.16 22.3412C29.3769 22.2247 29.4828 22.0473 29.4778 21.804C29.4778 21.5861 29.3063 21.4036 28.9582 21.2566C28.4791 21.0539 28.01 21.0387 27.556 21.2059C26.9256 21.434 26.6734 21.956 26.7995 22.7771Z" fill="white"/>
<path d="M39.5353 21.9256V26.5479C39.2427 26.5631 38.9855 26.5631 38.7787 26.5428C38.5669 26.5225 38.3702 26.4719 38.1785 26.3958C37.9868 26.3198 37.8506 26.1931 37.7598 26.0208C37.6691 25.8485 37.6337 25.6305 37.6388 25.367V22.625V22.5997V21.9661C37.5127 21.3478 36.9377 21.1045 35.9188 21.2312C35.3892 21.2971 35.0815 21.3478 34.9958 21.3833C35.021 21.5252 35.0361 21.6975 35.0361 21.8901V25.367C35.0462 25.6305 35.0008 25.8485 34.91 26.0208C34.8193 26.1931 34.678 26.3198 34.4914 26.3958C34.3048 26.4719 34.1081 26.5225 33.8962 26.5428C33.6844 26.5631 33.4322 26.5682 33.1396 26.5479V20.3645C33.1396 19.8121 34.0223 19.5181 35.7826 19.4776C38.2794 19.4117 39.5302 20.2277 39.5353 21.9256Z" fill="white"/>
<path d="M46.1478 16.7603C46.2739 16.8515 46.4303 16.9123 46.6219 16.9376C46.8136 16.963 46.9851 16.9782 47.1414 16.9782C47.2978 16.9782 47.4491 17.0035 47.5904 17.0491C47.7316 17.0948 47.8425 17.2063 47.9232 17.3837C48.004 17.561 48.0443 17.8195 48.0443 18.1591V25.6501C48.0342 25.6602 47.9939 25.7058 47.9232 25.797C47.8526 25.8883 47.7871 25.9592 47.7265 26.015C47.666 26.0707 47.5601 26.1417 47.3987 26.2329C47.2373 26.3242 47.0607 26.39 46.8691 26.4407C46.6774 26.4914 46.4151 26.537 46.0873 26.5826C45.7594 26.6232 45.3862 26.6485 44.9776 26.6485C43.6813 26.6485 42.7482 26.3647 42.1833 25.8021C41.6184 25.2395 41.3359 24.3019 41.3359 22.9892C41.3359 22.4824 41.4015 22.0262 41.5377 21.6258C41.6739 21.2254 41.8504 20.896 42.0723 20.6426C42.2943 20.3892 42.5566 20.1763 42.8642 20.009C43.1669 19.8418 43.4745 19.7201 43.7873 19.6543C44.1 19.5884 44.4228 19.5529 44.7607 19.5529C45.4114 19.5529 45.8704 19.6543 46.1528 19.857V16.7603H46.1478ZM46.1478 23.1058V21.3015C46.0368 21.266 45.9158 21.2356 45.7897 21.2102C45.6585 21.1849 45.4971 21.1646 45.3055 21.1545C45.1138 21.1393 44.9272 21.1443 44.7557 21.1595C44.5842 21.1748 44.4026 21.2254 44.221 21.3116C44.0344 21.3978 43.8781 21.5093 43.7419 21.6461C43.6057 21.788 43.4998 21.9806 43.414 22.229C43.3283 22.4773 43.2879 22.7713 43.2879 23.1108C43.2879 23.4301 43.3384 23.714 43.4392 23.9471C43.5401 24.1853 43.6662 24.3678 43.8125 24.4945C43.9588 24.6212 44.1403 24.7175 44.3572 24.7783C44.5741 24.8391 44.7658 24.8797 44.9373 24.8949C45.1088 24.9101 45.2954 24.905 45.4971 24.8797C45.6989 24.8594 45.8401 24.8391 45.9208 24.8239C46.0015 24.8087 46.0721 24.7885 46.1428 24.7733H46.1579C46.1528 24.7834 46.1528 24.2259 46.1478 23.1058Z" fill="white"/>
<path d="M49.8349 23.0304C49.8248 22.9797 49.8197 22.9138 49.8147 22.8277C49.8096 22.7415 49.8248 22.5793 49.855 22.331C49.8853 22.0877 49.9307 21.8495 50.0013 21.6265C50.0669 21.4035 50.1879 21.1551 50.3544 20.8815C50.5208 20.6128 50.7327 20.3797 50.9798 20.182C51.227 19.9894 51.5649 19.8222 51.9835 19.6955C52.4022 19.5637 52.8864 19.4978 53.4261 19.4978C53.8044 19.4978 54.1524 19.5282 54.4752 19.589C54.793 19.6499 55.0704 19.7309 55.3024 19.8323C55.5344 19.9337 55.7412 20.0604 55.9228 20.2124C56.1044 20.3645 56.2557 20.5165 56.3717 20.6635C56.4877 20.8105 56.5886 20.9879 56.6693 21.1906C56.75 21.3934 56.8105 21.5707 56.8509 21.7177C56.8912 21.8647 56.9215 22.037 56.9417 22.2398C56.9568 22.4374 56.9669 22.5895 56.9719 22.6908C56.977 22.7922 56.977 22.924 56.9719 23.076C56.9669 23.2331 56.9669 23.3193 56.9669 23.3345C56.9669 23.4714 56.9618 23.593 56.9518 23.7045C56.9417 23.816 56.9164 23.9883 56.8761 24.2265C56.8357 24.4647 56.7752 24.6776 56.6996 24.8601C56.6239 25.0476 56.5028 25.2503 56.3414 25.4683C56.175 25.6862 55.9833 25.8737 55.7614 26.0207C55.5395 26.1677 55.2469 26.2944 54.8888 26.3958C54.5307 26.4971 54.1272 26.5478 53.6833 26.5478C53.2193 26.5478 52.8057 26.5174 52.4425 26.4566C52.0794 26.3958 51.7717 26.3198 51.5195 26.2235C51.2673 26.1272 51.0454 25.9954 50.8537 25.8231C50.662 25.6558 50.5107 25.4784 50.3947 25.301C50.2787 25.1236 50.1778 24.9057 50.1022 24.6421C50.0265 24.3786 49.971 24.1302 49.9307 23.887C49.8903 23.6437 49.8601 23.3649 49.8349 23.0304ZM51.7162 23.147C51.7414 23.441 51.7767 23.6792 51.8221 23.8515C51.8675 24.0238 51.9533 24.1961 52.0743 24.3634C52.1954 24.5306 52.382 24.6573 52.6241 24.7334C52.8662 24.8094 53.1789 24.8499 53.5572 24.8499C53.8498 24.8499 54.107 24.8043 54.3138 24.708C54.5257 24.6168 54.682 24.5104 54.7829 24.3887C54.8838 24.2722 54.9645 24.1252 55.025 23.9579C55.0855 23.7907 55.1158 23.664 55.1259 23.5778C55.136 23.4916 55.141 23.4004 55.141 23.299C55.141 23.2889 55.141 23.2484 55.141 23.1673C55.141 23.0862 55.141 23.0203 55.141 22.9645C55.141 22.9088 55.136 22.8277 55.1259 22.7162C55.1158 22.6047 55.1007 22.5134 55.0805 22.4324C55.0603 22.3513 55.03 22.255 54.9897 22.1485C54.9493 22.037 54.9039 21.9458 54.8485 21.8647C54.793 21.7836 54.7224 21.7025 54.6316 21.6164C54.5408 21.5302 54.4449 21.4643 54.334 21.4086C54.223 21.3528 54.0919 21.3072 53.9355 21.2768C53.7792 21.2413 53.6077 21.2261 53.4261 21.2261C53.0881 21.2261 52.8006 21.2717 52.5686 21.368C52.3316 21.4592 52.1601 21.5707 52.0491 21.6924C51.9381 21.814 51.8574 21.9762 51.7969 22.1739C51.7364 22.3715 51.7061 22.5287 51.7011 22.6351C51.696 22.7466 51.7011 22.8834 51.7061 23.0558C51.7162 23.0963 51.7162 23.1318 51.7162 23.147Z" fill="white"/>
<path d="M63.3928 19.5027C63.3827 19.5179 63.3877 19.6091 63.3978 19.7713C63.4129 19.9335 63.4079 20.0855 63.3928 20.2325C63.3776 20.3795 63.3423 20.5417 63.2919 20.7089C63.2415 20.8762 63.1406 21.013 62.9842 21.1144C62.8279 21.2158 62.6261 21.2665 62.384 21.2665C62.0309 21.2665 61.7586 21.2817 61.5618 21.307C61.3702 21.3323 61.1936 21.3982 61.0423 21.4996C60.891 21.601 60.7901 21.7429 60.7397 21.9304C60.6893 22.1179 60.664 22.3714 60.664 22.6907V26.7554C60.5127 26.6439 60.311 26.5578 60.0638 26.497C59.8167 26.4311 59.6048 26.3855 59.4333 26.35C59.2618 26.3145 59.1055 26.2182 58.9743 26.0509C58.8382 25.8837 58.7726 25.6455 58.7726 25.3312V21.9304C58.7726 21.8797 58.7726 21.8088 58.7776 21.7226C58.7827 21.6314 58.7978 21.5097 58.823 21.3526C58.8482 21.1955 58.8886 21.0384 58.9491 20.8813C59.0096 20.7241 59.0954 20.562 59.2164 20.3947C59.3325 20.2275 59.4787 20.0754 59.6452 19.9487C59.8116 19.822 60.0285 19.7156 60.2958 19.6294C60.5632 19.5432 60.8557 19.5027 61.1886 19.5027C61.7535 19.5027 62.1722 19.5027 62.4395 19.5027C62.7068 19.5027 62.8581 19.5027 62.8833 19.5027C62.9086 19.5027 62.959 19.5027 63.0296 19.5027C63.0901 19.5027 63.2162 19.5027 63.3928 19.5027Z" fill="white"/>
<path d="M66.8329 29.3556C66.6815 29.2441 66.4798 29.1782 66.2326 29.1579C65.9855 29.1376 65.7736 29.1275 65.6022 29.1275C65.4307 29.1275 65.2743 29.0363 65.1432 28.8538C65.007 28.6713 64.9414 28.3723 64.9414 27.9567V20.4657C64.9515 20.4556 64.9918 20.41 65.0625 20.3188C65.1331 20.2275 65.1986 20.1616 65.2592 20.111C65.3197 20.0603 65.4256 19.9893 65.587 19.893C65.7484 19.8018 65.925 19.7258 66.1166 19.6751C66.3083 19.6244 66.5706 19.5788 66.8984 19.5332C67.2263 19.4926 67.5995 19.4673 68.0081 19.4673C69.3044 19.4673 70.2375 19.7511 70.8024 20.3137C71.3673 20.8763 71.6498 21.8139 71.6498 23.1266C71.6498 23.7601 71.5489 24.3126 71.3471 24.7789C71.1454 25.2452 70.873 25.5999 70.53 25.8534C70.187 26.1017 69.8289 26.2842 69.4456 26.4007C69.0623 26.5173 68.6537 26.5731 68.225 26.5731C67.6449 26.5731 67.1809 26.5122 66.8329 26.3957V29.3556ZM66.8329 23.005V24.8093C66.969 24.8498 67.1153 24.8853 67.2666 24.9107C67.423 24.936 67.6197 24.9563 67.8517 24.9765C68.0888 24.9917 68.3057 24.9664 68.5074 24.9005C68.7092 24.8346 68.9009 24.7333 69.0875 24.6066C69.2741 24.4798 69.4204 24.2771 69.5313 23.9984C69.6423 23.7196 69.6978 23.3851 69.6978 22.9948C69.6978 22.6755 69.6473 22.3917 69.5414 22.1586C69.4355 21.9204 69.3145 21.7379 69.1732 21.6112C69.032 21.4845 68.8504 21.3882 68.6234 21.3274C68.3965 21.2615 68.2048 21.226 68.0535 21.2108C67.9022 21.1956 67.7105 21.2057 67.4835 21.2311C67.2566 21.2564 67.1153 21.2716 67.0649 21.2817C67.0144 21.2919 66.9388 21.3071 66.8379 21.3324H66.8228C66.8228 21.3324 66.8228 21.8899 66.8329 23.005Z" fill="white"/>
<path d="M75.3216 19.7461C75.7352 19.5788 76.4262 19.4927 77.3946 19.4927C77.8687 19.4927 78.2723 19.5738 78.6052 19.736C78.9431 19.8981 79.1852 20.0806 79.3365 20.2884C79.4878 20.4962 79.6038 20.7344 79.6845 20.998C79.7652 21.2666 79.8106 21.4643 79.8157 21.596C79.8258 21.7278 79.8258 21.8393 79.8157 21.9305V26.5529C78.5497 26.7201 77.9192 26.3298 77.9192 25.3719C77.9192 25.0171 77.9192 24.5509 77.9192 23.9731C77.9293 22.7111 77.8687 21.9457 77.7427 21.667C77.6166 21.3933 77.2181 21.2463 76.5573 21.2311C76.1437 21.2311 75.7301 21.3071 75.3165 21.4592V25.3719C75.3317 25.8788 75.1753 26.2133 74.8424 26.3704C74.5095 26.5275 74.0354 26.5883 73.42 26.5529V16.6443C73.5714 16.7558 73.7731 16.8217 74.0203 16.842C74.2674 16.8622 74.4793 16.8724 74.6508 16.8724C74.8222 16.8724 74.9786 16.9636 75.1097 17.1461C75.2459 17.3285 75.3115 17.6275 75.3115 18.0431V19.7461H75.3216Z" fill="white"/>
<path d="M81.929 18.7782C81.7374 18.5754 81.6365 18.3322 81.6365 18.0534C81.6365 17.7746 81.7374 17.5364 81.9341 17.3337C82.1308 17.136 82.3678 17.0347 82.6503 17.0347C82.9277 17.0347 83.1648 17.136 83.3665 17.3337C83.5633 17.5314 83.6641 17.7696 83.6641 18.0534C83.6641 18.3322 83.5633 18.5704 83.3665 18.7731C83.1698 18.9708 82.9328 19.0721 82.6503 19.0721C82.3729 19.0721 82.1308 18.9758 81.929 18.7782ZM83.5834 20.77C83.5834 20.3544 83.5179 20.0554 83.3817 19.8729C83.2455 19.6905 83.0942 19.5992 82.9227 19.5992C82.7512 19.5992 82.5393 19.5891 82.2922 19.5688C82.045 19.5486 81.8433 19.4827 81.692 19.3712V26.5428C82.3073 26.5783 82.7814 26.5175 83.1143 26.3604C83.4472 26.2033 83.6036 25.8738 83.5885 25.3619V20.77H83.5834Z" fill="white"/>
<path d="M91.8502 21.9256V26.5479C91.5577 26.5631 91.3005 26.5631 91.0937 26.5428C90.8818 26.5225 90.6851 26.4719 90.4934 26.3958C90.3018 26.3198 90.1656 26.1931 90.0748 26.0208C89.984 25.8485 89.9487 25.6305 89.9537 25.367V22.625V22.5997V21.9661C89.8276 21.3478 89.2526 21.1045 88.2338 21.2312C87.7042 21.2971 87.3965 21.3478 87.3107 21.3833C87.336 21.5252 87.3511 21.6975 87.3511 21.8901V25.367C87.3612 25.6305 87.3158 25.8485 87.225 26.0208C87.1342 26.1931 86.993 26.3198 86.8064 26.3958C86.6197 26.4719 86.423 26.5225 86.2112 26.5428C85.9993 26.5631 85.7471 26.5682 85.4546 26.5479V20.3645C85.4546 19.8121 86.3373 19.5181 88.0976 19.4776C90.5893 19.4117 91.8402 20.2277 91.8502 21.9256Z" fill="white"/>
<path d="M94.1503 21.2817C94.1503 21.2564 94.1452 21.2209 94.1351 21.1803C94.125 21.1398 94.125 21.0536 94.1301 20.932C94.1351 20.8103 94.1452 20.6938 94.1704 20.5823C94.1906 20.4708 94.236 20.3491 94.2965 20.2072C94.3621 20.0653 94.4428 19.9487 94.5487 19.8524C94.6546 19.7561 94.7959 19.675 94.9774 19.6041C95.159 19.5382 95.3709 19.5027 95.618 19.5027C95.6937 19.5027 95.8097 19.5027 95.9711 19.5027C96.188 19.4926 96.415 19.4926 96.647 19.5027C96.879 19.5129 97.111 19.523 97.343 19.5331C97.575 19.5483 97.802 19.5838 98.0189 19.6396C98.2358 19.7004 98.4476 19.7713 98.6443 19.8575C98.8411 19.9437 99.0226 20.0653 99.1891 20.2174C99.3555 20.3745 99.4968 20.5519 99.6178 20.7546C99.7389 20.9573 99.8347 21.2057 99.9003 21.5047C99.9658 21.7987 100.001 22.1332 100.001 22.5082V22.5995V22.6907V22.7921V22.8833V22.9847V23.086V23.2026V23.3293V23.456V23.6081V23.8108V23.9122C100.001 24.2619 99.9608 24.5761 99.8851 24.8599C99.8095 25.1438 99.7136 25.3718 99.6027 25.5543C99.4867 25.7317 99.3455 25.8888 99.179 26.0257C99.0126 26.1625 98.8512 26.2588 98.7049 26.3247C98.5586 26.3906 98.3871 26.4413 98.1954 26.4767C98.0038 26.5173 97.8525 26.5376 97.7465 26.5477C97.6406 26.5578 97.5145 26.5629 97.3733 26.5629H95.6281C95.6029 26.5629 95.5625 26.5629 95.5121 26.5578C95.4617 26.5528 95.3658 26.5426 95.2296 26.5173C95.0884 26.497 94.9573 26.4666 94.8312 26.421C94.7051 26.3804 94.5638 26.3095 94.4075 26.2132C94.2511 26.1169 94.12 26.0003 94.009 25.8685C93.8981 25.7368 93.8073 25.5644 93.7316 25.3566C93.656 25.1438 93.6156 24.9056 93.6156 24.6471C93.6156 24.1808 93.6761 23.7905 93.7921 23.4712C93.9081 23.1519 94.0897 22.9086 94.3268 22.7363C94.5689 22.564 94.8362 22.4423 95.1288 22.3765C95.4213 22.3106 95.7794 22.2751 96.2031 22.2751C96.9345 22.2751 97.4338 22.2244 97.7011 22.1281C97.9685 22.0318 98.0996 21.8798 98.0996 21.677C98.0996 21.3881 97.8222 21.1955 97.2724 21.0942C96.7226 20.9928 96.1375 20.9725 95.5171 21.0283C94.9018 21.0739 94.4428 21.1601 94.1503 21.2817ZM98.1551 23.1975C98.1198 23.2381 98.0744 23.2888 98.0088 23.3496C97.9432 23.4104 97.802 23.4864 97.5851 23.5827C97.3682 23.679 97.1362 23.7297 96.9042 23.7297C96.4906 23.7297 96.1577 23.7804 95.9005 23.8818C95.6432 23.9831 95.5171 24.125 95.5171 24.3126C95.5171 24.5305 95.6079 24.6978 95.7946 24.8093C95.9812 24.9208 96.3494 24.9765 96.9042 24.9765C97.1312 24.9765 97.3077 24.9765 97.4288 24.9714C97.5498 24.9664 97.6658 24.936 97.7718 24.8751C97.8777 24.8143 97.9483 24.7586 97.9937 24.7079C98.034 24.6572 98.0693 24.5508 98.0996 24.3835C98.1299 24.2163 98.145 24.0591 98.1501 23.9071C98.1501 23.755 98.1551 23.5168 98.1551 23.1975Z" fill="white"/>
</svg>
