<svg width="124" height="35" viewBox="0 0 124 35" fill="none" xmlns="http://www.w3.org/2000/svg">
<g clip-path="url(#clip0_1:311)">
<path d="M81.3981 11.0945C84.0922 10.4457 87.3693 11.0494 89.1283 13.3449C89.8763 14.245 90.1951 15.3925 90.4731 16.5064C89.2897 16.525 88.1018 16.525 86.9184 16.525C86.4036 13.9821 82.9048 12.9656 81.0487 14.7062C79.7407 16.1276 79.5043 18.239 79.7748 20.0809C80.0639 21.4944 80.6354 23.1371 82.0969 23.7226C84.1791 24.4984 86.6399 23.1146 86.9184 20.8757C88.1249 20.8757 89.3345 20.8717 90.5445 20.8983C90.2931 23.0513 89.252 25.2937 87.1401 26.1752C83.8629 27.5967 79.1696 27.1727 77.2714 23.7864C77.5729 22.4061 77.9108 20.9695 77.5986 19.5591C77.4221 18.5169 76.8772 17.5978 76.5389 16.6078C76.5322 13.9149 78.8468 11.6269 81.3981 11.0945Z" fill="white"/>
<path d="M45.3156 11.486C46.6116 11.4749 47.9081 11.4749 49.2046 11.4709C49.9748 14.8648 50.4031 18.338 51.3427 21.6952C52.2858 18.912 52.7217 15.9902 53.5229 13.1663C53.7592 12.3113 54.4323 11.4076 55.4167 11.4714C56.484 11.3439 57.2094 12.3304 57.4275 13.2602C58.1942 16.0358 58.6974 18.8823 59.5505 21.6394C60.5313 18.3123 61.0692 14.8808 61.787 11.49C63.0525 11.4749 64.3158 11.4749 65.5826 11.4864C64.5224 15.7433 63.3239 19.9626 62.2375 24.2119C61.9706 25.2701 61.505 26.4774 60.3699 26.8677C59.0849 27.1602 57.9197 26.1401 57.608 24.9514C56.8081 22.4006 56.229 19.7829 55.4397 17.225C54.8048 19.7679 54.1548 22.3032 53.4555 24.8275C53.1921 25.9565 52.2002 27.1151 50.9268 26.8907C49.6977 26.7517 49.0924 25.533 48.8224 24.4677C47.6598 20.1392 46.4764 15.8146 45.3156 11.486Z" fill="white"/>
<path d="M91.3312 11.4833C92.4929 11.4793 93.6577 11.4793 94.819 11.4753C94.811 12.7508 94.7999 14.0257 94.9014 15.2937C96.7695 15.4246 98.8175 14.8958 100.538 15.8411C102.023 16.6359 102.88 18.3163 102.868 19.974C102.891 22.2806 102.861 24.5872 102.872 26.8977C101.741 26.9052 100.614 26.9088 99.4862 26.9123C99.4636 24.696 99.5128 22.4793 99.4755 20.263C99.5203 19.5129 98.9865 18.7287 98.2123 18.6424C97.0852 18.4999 95.9465 18.5752 94.8154 18.5973C94.8229 21.365 94.8194 24.1367 94.8194 26.9088C93.6581 26.9052 92.4969 26.9052 91.3361 26.9052C91.3312 21.7637 91.3392 16.6248 91.3312 11.4833ZM118.05 11.4789H121.353C121.349 12.6384 121.349 13.793 121.345 14.952C122.228 14.952 123.111 14.952 123.998 14.956C123.994 15.811 123.994 16.67 123.994 17.525H121.314C121.383 19.4833 121.168 21.4632 121.428 23.4135C122.021 24.1451 123.07 24.0402 123.908 24.2761C123.897 25.1501 123.893 26.0241 123.893 26.9017C121.995 26.9433 119.402 27.1907 118.429 25.1315C117.591 22.705 118.218 20.0497 118.031 17.5329C117.182 17.525 116.332 17.5214 115.483 17.5104C115.483 16.6625 115.479 15.815 115.479 14.9715C116.336 14.9604 117.193 14.9529 118.054 14.9489C118.05 13.7934 118.05 12.6384 118.05 11.4789Z" fill="white"/>
<path d="M76.4443 21.736C76.5046 19.5192 76.0116 17.0175 74.0465 15.6899C71.4761 14.0586 67.3619 14.2794 65.6295 17.0361C64.1823 19.4666 64.1043 22.9096 66.0649 25.0963C67.9436 27.2152 71.2735 27.3281 73.7343 26.2668C75.0915 25.7154 75.8391 24.3988 76.3503 23.1088C75.2684 23.0737 74.1856 23.0687 73.1034 23.0937C72.1452 24.2298 70.4541 24.6878 69.1128 23.9748C68.2597 23.5624 68.0873 22.5649 67.8199 21.7621C70.6944 21.717 73.5689 21.7581 76.4443 21.736ZM67.733 19.4219C68.1205 18.2403 69.0973 17.2087 70.4541 17.4224C71.7918 17.2051 72.7008 18.2814 73.0768 19.4254C71.2957 19.4776 69.5145 19.4741 67.733 19.4219Z" fill="white"/>
<path d="M114.914 18.8109C114.846 16.7592 113.031 15.1391 111.051 14.9288C109.089 14.7266 106.868 14.7266 105.248 16.0246C104.388 16.6468 104.114 17.716 103.892 18.6949C104.903 18.7215 105.914 18.725 106.928 18.7175C107.503 16.9995 109.754 16.7818 111.107 17.6673C111.618 18.0948 111.573 18.8149 111.719 19.411C109.6 19.4937 107.27 19.0848 105.388 20.3036C103.595 21.3542 103.269 23.9307 104.309 25.6111C105.038 26.7024 106.462 26.9051 107.676 26.9015C110.096 26.9126 112.516 26.8975 114.936 26.9015C114.914 24.2007 114.981 21.5033 114.914 18.8109ZM107.135 23.7501C106.978 23.1576 107.315 22.6172 107.511 22.0888C108.856 21.7848 110.239 21.7436 111.618 21.7737C111.626 22.715 111.626 23.6532 111.622 24.5945C110.126 24.5003 108.292 24.9733 107.135 23.7501Z" fill="white"/>
<path d="M23.9685 2.1907C19.5788 -0.276515 14.1073 -0.648699 9.38332 1.05467C6.28042 2.17034 3.46927 4.24324 1.73336 7.06714C0.159741 9.61268 -0.430867 12.7884 0.330006 15.7013C1.09132 18.935 3.33625 21.6443 6.07113 23.4552C5.55679 24.9479 5.04954 26.4402 4.57156 27.9435C6.30037 27.0473 8.00878 26.1127 9.73095 25.2006C11.8078 25.8644 13.9902 26.1826 16.1704 26.1127C15.6024 24.45 15.4676 22.6595 15.7261 20.9247C16.1394 18.5181 17.4439 16.3151 19.2467 14.6816C22.2822 11.8445 26.5863 10.6456 30.6815 10.9346C29.9162 7.18796 27.278 4.01887 23.9685 2.1907ZM12.2011 8.98736C11.8961 10.4553 9.92427 11.1634 8.77276 10.1796C7.43902 9.2405 7.81192 6.90782 9.3811 6.43961C10.9166 5.84792 12.6636 7.40525 12.2011 8.98736ZM22.8635 8.56163C22.8768 10.2513 20.6226 11.3045 19.354 10.157C18.0385 9.21793 18.4114 6.92995 19.9557 6.4551C21.3369 5.91297 22.9713 7.07599 22.8635 8.56163Z" fill="white"/>
<path d="M41.4341 18.8137C40.3628 16.3912 38.34 14.4727 35.9936 13.2854C31.8509 11.1877 26.696 11.2036 22.567 13.3345C19.6951 14.8068 17.2995 17.4422 16.6171 20.6489C16.0557 23.0086 16.5608 25.5497 17.8138 27.6093C19.6818 30.6997 23.0543 32.6717 26.5634 33.3058C29.1049 33.8214 31.7321 33.5191 34.1996 32.8018C35.677 33.378 37.0014 34.3056 38.4363 34.9915C38.0694 33.7531 37.6742 32.5232 37.251 31.3029C38.8561 30.158 40.3202 28.737 41.2004 26.9486C42.5097 24.4584 42.5882 21.3747 41.4341 18.8137ZM27.0152 19.7391C26.6516 20.8839 24.9787 21.2291 24.1748 20.3551C23.2858 19.5505 23.6312 17.8631 24.7964 17.5046C26.0925 16.9603 27.5832 18.4481 27.0152 19.7391ZM35.4553 19.8979C35.0128 20.9291 33.4658 21.1663 32.7027 20.3688C32.3324 20.0369 32.2424 19.5328 32.0943 19.0872C32.2921 18.2848 32.8286 17.4489 33.742 17.413C35.0061 17.24 36.1151 18.7708 35.4553 19.8979Z" fill="white"/>
</g>
<defs>
<clipPath id="clip0_1:311">
<rect width="124" height="35" fill="white"/>
</clipPath>
</defs>
</svg>
