<svg width="195" height="44" viewBox="0 0 195 44" fill="none" xmlns="http://www.w3.org/2000/svg">
<g filter="url(#filter0_d_1:3394)">
<path d="M0.632 17.672C1.016 15.336 1.72 13.192 2.744 11.24C3.768 9.288 4.968 7.672 6.344 6.392C7.752 5.112 9.304 4.024 11 3.128C12.728 2.232 14.44 1.592 16.136 1.208C17.864 0.823998 19.592 0.631999 21.32 0.631999C25.064 0.631999 28.328 1.4 31.112 2.936L29.624 12.296C27.928 10.92 25.608 10.232 22.664 10.232C20.04 10.232 17.704 10.888 15.656 12.2C13.608 13.512 12.344 15.56 11.864 18.344C11.48 20.776 12.024 22.664 13.496 24.008C14.968 25.352 16.84 26.024 19.112 26.024C22.44 26.024 25.432 25.224 28.088 23.624L26.456 33.896C23.736 35.144 20.568 35.768 16.952 35.768C14.552 35.768 12.296 35.416 10.184 34.712C8.104 33.976 6.248 32.904 4.616 31.496C2.984 30.056 1.784 28.152 1.016 25.784C0.28 23.384 0.152 20.68 0.632 17.672ZM64.5935 35H53.7935L53.0255 30.536H41.1695L39.0095 35H27.5855L45.4415 1.4H57.3935L64.5935 35ZM48.5615 15.176L44.9615 22.52H51.7295L50.5295 15.224C50.3055 13.72 50.1935 12.28 50.1935 10.904C49.7135 12.504 49.1695 13.928 48.5615 15.176ZM68.8745 10.136C69.3545 7.096 70.9545 4.76 73.6745 3.128C76.3945 1.464 79.5465 0.631999 83.1305 0.631999C87.8985 0.631999 91.9945 1.608 95.4185 3.56L93.9785 12.824C90.9385 10.744 87.5625 9.736 83.8505 9.8C81.4185 9.8 80.1545 10.312 80.0585 11.336C80.0265 11.816 80.3785 12.296 81.1145 12.776C81.8825 13.224 82.8425 13.624 83.9945 13.976C85.1465 14.328 86.3625 14.84 87.6425 15.512C88.9545 16.152 90.1385 16.872 91.1945 17.672C92.2825 18.472 93.0985 19.576 93.6425 20.984C94.2185 22.392 94.3625 24.008 94.0745 25.832C92.9545 32.456 87.8665 35.768 78.8105 35.768C73.6265 35.768 69.2425 34.664 65.6585 32.456L67.1945 22.856C70.4905 25.288 74.1865 26.504 78.2825 26.504C81.1625 26.504 82.6825 25.992 82.8425 24.968C82.9385 24.392 82.6185 23.864 81.8825 23.384C81.1465 22.872 80.2025 22.44 79.0505 22.088C77.9305 21.736 76.7145 21.24 75.4025 20.6C74.0905 19.96 72.8905 19.256 71.8025 18.488C70.7145 17.688 69.8825 16.568 69.3065 15.128C68.7305 13.688 68.5865 12.024 68.8745 10.136ZM101.507 1.4H112.595L107.267 35H96.1786L101.507 1.4ZM123.392 35H112.304L117.632 1.4H125.984L135.92 17.576C135.952 15.624 136.128 13.736 136.448 11.912L138.08 1.4H149.168L143.84 35H135.488L125.6 18.872C125.6 20.28 125.44 22.104 125.12 24.344L123.392 35ZM186.45 18.872C185.682 23.768 183.506 27.816 179.922 31.016C176.338 34.184 171.714 35.768 166.05 35.768C160.322 35.768 156.05 34.024 153.234 30.536C150.418 27.048 149.426 22.712 150.258 17.528C151.026 12.632 153.202 8.6 156.786 5.432C160.37 2.232 164.994 0.631999 170.658 0.631999C176.322 0.631999 180.578 2.376 183.426 5.864C186.274 9.352 187.282 13.688 186.45 18.872ZM161.49 18.776C161.234 20.952 161.57 22.664 162.498 23.912C163.458 25.128 164.946 25.736 166.962 25.736C169.234 25.736 171.106 25.016 172.578 23.576C174.082 22.104 174.978 20.12 175.266 17.624C175.554 15.448 175.218 13.752 174.258 12.536C173.33 11.288 171.842 10.664 169.794 10.664C167.554 10.664 165.698 11.4 164.226 12.872C162.754 14.312 161.842 16.28 161.49 18.776Z" fill="url(#paint0_linear_1:3394)"/>
</g>
<defs>
<filter id="filter0_d_1:3394" x="0.3479" y="0.631958" width="194.384" height="43.136" filterUnits="userSpaceOnUse" color-interpolation-filters="sRGB">
<feFlood flood-opacity="0" result="BackgroundImageFix"/>
<feColorMatrix in="SourceAlpha" type="matrix" values="0 0 0 0 0 0 0 0 0 0 0 0 0 0 0 0 0 0 127 0" result="hardAlpha"/>
<feOffset dx="4" dy="4"/>
<feGaussianBlur stdDeviation="2"/>
<feColorMatrix type="matrix" values="0 0 0 0 0 0 0 0 0 0 0 0 0 0 0 0 0 0 0.25 0"/>
<feBlend mode="normal" in2="BackgroundImageFix" result="effect1_dropShadow_1:3394"/>
<feBlend mode="normal" in="SourceGraphic" in2="effect1_dropShadow_1:3394" result="shape"/>
</filter>
<linearGradient id="paint0_linear_1:3394" x1="4.85748" y1="22" x2="180.582" y2="22" gradientUnits="userSpaceOnUse">
<stop stop-color="#00B2FF"/>
<stop offset="1" stop-color="#8F00FF"/>
</linearGradient>
</defs>
</svg>
