<svg width="124" height="33" viewBox="0 0 124 33" fill="none" xmlns="http://www.w3.org/2000/svg">
<path d="M46.211 6.74902H39.372C39.1456 6.74888 38.9266 6.8296 38.7544 6.97664C38.5822 7.12369 38.4683 7.32738 38.433 7.55102L35.667 25.088C35.6543 25.1694 35.6593 25.2526 35.6819 25.3318C35.7044 25.411 35.7438 25.4844 35.7974 25.547C35.851 25.6095 35.9175 25.6597 35.9924 25.694C36.0672 25.7284 36.1486 25.7461 36.231 25.746H39.496C39.7225 25.7461 39.9417 25.6653 40.1139 25.518C40.286 25.3708 40.3999 25.1668 40.435 24.943L41.181 20.213C41.216 19.9894 41.3298 19.7856 41.5017 19.6384C41.6737 19.4911 41.8926 19.4102 42.119 19.41H44.284C48.789 19.41 51.389 17.23 52.068 12.91C52.374 11.02 52.081 9.53502 51.196 8.49502C50.224 7.35302 48.5 6.74902 46.211 6.74902ZM47 13.154C46.626 15.608 44.751 15.608 42.938 15.608H41.906L42.63 11.025C42.6512 10.8909 42.7195 10.7688 42.8227 10.6807C42.926 10.5925 43.0572 10.544 43.193 10.544H43.666C44.901 10.544 46.066 10.544 46.668 11.248C47.027 11.668 47.137 12.292 47 13.154ZM66.654 13.075H63.379C63.2432 13.075 63.112 13.1235 63.0087 13.2117C62.9055 13.2998 62.8372 13.4219 62.816 13.556L62.671 14.472L62.442 14.14C61.733 13.111 60.152 12.767 58.574 12.767C54.955 12.767 51.864 15.508 51.262 19.353C50.949 21.271 51.394 23.105 52.482 24.384C53.48 25.56 54.908 26.05 56.607 26.05C59.523 26.05 61.14 24.175 61.14 24.175L60.994 25.085C60.981 25.1664 60.9858 25.2496 61.008 25.3289C61.0303 25.4083 61.0694 25.4818 61.1229 25.5446C61.1763 25.6073 61.2427 25.6577 61.3174 25.6923C61.3922 25.7269 61.4736 25.7449 61.556 25.745H64.506C64.7325 25.7451 64.9517 25.6643 65.1239 25.517C65.296 25.3698 65.4099 25.1658 65.445 24.942L67.215 13.733C67.228 13.6518 67.2233 13.5688 67.2011 13.4896C67.1789 13.4105 67.1397 13.3371 67.0864 13.2745C67.0331 13.2119 66.9668 13.1617 66.8921 13.1273C66.8175 13.0928 66.7362 13.075 66.654 13.075ZM62.089 19.449C61.773 21.32 60.288 22.576 58.394 22.576C57.443 22.576 56.683 22.271 56.195 21.693C55.711 21.119 55.527 20.302 55.681 19.392C55.976 17.537 57.486 16.24 59.351 16.24C60.281 16.24 61.037 16.549 61.535 17.132C62.034 17.721 62.232 18.543 62.089 19.449ZM84.096 13.075H80.805C80.6498 13.0753 80.497 13.1134 80.3598 13.186C80.2227 13.2587 80.1054 13.3637 80.018 13.492L75.479 20.178L73.555 13.753C73.4959 13.5571 73.3754 13.3853 73.2111 13.2632C73.0469 13.1411 72.8477 13.0751 72.643 13.075H69.409C69.3182 13.0748 69.2287 13.0962 69.1479 13.1376C69.0671 13.1789 68.9973 13.239 68.9444 13.3127C68.8914 13.3865 68.8569 13.4718 68.8436 13.5616C68.8303 13.6514 68.8387 13.7431 68.868 13.829L72.493 24.467L69.085 29.278C69.0244 29.3633 68.9885 29.4636 68.9812 29.568C68.9738 29.6724 68.9953 29.7767 69.0433 29.8697C69.0914 29.9626 69.164 30.0405 69.2534 30.0949C69.3428 30.1493 69.4454 30.1781 69.55 30.178H72.837C72.9905 30.1782 73.1417 30.1412 73.2777 30.0702C73.4137 29.9991 73.5305 29.8961 73.618 29.77L84.564 13.97C84.6233 13.8845 84.6581 13.7845 84.6646 13.6806C84.6711 13.5768 84.649 13.4731 84.6008 13.3809C84.5526 13.2887 84.4801 13.2114 84.3911 13.1575C84.3021 13.1036 84.2 13.0751 84.096 13.075Z" fill="white"/>
<path d="M94.992 6.74905H88.152C87.9257 6.74914 87.707 6.82997 87.535 6.97699C87.3631 7.12401 87.2492 7.32757 87.214 7.55105L84.448 25.088C84.4351 25.1693 84.44 25.2523 84.4623 25.3315C84.4847 25.4107 84.5239 25.484 84.5773 25.5466C84.6307 25.6091 84.6971 25.6593 84.7718 25.6938C84.8465 25.7282 84.9277 25.746 85.01 25.746H88.52C88.6783 25.7458 88.8314 25.6891 88.9517 25.5861C89.0719 25.483 89.1515 25.3405 89.176 25.184L89.961 20.213C89.996 19.9894 90.1098 19.7856 90.2817 19.6384C90.4537 19.4912 90.6726 19.4102 90.899 19.41H93.063C97.569 19.41 100.168 17.23 100.848 12.91C101.155 11.02 100.86 9.53505 99.975 8.49505C99.004 7.35305 97.281 6.74905 94.992 6.74905ZM95.781 13.154C95.408 15.608 93.533 15.608 91.719 15.608H90.688L91.413 11.025C91.4338 10.891 91.5019 10.7687 91.6049 10.6805C91.708 10.5923 91.8393 10.5439 91.975 10.544H92.448C93.682 10.544 94.848 10.544 95.45 11.248C95.809 11.668 95.918 12.292 95.781 13.154ZM115.434 13.075H112.161C112.025 13.0747 111.894 13.123 111.791 13.2113C111.688 13.2995 111.62 13.4219 111.599 13.556L111.454 14.472L111.224 14.14C110.515 13.111 108.935 12.767 107.357 12.767C103.738 12.767 100.648 15.508 100.046 19.353C99.734 21.271 100.177 23.105 101.265 24.384C102.265 25.56 103.691 26.05 105.39 26.05C108.306 26.05 109.923 24.175 109.923 24.175L109.777 25.085C109.764 25.1666 109.769 25.25 109.791 25.3294C109.813 25.4089 109.853 25.4826 109.906 25.5453C109.96 25.6081 110.027 25.6585 110.102 25.693C110.177 25.7274 110.258 25.7452 110.341 25.745H113.29C113.516 25.7449 113.735 25.6639 113.907 25.5167C114.079 25.3695 114.193 25.1657 114.228 24.942L115.999 13.733C116.012 13.6516 116.006 13.5684 115.984 13.4892C115.961 13.41 115.922 13.3366 115.868 13.2741C115.814 13.2116 115.748 13.1614 115.673 13.127C115.598 13.0927 115.516 13.075 115.434 13.075ZM110.869 19.449C110.555 21.32 109.068 22.576 107.174 22.576C106.225 22.576 105.463 22.271 104.975 21.693C104.491 21.119 104.309 20.302 104.461 19.392C104.758 17.537 106.266 16.24 108.131 16.24C109.061 16.24 109.817 16.549 110.315 17.132C110.816 17.721 111.014 18.543 110.869 19.449ZM119.295 7.23005L116.488 25.088C116.475 25.1693 116.48 25.2523 116.502 25.3315C116.525 25.4107 116.564 25.484 116.617 25.5466C116.671 25.6091 116.737 25.6593 116.812 25.6938C116.886 25.7282 116.968 25.746 117.05 25.746H119.872C120.341 25.746 120.739 25.406 120.811 24.943L123.579 7.40705C123.592 7.32576 123.587 7.24266 123.565 7.16345C123.542 7.08423 123.503 7.0108 123.45 6.94818C123.396 6.88556 123.33 6.83525 123.255 6.8007C123.181 6.76616 123.099 6.74819 123.017 6.74805H119.857C119.721 6.74853 119.59 6.7973 119.487 6.88562C119.384 6.97394 119.316 7.09604 119.295 7.23005Z" fill="white"/>
<path d="M7.26597 29.1539L7.78897 25.8319L6.62397 25.8049H1.06097L4.92697 1.29193C4.93848 1.21703 4.97652 1.14876 5.03416 1.09957C5.0918 1.05037 5.1652 1.02353 5.24097 1.02393H14.621C17.735 1.02393 19.884 1.67193 21.006 2.95093C21.532 3.55093 21.867 4.17793 22.029 4.86793C22.199 5.59193 22.202 6.45693 22.036 7.51193L22.024 7.58893V8.26493L22.55 8.56293C22.9515 8.76637 23.3125 9.04157 23.615 9.37493C24.065 9.88793 24.356 10.5399 24.479 11.3129C24.606 12.1079 24.564 13.0539 24.356 14.1249C24.116 15.3569 23.728 16.4299 23.204 17.3079C22.7416 18.0945 22.12 18.7757 21.379 19.3079C20.683 19.8019 19.856 20.1769 18.921 20.4169C18.015 20.6529 16.982 20.7719 15.849 20.7719H15.119C14.597 20.7719 14.09 20.9599 13.692 21.2969C13.2945 21.6375 13.0309 22.1081 12.948 22.6249L12.893 22.9239L11.969 28.7789L11.927 28.9939C11.916 29.0619 11.897 29.0959 11.869 29.1189C11.8419 29.1411 11.808 29.1534 11.773 29.1539H7.26597Z" fill="#253B80"/>
<path d="M23.048 7.66699C23.02 7.84599 22.988 8.02899 22.952 8.21699C21.715 14.568 17.483 16.762 12.078 16.762H9.326C8.665 16.762 8.108 17.242 8.005 17.894L6.596 26.83L6.197 29.363C6.18111 29.4635 6.18718 29.5662 6.21479 29.6641C6.2424 29.762 6.2909 29.8528 6.35696 29.9301C6.42301 30.0075 6.50504 30.0696 6.59741 30.1122C6.68977 30.1548 6.79028 30.1769 6.892 30.177H11.773C12.351 30.177 12.842 29.757 12.933 29.187L12.981 28.939L13.9 23.107L13.959 22.787C14.049 22.215 14.541 21.795 15.119 21.795H15.849C20.578 21.795 24.28 19.875 25.362 14.319C25.814 11.998 25.58 10.06 24.384 8.69699C24.0049 8.27535 23.5522 7.92632 23.048 7.66699Z" fill="#DFDFDF"/>
<path d="M21.754 7.1509C21.359 7.03664 20.9572 6.94746 20.551 6.8839C19.7483 6.76054 18.9371 6.70135 18.125 6.7069H10.773C10.4932 6.70668 10.2226 6.80657 10.01 6.98851C9.79744 7.17044 9.65698 7.42242 9.61401 7.6989L8.05 17.6049L8.005 17.8939C8.05373 17.5786 8.21371 17.2911 8.45601 17.0834C8.6983 16.8758 9.00691 16.7617 9.326 16.7619H12.078C17.483 16.7619 21.715 14.5669 22.952 8.2169C22.989 8.0289 23.02 7.8459 23.048 7.6669C22.7216 7.49573 22.3814 7.35223 22.031 7.2379C21.9391 7.20742 21.8468 7.17842 21.754 7.1509Z" fill="#F1F1F1"/>
<path d="M9.61397 7.699C9.65658 7.42245 9.79697 7.17035 10.0096 6.9885C10.2223 6.80666 10.4932 6.70713 10.773 6.708H18.125C18.996 6.708 19.809 6.765 20.551 6.885C21.0531 6.96391 21.5483 7.08194 22.032 7.238C22.397 7.359 22.736 7.502 23.049 7.667C23.417 5.32 23.046 3.722 21.777 2.275C20.378 0.682 17.853 0 14.622 0H5.24197C4.58197 0 4.01897 0.48 3.91697 1.133L0.00997075 25.898C-0.00822741 26.013 -0.00130363 26.1305 0.0302658 26.2426C0.0618352 26.3546 0.117301 26.4585 0.192848 26.5471C0.268395 26.6356 0.36223 26.7068 0.467898 26.7556C0.573567 26.8045 0.688561 26.8298 0.804971 26.83H6.59597L8.04997 17.605L9.61397 7.699Z" fill="white"/>
</svg>
