<svg width="130" height="32" viewBox="0 0 130 32" fill="none" xmlns="http://www.w3.org/2000/svg">
<path d="M11.631 0.0301485C19.2062 -0.392493 26.3638 5.73581 27.4076 13.2528C28.0637 17.5396 27.0795 22.1584 24.3358 25.5396C21.4728 29.283 16.9396 31.7886 12.1977 31.6679C7.78383 31.9094 3.3998 29.9773 0.447285 26.6868C-0.268476 25.932 0.0894047 24.4528 1.13322 24.1811C2.08757 23.7584 2.71386 24.7245 3.31033 25.2981C6.02425 27.9547 9.96094 29.132 13.659 28.5584C17.208 28.1962 20.3991 25.9622 22.4271 23.0641C24.3358 20.3471 24.9919 16.8151 24.3954 13.5547C23.9183 10.5056 22.1587 7.75845 19.8026 5.85656C15.2098 1.90185 7.66454 2.14336 3.31033 6.39996C2.71386 6.85279 2.29633 7.75845 1.46128 7.63769C0.268345 7.69807 -0.477239 6.06788 0.298168 5.16222C3.16121 1.96222 7.3663 -4.01279e-05 11.631 0.0301485ZM34.6845 6.67166C34.6547 5.64524 35.6687 4.83015 36.6528 4.98109C37.4581 5.10185 38.144 5.79619 38.144 6.64147C38.2037 8.33203 38.2037 10.0226 38.1142 11.683C39.158 10.6264 40.5299 9.81128 42.0509 9.81128C43.8701 9.69053 45.6595 10.6566 46.7331 12.1358C48.4331 14.249 48.7015 17.2679 47.8366 19.7735C47.0015 22.0679 44.8841 24.1509 42.3193 24.0905C40.7088 24.1811 39.2177 23.366 38.144 22.2188C38.2931 23.2754 37.4282 24.332 36.3546 24.2415C35.3704 24.2717 34.595 23.3056 34.6845 22.3094V6.67166ZM40.6193 12.7396C37.5475 14.0981 37.4282 19.1698 40.172 20.9509C41.0667 21.4641 42.2596 21.3132 42.9754 20.5584C44.556 19.0792 44.7648 16.5132 43.8999 14.6113C43.3631 13.3434 42.021 12.1962 40.6193 12.7396Z" fill="white"/>
<path d="M7.57506 7.33592C7.87329 5.85667 10.289 6.00762 10.4381 7.48686C10.5276 9.26799 10.4679 11.0189 10.4381 12.8001C11.631 12.3171 12.9731 12.0152 14.2555 12.2869C17.1483 12.8001 19.3851 15.6982 19.2062 18.6567C19.2956 21.9472 16.3431 24.9359 13.0924 24.9057C11.7205 24.9057 10.3188 24.8755 8.94693 24.8454C7.96276 24.8755 7.12771 23.6378 7.60488 22.7321C7.81364 22.1888 8.38029 21.8869 8.91711 21.8567C10.4977 21.7359 12.1082 21.7963 13.6888 21.6755C15.9852 21.0416 16.7308 17.6906 14.9712 16.0906C13.2117 14.2491 10.4381 15.5774 8.29082 15.0038C7.51541 14.6416 7.39612 13.7057 7.42594 12.951C7.54523 11.1095 7.42594 9.20762 7.57506 7.33592ZM54.3977 10.2038C55.2029 9.96233 56.0678 9.75101 56.873 9.96233C57.8572 10.2642 58.2747 11.6529 57.559 12.4378C56.9327 13.3133 55.7099 12.7699 54.9345 13.4038C52.5487 15.0642 52.5785 19.0793 54.9345 20.7699C55.7398 21.4038 57.0818 20.8906 57.6485 21.9171C58.3642 22.8831 57.4993 24.4227 56.3064 24.302C52.6381 24.3623 49.5961 20.8303 49.6558 17.2378C49.5961 14.1586 51.5347 11.1699 54.3977 10.2038ZM65.1341 10.1133C69.3392 8.7246 74.0215 12.4982 73.9022 16.8755C74.1408 20.7699 70.6813 24.4831 66.8042 24.2416C62.9272 24.302 59.7361 20.4378 60.094 16.6038C60.2431 13.6755 62.3009 10.9284 65.1341 10.1133ZM66.0288 12.8906C62.8377 14.3699 62.8974 19.985 66.2078 21.2831C68.8322 21.9774 70.5918 18.8378 70.2339 16.5435C70.1743 14.4604 68.2656 12.0454 66.0288 12.8906ZM76.974 9.99252C79.6283 9.44913 82.1931 11.2906 83.4456 13.585C84.8473 16.2718 84.4895 19.8944 82.3422 22.0982C81.0598 23.5472 79.1511 24.4831 77.2126 24.2416C76.0495 24.0604 75.6618 22.4001 76.467 21.6152C77.1231 20.9208 78.2266 21.3133 78.9423 20.7699C81.2685 19.1397 81.358 15.185 79.0914 13.4642C78.4353 12.8906 77.481 13.102 76.7354 12.7699C75.7214 12.1963 75.8407 10.385 76.974 9.99252ZM86.6069 11.502C86.6069 10.234 88.2174 9.53969 89.2016 10.2038C89.7085 10.4755 89.8875 11.0189 90.1261 11.502C91.1102 10.4755 92.4523 9.75101 93.9136 9.84158C96.4188 9.75101 98.8047 11.9548 98.8345 14.5208C98.8643 17.1171 98.8345 19.7435 98.8345 22.3397C98.9538 23.3963 97.9398 24.3925 96.9258 24.2416C96.1206 24.2114 95.375 23.4567 95.375 22.6416C95.3452 20.2265 95.375 17.8114 95.375 15.3661C95.4644 13.7963 93.9435 12.4076 92.4225 12.6189C91.2295 12.7397 90.0963 13.8265 90.0963 15.0944C90.0366 17.6303 90.1261 20.1661 90.0664 22.702C89.977 24.0001 88.277 24.7548 87.263 23.9699C86.6367 23.5774 86.5771 22.7623 86.5771 22.068C86.6069 18.5057 86.5473 15.0038 86.6069 11.502ZM103.576 10.9887C105.694 9.23781 109.094 9.56988 110.913 11.6529C110.973 10.234 112.732 9.41894 113.776 10.3548C114.432 10.8076 114.462 11.6529 114.432 12.3774C114.402 16.1208 114.432 19.834 114.432 23.5774C114.432 25.8114 112.911 27.7435 111.062 28.8001C107.96 30.5812 103.517 29.6454 101.638 26.5057C101.041 25.3586 102.234 23.9397 103.457 24.302C104.411 24.8152 104.829 25.9925 105.873 26.4454C107.453 27.2604 109.511 26.6869 110.525 25.2378C111.211 24.4227 110.883 23.3057 110.973 22.3397C109.809 23.5774 108.139 24.3321 106.439 24.151C104.143 24.0303 102.264 22.1887 101.429 20.1359C100.147 17.0265 100.922 13.0718 103.576 10.9887ZM106.887 12.8906C104.113 14.4303 103.994 19.1699 106.589 20.951C107.483 21.5548 108.736 21.3435 109.481 20.5887C111.39 18.7472 111.36 15.3057 109.511 13.434C108.885 12.7397 107.781 12.468 106.887 12.8906ZM121.172 10.1133C122.842 9.63026 124.751 9.75101 126.302 10.5963C128.598 11.8642 130.209 14.4604 130.03 17.1774C130.149 20.8906 126.839 24.3623 123.141 24.2416C119.442 24.3623 116.162 20.8906 116.222 17.1774C116.102 14.068 118.19 11.0189 121.172 10.1133ZM122.365 12.8303C119.234 14.068 119.025 19.2001 121.769 20.9812C122.693 21.5548 124.005 21.4642 124.811 20.7095C126.898 18.9586 126.928 15.3661 124.99 13.4944C124.333 12.8303 123.29 12.5284 122.365 12.8303Z" fill="white"/>
<path d="M9.06623 17.298C9.99075 16.5734 11.5117 17.2376 11.5416 18.4451C11.6907 19.6829 10.0206 20.6791 9.06623 19.8036C8.23118 19.23 8.23118 17.8716 9.06623 17.298Z" fill="white"/>
</svg>
