<svg width="122" height="27" viewBox="0 0 122 27" fill="none" xmlns="http://www.w3.org/2000/svg">
<path d="M14.9303 17.9333H6.76412L5.33751 21.9073C4.99316 22.8882 4.82098 23.6176 4.82098 24.0955C4.82098 24.4728 4.96856 24.8249 5.28832 25.1016C5.58348 25.4034 6.24759 25.5795 7.28065 25.6801V26.3592H0.639526V25.6801C1.52501 25.504 2.09074 25.2525 2.3613 24.9507C2.90243 24.347 3.46816 23.1398 4.10767 21.3288L11.4867 0.578613H12.0278L19.3577 21.5552C19.948 23.2404 20.4891 24.347 20.9565 24.8249C21.4484 25.328 22.1125 25.6046 22.9734 25.6801V26.3592H14.6597V25.6801C15.496 25.6298 16.0617 25.4537 16.3569 25.177C16.652 24.9004 16.7996 24.5483 16.7996 24.1458C16.7996 23.5925 16.6028 22.7373 16.1847 21.5552L14.9303 17.9333ZM14.4875 16.55L10.8964 6.36352L7.23146 16.55H14.4875Z" fill="white"/>
<path d="M36.6246 26.3842L29.5407 10.0104V23.0139C29.5407 24.2212 29.6637 24.9506 29.9097 25.2524C30.254 25.6548 30.7706 25.856 31.4839 25.856H32.1234V26.3842H25.7528V25.856H26.3923C27.1548 25.856 27.7206 25.6045 28.0403 25.1015C28.2371 24.7997 28.3355 24.0954 28.3355 23.0139V10.3122C28.3355 9.45707 28.2371 8.82828 28.0649 8.451C27.9419 8.17433 27.696 7.94797 27.3762 7.74675C27.0318 7.57069 26.4907 7.47008 25.7528 7.47008V6.94189H30.9427L37.5839 22.1587L44.1266 6.94189H49.3165V7.47008H48.677C47.8899 7.47008 47.3488 7.7216 47.029 8.22464C46.8322 8.52646 46.7339 9.23071 46.7339 10.3122V23.0139C46.7339 24.2212 46.8568 24.9506 47.1028 25.2524C47.4472 25.6548 47.9637 25.856 48.677 25.856H49.3165V26.3842H41.5439V25.856H42.1835C42.9706 25.856 43.5117 25.6045 43.8314 25.1015C44.0282 24.7997 44.1266 24.0954 44.1266 23.0139V10.0104L37.0673 26.3842H36.6246Z" fill="white"/>
<path d="M65.3044 19.87H58.2206L56.9907 22.9385C56.6956 23.6931 56.5234 24.2464 56.5234 24.6237C56.5234 24.9255 56.6464 25.177 56.9169 25.4034C57.1875 25.6298 57.7532 25.7807 58.6387 25.831V26.3592H52.8831V25.831C53.6456 25.6801 54.1375 25.504 54.3589 25.2776C54.8262 24.8249 55.3181 23.8943 55.8839 22.4858L62.3282 6.48926H62.7956L69.1661 22.6619C69.6827 23.9697 70.15 24.7997 70.5681 25.2022C70.9863 25.5795 71.5766 25.8058 72.3145 25.8561V26.3843H65.0831V25.8561C65.821 25.8058 66.3129 25.6801 66.5589 25.4788C66.8048 25.2525 66.9524 25.001 66.9524 24.674C66.9524 24.2464 66.7802 23.5925 66.4113 22.687L65.3044 19.87ZM64.9109 18.8136L61.8117 10.9663L58.6387 18.8136H64.9109Z" fill="white"/>
<path d="M88.3025 6.94189L88.4993 11.4944H87.9827C87.8843 10.6895 87.7368 10.111 87.5892 9.78405C87.3186 9.23071 86.9497 8.82828 86.4823 8.55161C86.015 8.30009 85.4001 8.14918 84.6622 8.14918H82.0795V23.0139C82.0795 24.2212 82.2025 24.9506 82.4485 25.2524C82.7928 25.6548 83.3093 25.856 84.0227 25.856H84.6622V26.3842H76.8896V25.856H77.5291C78.2916 25.856 78.8573 25.6045 79.1771 25.1015C79.3739 24.7997 79.4723 24.0954 79.4723 23.0139V8.14918H77.2831C76.4223 8.14918 75.8319 8.22464 75.463 8.35039C74.9956 8.52646 74.6021 8.87858 74.2577 9.40677C73.9134 9.93496 73.7166 10.6141 73.6674 11.4944H73.1509L73.3722 6.94189H88.3025Z" fill="white"/>
<path d="M100.478 25.856V26.3842H92.6313V25.856H93.2709C94.0334 25.856 94.5745 25.6297 94.9188 25.1518C95.1402 24.85 95.2386 24.1206 95.2386 22.9384V10.3625C95.2386 9.38163 95.1894 8.72768 95.0664 8.40071C94.968 8.17434 94.7959 7.94798 94.5253 7.77191C94.1317 7.54555 93.7136 7.41979 93.2955 7.41979H92.6559V6.8916H100.502V7.41979H99.8382C99.1003 7.41979 98.5592 7.64615 98.2148 8.12404C97.9934 8.42586 97.8705 9.15526 97.8705 10.3374V22.9133C97.8705 23.8942 97.9197 24.5481 98.0426 24.8751C98.141 25.1266 98.3132 25.3279 98.6084 25.5039C99.0019 25.7303 99.3955 25.856 99.8382 25.856H100.478Z" fill="white"/>
<path d="M120.573 6.03638L120.992 12.6513H120.573C120.008 10.6643 119.221 9.2558 118.187 8.37549C117.154 7.49518 115.9 7.0676 114.473 7.0676C113.268 7.0676 112.161 7.39457 111.177 8.04852C110.194 8.70247 109.431 9.75884 108.865 11.1925C108.3 12.6261 108.029 14.4119 108.029 16.5498C108.029 18.3104 108.3 19.8447 108.816 21.1274C109.357 22.4102 110.144 23.4163 111.202 24.0954C112.26 24.7745 113.489 25.1266 114.842 25.1266C116.023 25.1266 117.081 24.8499 117.991 24.3217C118.901 23.7935 119.909 22.712 120.992 21.1023L121.41 21.379C120.5 23.1144 119.417 24.372 118.187 25.1769C116.958 25.9817 115.506 26.3842 113.834 26.3842C110.808 26.3842 108.447 25.1769 106.799 22.7875C105.569 21.0017 104.93 18.9141 104.93 16.4995C104.93 14.5628 105.348 12.7771 106.16 11.1422C106.971 9.50732 108.103 8.24973 109.529 7.36942C110.956 6.46396 112.53 6.03638 114.227 6.03638C115.556 6.03638 116.859 6.3885 118.138 7.0676C118.507 7.26881 118.778 7.39457 118.95 7.39457C119.196 7.39457 119.393 7.29397 119.59 7.1179C119.835 6.86639 119.983 6.48911 120.081 6.03638H120.573Z" fill="white"/>
</svg>
