<svg width="120" height="30" viewBox="0 0 120 30" fill="none" xmlns="http://www.w3.org/2000/svg">
<g clip-path="url(#clip0_1:248)">
<path d="M100.4 10.4999C101.2 9.89995 102.4 9.69995 103.4 9.79995C104.6 9.89995 105.7 10.2999 106.7 11.0999C106.3 11.5999 105.9 12.1999 105.5 12.6999C104.7 12.1999 103.8 11.6999 102.8 11.6999C102.4 11.6999 101.9 11.7999 101.6 12.0999C101.3 12.3999 101.4 12.9999 101.8 13.1999C102.2 13.4999 102.8 13.5999 103.2 13.6999C104.3 13.9999 105.4 14.1999 106.2 14.9999C107 15.6999 107 16.8999 106.8 17.8999C106.5 18.8999 105.6 19.5999 104.6 19.7999C102.6 20.2999 100.4 19.6999 98.8 18.3999C99.2 17.8999 99.7 17.2999 100.1 16.7999C100.9 17.3999 101.8 17.8999 102.9 17.9999C103.4 18.0999 104 17.9999 104.4 17.6999C104.8 17.2999 104.8 16.5999 104.2 16.2999C102.9 15.6999 101.3 15.6999 100.1 14.7999C99.4 14.2999 99.1 13.4999 99.2 12.6999C99.3 11.8999 99.7 10.9999 100.4 10.4999ZM47.8 10.2999C49 9.79995 50.3 9.79995 51.6 9.99995C52.6 10.1999 53.4 10.5999 54.1 11.1999C53.6 11.7999 53.1 12.2999 52.7 12.8999C52.1 12.3999 51.3 11.8999 50.4 11.8999C49.5 11.7999 48.5 12.0999 47.9 12.7999C46.8 13.8999 46.7 15.6999 47.6 16.8999C48.6 18.3999 50.9 18.4999 52.3 17.5999V16.4999H51.2V14.7999H54.5V18.5999C53.3 19.5999 51.6 20.1999 50.1 20.1999C48.6 20.1999 47.1 19.6999 46.1 18.5999C44.8 17.2999 44.5 15.2999 44.9 13.5999C45.2 12.0999 46.4 10.8999 47.8 10.2999ZM58.9 10.2999C60.2 9.69995 61.6 9.69995 62.9 9.89995C63.8 10.0999 64.6 10.4999 65.3 11.0999C64.8 11.6999 64.3 12.1999 63.9 12.7999C63.3 12.2999 62.4 11.7999 61.6 11.7999C60.6 11.6999 59.6 12.0999 59 12.8999C57.9 14.1999 58 16.3999 59.5 17.4999C60.7 18.3999 62.4 18.2999 63.6 17.5999V16.4999H62.5V14.7999H65.8V18.5999C64.6 19.6999 62.9 20.1999 61.2 20.1999C59.7 20.1999 58.1 19.5999 57.1 18.4999C56 17.1999 55.6 15.3999 56 13.7999C56.5 12.2999 57.5 10.9999 58.9 10.2999ZM34.6 9.99995H37.2C38 11.4999 38.8 12.9999 39.7 14.3999C40.5 12.8999 41.4 11.3999 42.2 9.99995H44.8C43.5 12.2999 42.1 14.4999 40.8 16.7999C40.7 17.8999 40.8 18.8999 40.8 19.9999H38.5V16.9999C38.5 16.7999 38.4 16.6999 38.4 16.5999C37.2 14.3999 35.9 12.1999 34.6 9.99995ZM67.7 9.99995H71.5C73.1 10.0999 74.7 10.5999 75.7 11.8999C77.2 13.6999 77.2 16.5999 75.6 18.2999C74.6 19.3999 73.1 19.9999 71.6 19.9999H67.8C67.7 16.6999 67.7 13.2999 67.7 9.99995ZM69.9 11.9999V17.9999C70.6 17.9999 71.4 18.0999 72.2 17.8999C72.9 17.6999 73.5 17.2999 73.9 16.5999C74.4 15.8999 74.4 14.8999 74.2 14.0999C74 13.2999 73.4 12.5999 72.5 12.1999C71.7 11.8999 70.8 11.9999 69.9 11.9999ZM78.1 9.99995H82.2C83.2 9.99995 84.3 10.0999 85.1 10.6999C85.8 11.1999 86.3 11.8999 86.4 12.6999C86.5 13.5999 86.4 14.6999 85.8 15.3999C85.4 15.8999 84.8 16.1999 84.3 16.4999C85.1 17.6999 86 18.8999 86.8 19.9999H84.1C83.4 18.8999 82.6 17.8999 81.9 16.7999H81.3V14.7999C82 14.6999 82.9 14.9999 83.6 14.4999C84.5 13.9999 84.3 12.3999 83.3 12.0999C82.4 11.7999 81.4 11.9999 80.4 11.8999V19.8999H78.1V9.99995ZM87.5 19.9999C89 16.6999 90.5 13.2999 91.9 9.99995H94C95.5 13.2999 97 16.6999 98.4 19.9999H96C95.7 19.2999 95.4 18.4999 95 17.6999H91.6C91.9 17.0999 92.1 16.3999 92.4 15.6999H94.2C93.7 14.5999 93.3 13.5999 92.8 12.4999C91.7 14.9999 90.7 17.3999 89.7 19.8999C89 19.9999 88.3 19.9999 87.5 19.9999ZM108.8 9.99995H111.1V19.9999H108.8C108.7 16.6999 108.7 13.2999 108.8 9.99995ZM112.9 9.99995H115.2V17.9999H120V19.9999H112.9V9.99995Z" fill="white"/>
<path d="M9.8 0.9C11 0.5 12.2 0.2 13.4 0C13.7 2.3 14.4 4.4 15.5 6.5C16.6 4.5 17.3 2.3 17.6 0C18.8 0.2 20 0.5 21.2 0.9C20.9 2.8 20.5 4.5 19.7 6.2C21.7 5.5 23.5 4.3 24.9 2.9C25.9 3.6 26.8 4.4 27.6 5.3C25.2 7.8 21.9 9.6 18.4 10.2C19.4 11.3 20.7 12.3 21.9 13.1C24.1 11 26.8 9.5 29.7 8.6C30.2 9.7 30.6 10.8 30.9 12C28.9 12.6 27.1 13.6 25.6 14.9C27.4 15.5 29.3 15.9 31.3 16C31.2 17.2 31 18.4 30.6 19.5C24.9 19.2 19.5 16.7 15.7 12.7C11.8 16.7 6.4 19.2 0.7 19.5C0.3 18.3 0.1 17.2 0 16C1.9 15.9 3.8 15.6 5.7 14.9C4.1 13.6 2.3 12.7 0.4 12C0.7 10.8 1 9.7 1.6 8.6C4.5 9.5 7.2 11.1 9.4 13.1C10.7 12.3 11.9 11.4 12.9 10.2C9.4 9.6 6.1 7.8 3.7 5.3C4.5 4.3 5.4 3.6 6.3 2.8C7.7 4.3 9.5 5.5 11.5 6.1C10.6 4.5 10.1 2.7 9.8 0.9Z" fill="white"/>
<path d="M8.40002 18.2C9.60002 17.7 10.6 17.1 11.7 16.5C13 18.1 14.3 19.7 15.6 21.4C16.9 19.8 18.2 18.2 19.5 16.5C20.6 17.1 21.7 17.7 22.8 18.2C21.1 20.4 19.3 22.6 17.5 24.9C17.4 26.6 17.5 28.2 17.5 29.9C16.3 30.1 15 30.1 13.8 29.9V24.9C11.9 22.6 10.2 20.4 8.40002 18.2Z" fill="white"/>
</g>
<defs>
<clipPath id="clip0_1:248">
<rect width="120" height="30" fill="white"/>
</clipPath>
</defs>
</svg>
