<svg width="94" height="68" viewBox="0 0 94 68" fill="none" xmlns="http://www.w3.org/2000/svg">
<path d="M46.9235 10.5988C49.7748 10.5988 52.0862 8.30268 52.0862 5.47029C52.0862 2.6379 49.7748 0.341797 46.9235 0.341797C44.0722 0.341797 41.7607 2.6379 41.7607 5.47029C41.7607 8.30268 44.0722 10.5988 46.9235 10.5988Z" fill="white"/>
<path d="M37.7452 43.383C37.7452 43.383 39.1985 42.6992 40.6517 39.6221C42.1049 36.545 52.3921 14.6635 52.3921 14.6635C52.3921 14.6635 53.1952 12.4981 54.7249 12.4981C56.2546 12.4981 75.2229 12.4981 75.2229 12.4981C75.2229 12.4981 77.1732 12.4601 76.4466 14.0557C75.72 15.6512 63.6736 41.0657 63.6736 41.0657C63.6736 41.0657 62.7558 43.0791 60.729 43.421C58.5491 43.383 37.7452 43.383 37.7452 43.383Z" fill="white"/>
<path d="M42.4108 32.9363C42.4108 32.9363 39.122 40.4201 38.0129 41.7877C36.9039 43.1553 36.7509 43.3832 35.7566 43.4212C34.7241 43.4592 33.8445 42.8514 32.6972 41.3318C31.55 39.7743 17.6297 14.3597 17.6297 14.3597C17.6297 14.3597 16.7501 12.8402 18.7387 12.4983C20.8038 12.4983 39.5044 12.4983 39.5044 12.4983C39.5044 12.4983 41.5695 12.4983 42.4108 14.0178C43.2522 15.5374 47.1146 22.9452 47.1146 22.9452L45.9674 25.1106L41.0341 15.9173C41.0341 15.9173 40.4222 14.7776 39.4279 14.7776C38.5866 14.7776 37.7452 14.7776 37.7452 14.7776L44.8201 27.5039L43.6728 30.1251L35.6419 15.7273C35.6419 15.7273 35.03 14.6637 34.2269 14.7016C33.3856 14.7396 32.2383 14.7396 32.2383 14.7396L42.4108 32.9363Z" fill="white"/>
<path d="M8.222 63.6312H12.3522L10.3253 58.9586C10.3253 58.9586 11.6256 58.3128 11.7021 57.1351C11.7403 55.9575 11.7021 53.9441 11.7021 53.9441C11.7021 53.9441 11.3579 51.9307 8.26024 51.9307H4.13005H2.06496H0.420532V63.6312H4.13005V59.1106H6.57757L8.222 63.6312ZM4.13005 53.9061H7.03648H7.26594C7.26594 53.9061 8.10727 54.134 8.14551 54.8558C8.18375 55.5016 8.14551 56.0335 8.14551 56.0335C8.14551 56.0335 8.06903 56.9452 7.26594 57.0592H4.09181V53.9061H4.13005Z" fill="white"/>
<path d="M20.9185 54.8179H16.5588C14.9144 54.8179 13.5759 56.1475 13.5759 57.781V60.8581C13.5759 62.4916 14.9144 63.8212 16.5588 63.8212H20.9185C22.5629 63.8212 23.9014 62.4916 23.9014 60.8581V57.781C23.9014 56.1475 22.5629 54.8179 20.9185 54.8179ZM20.3448 61.124C20.3448 61.6179 19.9242 62.0358 19.427 62.0358H18.0503C17.5531 62.0358 17.1325 61.6179 17.1325 61.124V57.4771C17.1325 56.9832 17.5531 56.5654 18.0503 56.5654H19.427C19.9242 56.5654 20.3448 56.9832 20.3448 57.4771V61.124Z" fill="white"/>
<path d="M24.781 55.0078H28.3376L30.135 61.5799H30.4026L32.353 55.0078H35.7566L32.3148 65.9486C32.3148 65.9486 31.5882 67.6581 30.4409 67.6581C29.2936 67.6581 26.9226 67.8101 25.6988 67.3542C25.6988 66.4804 25.6988 65.8346 25.6988 65.8346C25.6988 65.8346 28.3376 66.1006 28.7582 65.9486C29.4466 65.8346 29.7143 64.581 29.9437 63.6693C29.5231 63.6693 27.5727 63.6693 27.5727 63.6693L24.781 55.0078Z" fill="white"/>
<path d="M82.6418 55.0077H86.1984L87.9576 61.5418H88.2253L90.1756 54.9697H93.5792L90.1374 65.9105C90.1374 65.9105 89.4108 67.62 88.2635 67.62C87.1162 67.62 84.7452 67.772 83.5214 67.3161C83.5214 66.4424 83.5214 65.7965 83.5214 65.7965C83.5214 65.7965 86.1602 66.0625 86.5808 65.9105C87.2692 65.7965 87.5369 64.5429 87.7663 63.6312C87.3457 63.6312 85.3953 63.6312 85.3953 63.6312L82.6418 55.0077Z" fill="white"/>
<path d="M43.9405 54.8176C40.1927 54.4757 37.2863 55.1215 37.2863 55.1215V56.4891C37.2863 56.4891 41.2635 55.9573 42.4873 56.4891C43.711 57.059 43.2139 58.5405 43.2139 58.5405C43.2139 58.5405 39.8485 58.3506 38.5483 58.4645C37.2481 58.5405 36.8274 59.4902 36.7509 59.8321C36.6744 60.174 36.6744 62.1495 37.0568 62.7953C37.4393 63.4031 38.663 63.9349 41.6459 63.859C44.6289 63.821 46.4263 63.4411 46.4263 63.4411C46.4263 63.4411 46.4263 57.7428 46.4263 56.6791C46.3115 55.7673 45.279 55.0076 43.9405 54.8176ZM43.2139 62.0735C43.2139 62.0735 41.8754 62.3394 40.7664 62.0735C39.6191 61.8076 39.8103 59.9461 40.5752 59.8701C41.34 59.7942 43.2139 59.8701 43.2139 59.8701V62.0735Z" fill="white"/>
<path d="M78.6263 54.8176C74.8785 54.4757 71.9721 55.1215 71.9721 55.1215V56.4891C71.9721 56.4891 75.9493 55.9573 77.1731 56.4891C78.3968 57.059 77.8997 58.5405 77.8997 58.5405C77.8997 58.5405 74.5343 58.3506 73.2341 58.4645C71.9338 58.5405 71.5132 59.4902 71.4367 59.8321C71.3602 60.174 71.3602 62.1495 71.7426 62.7953C72.1251 63.4031 73.3488 63.9349 76.3317 63.859C79.3146 63.821 81.112 63.4411 81.112 63.4411C81.112 63.4411 81.112 57.7428 81.112 56.6791C80.9973 55.7673 79.9648 55.0076 78.6263 54.8176ZM77.8997 62.0735C77.8997 62.0735 76.5612 62.3394 75.4522 62.0735C74.3049 61.8076 74.4961 59.9461 75.2609 59.8701C76.0258 59.7942 77.8997 59.8701 77.8997 59.8701V62.0735Z" fill="white"/>
<path d="M51.8567 51.0569H48.4913V63.7452H51.8567V51.0569Z" fill="white"/>
<path d="M65.1651 59.1106C65.8152 59.1106 68.3009 59.1865 68.8746 58.9586C68.8746 58.9586 70.1748 58.3128 70.2513 57.1351C70.2895 55.9575 70.2513 53.9441 70.2513 53.9441C70.2513 53.9441 69.9071 51.9307 66.8095 51.9307H62.7175H60.6525H59.0463V63.6312H62.7558V59.1106H65.1651ZM62.7175 53.9061H65.624H65.8534C65.8534 53.9061 66.6948 54.134 66.733 54.8558C66.7712 55.5016 66.733 56.0335 66.733 56.0335C66.733 56.0335 66.6565 56.9452 65.8534 57.0592H62.7175V53.9061Z" fill="white"/>
</svg>
