<svg width="100" height="13" viewBox="0 0 100 13" fill="none" xmlns="http://www.w3.org/2000/svg">
<path d="M0.875977 1.08252H2.94773L6.18169 7.5936L9.3988 1.08252H11.4874L6.18169 12.0218L0.875977 1.08252Z" fill="white"/>
<path d="M15.1929 1.08252H17.2646L20.4986 7.5936L23.7157 1.08252H25.8043L20.4986 12.0218L15.1929 1.08252Z" fill="white"/>
<path d="M60.839 12.0218H58.7504L55.5333 5.52826L52.2993 12.0218H50.2275L55.5333 1.08252L60.839 12.0218Z" fill="white"/>
<path d="M14.1826 1.08252H12.3804V12.0218H14.1826V1.08252Z" fill="white"/>
<path d="M75.4254 1.08252H73.6232V12.0218H75.4254V1.08252Z" fill="white"/>
<path d="M49.2337 3.06056V1.18774H43.4733C43.4733 1.18774 39.2624 1.48529 38.875 6.12357C38.4876 10.7618 42.749 11.9345 43.0353 11.9345C43.3217 11.9345 49.2337 11.9345 49.2337 11.9345V6.03605H44.0459V7.99638H47.4146V9.97421H43.4564C43.4564 9.97421 40.5425 9.3266 40.7951 6.2986C41.0478 3.27059 43.7596 3.02555 43.7596 3.02555L49.2337 3.06056Z" fill="white"/>
<path d="M99.2419 3.06056V1.18774H93.4814C93.4814 1.18774 89.2706 1.48529 88.8832 6.12357C88.4958 10.7618 92.7572 11.9345 93.0435 11.9345C93.3298 11.9345 99.2419 11.9345 99.2419 11.9345V6.03605H94.0541V7.99638H97.4228V9.97421H93.4646C93.4646 9.97421 90.5507 9.3266 90.8033 6.2986C91.056 3.27059 93.7678 3.02555 93.7678 3.02555L99.2419 3.06056Z" fill="white"/>
<path d="M63.5509 11.917H61.7318V1.18774L66.9196 5.33594L72.1243 1.18774V11.917H70.322V5.03839L66.9196 7.78634L63.5509 5.03839V11.917Z" fill="white"/>
<path d="M77.0254 12.0218H78.8613V5.09069L87.4178 12.0218V1.08252H85.5314V7.97867L77.0254 1.18754V12.0218Z" fill="white"/>
<path d="M31.6828 12.9321C35.0689 12.9321 37.8138 10.0796 37.8138 6.561C37.8138 3.04236 35.0689 0.189941 31.6828 0.189941C28.2967 0.189941 25.5518 3.04236 25.5518 6.561C25.5518 10.0796 28.2967 12.9321 31.6828 12.9321Z" fill="url(#paint0_linear_1:72)"/>
<path d="M31.6828 1.64258L27.5898 3.48038L31.6997 6.0183L35.8095 3.48038L31.6828 1.64258ZM31.7165 3.95296C31.2449 3.95296 30.8575 3.72542 30.8575 3.44538C30.8575 3.16533 31.2449 2.93779 31.7165 2.93779C32.1881 2.93779 32.5755 3.16533 32.5755 3.44538C32.5755 3.72542 32.1881 3.95296 31.7165 3.95296Z" fill="#201600"/>
<path d="M27.3203 3.83032V8.97618L31.4133 11.4616V6.36824L27.3203 3.83032ZM28.533 8.95868C28.3141 9.0812 27.9941 8.94117 27.8256 8.62612C27.6572 8.31107 27.7077 7.94351 27.9435 7.82099C28.1793 7.69847 28.4825 7.83849 28.651 8.15354C28.8025 8.4686 28.752 8.83616 28.533 8.95868ZM29.4931 8.22355C29.2742 8.34608 28.9541 8.20605 28.7857 7.891C28.6173 7.57595 28.6678 7.20839 28.9036 7.08587C29.1394 6.96334 29.4426 7.10337 29.611 7.41842C29.7626 7.73347 29.7121 8.10103 29.4931 8.22355ZM30.5543 7.48843C30.3353 7.61095 30.0153 7.47093 29.8468 7.15588C29.6784 6.84082 29.7289 6.47326 29.9647 6.35074C30.1837 6.22822 30.5037 6.36825 30.6722 6.6833C30.8406 6.99835 30.7901 7.34841 30.5543 7.48843Z" fill="#201600"/>
<path d="M31.9355 6.42075V11.4791L36.0622 8.85366V3.83032L31.9355 6.42075ZM32.5251 6.78832C32.7272 6.49077 33.0641 6.38575 33.2662 6.54327C33.4683 6.7008 33.4852 7.06836 33.283 7.34841C33.0809 7.64596 32.744 7.75098 32.5419 7.59345C32.3398 7.43592 32.3229 7.06836 32.5251 6.78832ZM33.3336 9.83382C33.1314 10.1314 32.7946 10.2364 32.5924 10.0789C32.3903 9.92134 32.3735 9.55378 32.5756 9.27373C32.7777 8.97618 33.1146 8.87116 33.3167 9.02869C33.5357 9.18621 33.5357 9.53627 33.3336 9.83382ZM34.361 7.97851C34.1589 8.27606 33.822 8.38108 33.6199 8.22355C33.4178 8.06603 33.4009 7.69847 33.6031 7.41842C33.8052 7.12087 34.142 7.01585 34.3442 7.17338C34.5463 7.33091 34.5631 7.68096 34.361 7.97851ZM35.439 8.59112C35.2369 8.88867 34.9 8.99368 34.6979 8.83616C34.4958 8.67863 34.4789 8.31107 34.681 8.03102C34.8832 7.75098 35.22 7.62846 35.4222 7.78598C35.6243 7.94351 35.6411 8.29357 35.439 8.59112ZM35.439 6.14071C35.2369 6.43826 34.9 6.54327 34.6979 6.38575C34.4958 6.22822 34.4789 5.86066 34.681 5.58061C34.8832 5.28306 35.22 5.17805 35.4222 5.33557C35.6243 5.4931 35.6411 5.84316 35.439 6.14071Z" fill="#201600"/>
<defs>
<linearGradient id="paint0_linear_1:72" x1="26.997" y1="2.46264" x2="36.6798" y2="10.2814" gradientUnits="userSpaceOnUse">
<stop stop-color="white"/>
<stop offset="1" stop-color="white"/>
</linearGradient>
</defs>
</svg>
