<svg width="90" height="50" viewBox="0 0 90 50" fill="none" xmlns="http://www.w3.org/2000/svg">
<path fill-rule="evenodd" clip-rule="evenodd" d="M0 38.8035C0 38.4208 0.312359 38.1106 0.697674 38.1106H89.3023C89.6876 38.1106 90 38.4208 90 38.8035C90 39.1862 89.6876 39.4964 89.3023 39.4964H0.697674C0.312359 39.4964 0 39.1862 0 38.8035Z" fill="white"/>
<path d="M32.0168 29.4993C29.9237 29.4993 28.1098 28.1134 27.6912 26.104C26.7842 23.1937 24.6912 21.3229 22.5982 19.452C22.1098 18.8976 21.3424 18.8284 20.7842 19.2441C20.7144 19.3134 20.6447 19.3827 20.5749 19.452C19.1098 20.8378 17.7144 22.2929 16.5284 23.8867C14.7842 26.3812 13.3889 29.0835 11.854 31.6473C10.1796 34.4883 6.90049 35.9434 3.69119 35.2505C1.947 34.904 0.621419 33.5875 0.202815 31.8552C-0.355325 30.2615 0.272581 28.4599 1.66793 27.4898C3.13305 26.4504 4.66793 25.6189 6.34235 24.9953C10.6679 23.263 14.5749 20.6992 17.9237 17.5118C18.9005 16.611 18.9005 16.3339 17.854 15.4331C14.5749 12.7307 10.6679 10.7905 6.55165 9.75114C5.71444 9.54327 4.87723 9.19681 4.10979 8.78106C2.71444 8.01885 1.66793 6.97947 1.66793 5.24718C1.59816 3.4456 2.50514 1.7826 4.04002 0.881804C6.27258 -0.504031 9.13305 -0.226864 11.0168 1.50543C12.0633 2.6141 13.04 3.72276 13.8772 4.97002C15.6214 7.39523 17.2261 9.95902 19.1098 12.2456C20.9935 14.5323 21.4121 14.6016 23.4354 12.3149C25.7377 9.68185 28.3191 7.25664 29.9237 3.99993C30.7609 2.33693 32.7842 1.85189 34.7377 2.5448C36.2726 3.02985 37.3191 4.55426 37.1098 6.14797C36.9005 7.74168 35.854 8.71177 34.3889 9.19681C31.4586 10.2362 28.8075 11.7606 26.3656 13.7008C23.0865 16.126 23.6447 16.5417 26.5749 18.3433C28.947 19.6599 31.4586 20.8378 33.9703 21.8079C35.2261 22.3622 36.3424 22.9859 36.6912 24.441C37.1796 27.0741 34.947 29.4993 32.0168 29.4993Z" fill="white"/>
<path d="M81.3424 5.17793C83.1563 5.17793 84.9703 5.10864 86.854 5.17793C88.8773 5.24723 89.9238 7.1181 88.8773 8.7811C88.3889 9.33544 87.761 9.6819 86.9935 9.75119C83.9935 9.82048 80.9936 9.75119 77.9936 9.82048C75.3424 9.82048 73.1796 10.8599 71.854 13.2158C69.6912 17.0268 72.6215 21.7387 77.2261 21.9465C78.4122 22.0158 79.5982 22.0158 80.7843 21.9465C82.7377 21.8772 83.5052 21.0457 83.5749 19.1056C83.5749 18.6205 83.5749 18.2048 83.5749 17.7197C83.5749 15.9182 84.2028 15.2945 86.0866 15.2945C86.6447 15.2945 87.1331 15.2945 87.6912 15.3638C88.5982 15.4331 89.2959 16.2646 89.2261 17.1654C89.2261 19.7292 89.2261 22.2237 89.2261 24.7875C89.2959 25.6883 88.5982 26.4505 87.6912 26.5198C87.6215 26.5198 87.5517 26.5198 87.4819 26.5198C83.7145 26.5198 79.8773 26.6584 76.0401 26.4505C73.4587 26.2426 71.0168 25.2725 69.0633 23.6095C62.7842 18.5512 64.0401 9.54331 71.575 6.2866C73.2494 5.66298 75.0633 5.24723 76.8773 5.10864C78.3424 5.10864 79.8773 5.10864 81.3424 5.17793Z" fill="white"/>
<path d="M39.6211 15.9873C39.6211 13.1464 39.6211 10.3054 39.6211 7.46444C39.6211 5.87073 40.1792 5.2471 41.7839 5.2471C46.6676 5.2471 51.6211 5.17781 56.5048 5.2471C60.2025 5.3164 62.9234 7.39515 63.5513 10.5133C63.9699 12.4534 63.2723 14.4629 61.8071 15.7794C60.5513 17.0267 58.9467 17.7889 57.2025 17.9968C55.3885 18.1354 53.5746 18.2047 51.7606 18.1354C50.0164 18.0661 49.3885 17.3039 49.4583 15.5023C49.5281 14.1164 50.2955 13.5621 51.9699 13.5621C52.8071 13.6314 53.6444 13.6314 54.4816 13.5621C55.1095 13.4928 55.6676 13.3542 56.2257 13.0078C56.9234 12.6613 57.2025 11.8298 56.9234 11.1369C56.7839 10.8597 56.5746 10.6519 56.2955 10.5133C55.7374 10.1668 55.1095 9.95894 54.4816 9.95894C52.3188 9.88965 50.2257 9.88965 48.0629 9.95894C46.1095 9.95894 45.4118 10.7212 45.4118 12.6613V24.4409C45.4118 26.2425 44.8536 26.7968 43.0397 26.7968C42.5513 26.7968 42.1327 26.7968 41.6443 26.7968C40.3188 26.6582 39.7606 26.1039 39.7606 24.7181C39.6211 21.7385 39.6211 18.8283 39.6211 15.9873Z" fill="white"/>
<path d="M0.697754 49.89L2.91648 46.5253L0.905898 43.442H2.43819L3.7402 45.5136L5.01564 43.442H6.53465L4.5152 46.5737L6.73393 49.89H5.15292L3.71363 47.6601L2.26991 49.89H0.697754Z" fill="white"/>
<path d="M7.58847 49.89V43.442H9.69206C10.4892 43.442 11.0088 43.4742 11.2509 43.5388C11.6229 43.6355 11.9344 43.8466 12.1854 44.1721C12.4363 44.4947 12.5618 44.9125 12.5618 45.4257C12.5618 45.8215 12.4895 46.1543 12.3448 46.4241C12.2001 46.6939 12.0156 46.9065 11.7912 47.0619C11.5698 47.2144 11.3439 47.3155 11.1136 47.3654C10.8007 47.4269 10.3475 47.4577 9.75406 47.4577H8.89934V49.89H7.58847ZM8.89934 44.5328V46.3625H9.61677C10.1334 46.3625 10.4789 46.3288 10.6531 46.2614C10.8273 46.1939 10.9631 46.0884 11.0605 45.9447C11.1609 45.801 11.2111 45.6339 11.2111 45.4433C11.2111 45.2087 11.1417 45.0152 11.0029 44.8627C10.8642 44.7102 10.6885 44.6149 10.4759 44.5768C10.3194 44.5475 10.005 44.5328 9.53263 44.5328H8.89934Z" fill="white"/>
<path d="M13.8238 49.89V43.442H16.5828C17.2766 43.442 17.78 43.5006 18.0929 43.6179C18.4088 43.7323 18.6613 43.9375 18.8502 44.2337C19.0392 44.5299 19.1336 44.8685 19.1336 45.2497C19.1336 45.7336 18.9905 46.1338 18.7041 46.4505C18.4177 46.7642 17.9896 46.9622 17.4198 47.0443C17.7032 47.2085 17.9365 47.3888 18.1195 47.5853C18.3055 47.7817 18.555 48.1307 18.8679 48.6321L19.6607 49.89H18.0929L17.1452 48.487C16.8086 47.9855 16.5783 47.6703 16.4543 47.5413C16.3303 47.4093 16.199 47.3199 16.0602 47.273C15.9214 47.2231 15.7015 47.1982 15.4003 47.1982H15.1346V49.89H13.8238ZM15.1346 46.169H16.1045C16.7334 46.169 17.126 46.1426 17.2825 46.0898C17.439 46.037 17.5615 45.9461 17.6501 45.8171C17.7386 45.6881 17.7829 45.5268 17.7829 45.3333C17.7829 45.1163 17.7239 44.9418 17.6058 44.8099C17.4906 44.675 17.3268 44.59 17.1142 44.5548C17.0079 44.5401 16.6891 44.5328 16.1576 44.5328H15.1346V46.169Z" fill="white"/>
<path d="M20.2893 46.7056C20.2893 46.0488 20.3882 45.4975 20.5861 45.0518C20.7337 44.7234 20.9344 44.4287 21.1883 44.1677C21.4452 43.9068 21.7257 43.7132 22.0298 43.5871C22.4343 43.4171 22.9007 43.332 23.4292 43.332C24.3858 43.332 25.1505 43.6267 25.7232 44.2161C26.2989 44.8055 26.5868 45.6251 26.5868 46.6748C26.5868 47.7158 26.3019 48.5309 25.7321 49.1203C25.1623 49.7068 24.4006 50 23.4469 50C22.4815 50 21.7139 49.7082 21.1441 49.1247C20.5742 48.5383 20.2893 47.7319 20.2893 46.7056ZM21.6401 46.6616C21.6401 47.3918 21.8098 47.946 22.1493 48.3242C22.4889 48.6995 22.9199 48.8872 23.4425 48.8872C23.9651 48.8872 24.3932 48.701 24.7268 48.3286C25.0634 47.9533 25.2316 47.3918 25.2316 46.644C25.2316 45.9051 25.0678 45.3538 24.7401 44.9902C24.4153 44.6266 23.9828 44.4448 23.4425 44.4448C22.9022 44.4448 22.4667 44.6296 22.1361 44.999C21.8054 45.3656 21.6401 45.9198 21.6401 46.6616Z" fill="white"/>
<path d="M30.8159 47.5193V46.4329H33.6414V49.0016C33.3668 49.2655 32.9682 49.4986 32.4457 49.7009C31.926 49.9003 31.399 50 30.8647 50C30.1856 50 29.5936 49.8593 29.0888 49.5778C28.5839 49.2933 28.2045 48.8887 27.9506 48.3638C27.6967 47.836 27.5698 47.2627 27.5698 46.644C27.5698 45.9725 27.7115 45.3758 27.9949 44.8539C28.2783 44.3319 28.6932 43.9317 29.2394 43.6531C29.6556 43.4391 30.1738 43.332 30.7938 43.332C31.5998 43.332 32.2287 43.5006 32.6804 43.8378C33.135 44.1721 33.4273 44.6354 33.5572 45.2277L32.2552 45.4697C32.1637 45.153 31.991 44.9037 31.7371 44.7219C31.4861 44.5372 31.1717 44.4448 30.7938 44.4448C30.221 44.4448 29.7649 44.6252 29.4254 44.9858C29.0888 45.3465 28.9205 45.8816 28.9205 46.5912C28.9205 47.3566 29.0917 47.9313 29.4342 48.3154C29.7767 48.6966 30.2255 48.8872 30.7805 48.8872C31.0551 48.8872 31.3297 48.8344 31.6042 48.7289C31.8818 48.6204 32.1194 48.4899 32.3172 48.3374V47.5193H30.8159Z" fill="white"/>
<path d="M40.8908 49.89H39.4648L38.8979 48.4254H36.3028L35.7669 49.89H34.3764L36.9051 43.442H38.2912L40.8908 49.89ZM38.4772 47.339L37.5827 44.9462L36.7058 47.339H38.4772Z" fill="white"/>
<path d="M41.7542 49.89V43.442H43.7161L44.8941 47.8404L46.0588 43.442H48.0251V49.89H46.8072V44.8143L45.5185 49.89H44.2564L42.9721 44.8143V49.89H41.7542Z" fill="white"/>
<path d="M49.4687 49.89V43.442H50.7795V49.89H49.4687Z" fill="white"/>
<path d="M52.2275 49.89V43.442H53.5029L56.1601 47.748V43.442H57.378V49.89H56.0627L53.4454 45.6852V49.89H52.2275Z" fill="white"/>
<path d="M61.9702 47.5193V46.4329H64.7957V49.0016C64.5211 49.2655 64.1225 49.4986 63.6 49.7009C63.0803 49.9003 62.5533 50 62.0189 50C61.3399 50 60.7479 49.8593 60.2431 49.5778C59.7382 49.2933 59.3588 48.8887 59.1049 48.3638C58.851 47.836 58.7241 47.2627 58.7241 46.644C58.7241 45.9725 58.8658 45.3758 59.1492 44.8539C59.4326 44.3319 59.8475 43.9317 60.3936 43.6531C60.8099 43.4391 61.3281 43.332 61.9481 43.332C62.7541 43.332 63.3829 43.5006 63.8347 43.8378C64.2893 44.1721 64.5816 44.6354 64.7115 45.2277L63.4095 45.4697C63.318 45.153 63.1453 44.9037 62.8914 44.7219C62.6404 44.5372 62.326 44.4448 61.9481 44.4448C61.3753 44.4448 60.9192 44.6252 60.5796 44.9858C60.2431 45.3465 60.0748 45.8816 60.0748 46.5912C60.0748 47.3566 60.246 47.9313 60.5885 48.3154C60.931 48.6966 61.3797 48.8872 61.9348 48.8872C62.2094 48.8872 62.4839 48.8344 62.7585 48.7289C63.036 48.6204 63.2737 48.4899 63.4715 48.3374V47.5193H61.9702Z" fill="white"/>
<path d="M66.1816 49.89V48.6541H67.4261V49.89H66.1816Z" fill="white"/>
<path d="M73.0502 47.5193L74.3212 47.9196C74.1264 48.6233 73.8016 49.1467 73.3469 49.4898C72.8952 49.8299 72.321 50 71.6242 50C70.7621 50 70.0535 49.7082 69.4985 49.1247C68.9434 48.5383 68.6659 47.7378 68.6659 46.7232C68.6659 45.65 68.9449 44.8172 69.5029 44.2249C70.0609 43.6297 70.7946 43.332 71.7039 43.332C72.4981 43.332 73.1432 43.5651 73.6392 44.0314C73.9345 44.307 74.1559 44.7029 74.3035 45.2189L73.0059 45.5268C72.9292 45.1926 72.7683 44.9287 72.5232 44.7351C72.2811 44.5416 71.9859 44.4448 71.6375 44.4448C71.1563 44.4448 70.7651 44.6164 70.4639 44.9594C70.1657 45.3025 70.0166 45.8582 70.0166 46.6264C70.0166 47.4416 70.1643 48.0222 70.4595 48.3682C70.7547 48.7142 71.1385 48.8872 71.6109 48.8872C71.9593 48.8872 72.259 48.7773 72.5099 48.5573C72.7609 48.3374 72.941 47.9914 73.0502 47.5193Z" fill="white"/>
<path d="M75.3662 46.7056C75.3662 46.0488 75.4651 45.4975 75.6629 45.0518C75.8105 44.7234 76.0113 44.4287 76.2652 44.1677C76.5221 43.9068 76.8026 43.7132 77.1066 43.5871C77.5111 43.4171 77.9776 43.332 78.5061 43.332C79.4627 43.332 80.2273 43.6267 80.8001 44.2161C81.3758 44.8055 81.6637 45.6251 81.6637 46.6748C81.6637 47.7158 81.3788 48.5309 80.809 49.1203C80.2391 49.7068 79.4774 50 78.5238 50C77.5584 50 76.7907 49.7082 76.2209 49.1247C75.6511 48.5383 75.3662 47.7319 75.3662 46.7056ZM76.7169 46.6616C76.7169 47.3918 76.8867 47.946 77.2262 48.3242C77.5657 48.6995 77.9968 48.8872 78.5194 48.8872C79.0419 48.8872 79.47 48.701 79.8037 48.3286C80.1402 47.9533 80.3085 47.3918 80.3085 46.644C80.3085 45.9051 80.1447 45.3538 79.8169 44.9902C79.4922 44.6266 79.0597 44.4448 78.5194 44.4448C77.9791 44.4448 77.5436 44.6296 77.2129 44.999C76.8823 45.3656 76.7169 45.9198 76.7169 46.6616Z" fill="white"/>
<path d="M82.8548 49.89V43.442H84.8167L85.9947 47.8404L87.1594 43.442H89.1257V49.89H87.9078V44.8143L86.6191 49.89H85.3569L84.0726 44.8143V49.89H82.8548Z" fill="white"/>
</svg>
