<svg width="90" height="53" viewBox="0 0 90 53" fill="none" xmlns="http://www.w3.org/2000/svg">
<path d="M44.9565 0.000164224C42.8913 0.000160395 40.8464 0.406241 38.9389 1.19517C37.0313 1.98409 35.2985 3.14037 33.8396 4.59783C32.3807 6.05528 31.2244 7.7853 30.4369 9.68886C29.6494 11.5924 29.246 13.6322 29.25 15.6913C29.2473 17.2277 29.4797 18.7555 29.9392 20.222C30.227 19.8218 30.5147 19.4216 30.7722 18.9911C31.8703 17.3903 32.9305 15.7744 34.0059 14.1282L34.7632 12.8974C35.0207 12.4897 35.2781 12.0592 35.5205 11.659C36.0354 10.8284 36.5277 9.99025 36.9897 9.15963C37.2168 8.72922 37.4516 8.32901 37.747 7.89105C38.0423 7.45309 38.2089 7.06043 38.4361 6.63002C38.6633 6.1996 38.8981 5.76919 39.1025 5.36143L39.7462 4.07775L39.8068 3.99469C39.9763 3.66066 40.2688 3.40495 40.6231 3.28109C40.9774 3.15723 41.3661 3.17483 41.7076 3.33019C41.965 3.47036 42.1775 3.68001 42.3209 3.9351C42.4642 4.1902 42.5325 4.48041 42.518 4.77245C42.518 5.52756 42.3741 6.28267 42.3135 7.03778C42.2529 7.79288 42.2302 8.54799 42.1696 9.3031C42.1166 10.8133 42.0863 12.3764 42.0863 13.9017C42.0863 15.427 42.1696 16.9221 42.3135 18.4324C42.4044 19.1875 42.518 19.8746 42.6618 20.592C42.7624 21.2299 42.9537 21.8503 43.2298 22.4344C43.3152 22.6177 43.4332 22.784 43.5782 22.9253C43.6615 22.9857 43.5782 22.9253 43.6615 22.9253H43.7221H43.7751H43.8584C43.9005 22.9002 43.941 22.8724 43.9795 22.8422C44.2091 22.6626 44.4197 22.4602 44.6081 22.2381C45.0729 21.7033 45.4981 21.1354 45.8804 20.5391C46.2817 19.9426 46.6377 19.2781 47.0315 18.6136C47.7888 17.2921 48.4703 15.9405 49.1368 14.5662C49.4548 13.8715 49.8032 13.1844 50.1137 12.467C50.4242 11.7497 50.7801 11.0323 51.1058 10.3527C51.2544 10.0116 51.5306 9.74178 51.8758 9.60074C52.2209 9.4597 52.6076 9.45857 52.9536 9.59759C53.1791 9.68302 53.3778 9.82658 53.5295 10.0136C53.6812 10.2007 53.7803 10.4245 53.8169 10.6623C53.8249 10.8747 53.8451 11.0865 53.8775 11.2966L53.9608 11.9535C54.0214 12.3839 54.0744 12.8219 54.1653 13.2523C54.304 14.1117 54.4859 14.9635 54.7105 15.8046C54.9392 16.6495 55.2277 17.4772 55.5738 18.2813C55.9158 19.0903 56.3612 19.8517 56.8991 20.5467C56.954 20.6242 56.9789 20.7189 56.9691 20.8133C56.9594 20.9077 56.9157 20.9954 56.8461 21.0601C56.7817 21.1149 56.6998 21.145 56.6151 21.145C56.5305 21.145 56.4486 21.1149 56.3841 21.0601C55.6685 20.4276 55.0304 19.7128 54.4833 18.9307C53.9436 18.1531 53.4603 17.338 53.0369 16.4917C52.7491 15.9179 52.5219 15.344 52.2796 14.7701C52.113 15.1099 51.9691 15.4572 51.7949 15.7744C51.0376 17.1487 50.3485 18.5381 49.5381 19.9426C49.1525 20.673 48.7305 21.3837 48.2734 22.072C47.82 22.7881 47.3138 23.4696 46.7588 24.1108C46.4349 24.4779 46.0775 24.8141 45.691 25.1151C45.5794 25.2107 45.4544 25.2895 45.32 25.3492L45.0625 25.4926L44.9186 25.553H44.8277H44.7747H44.6611C44.5872 25.5872 44.5076 25.6076 44.4264 25.6134L43.9114 25.6965C43.5304 25.7397 43.1447 25.709 42.7754 25.6059C42.4302 25.4817 42.1097 25.2977 41.8288 25.0622C41.3872 24.6861 41.0243 24.2268 40.761 23.7106C40.3537 22.9014 40.0606 22.04 39.8901 21.1508C39.7235 20.3503 39.6023 19.5122 39.519 18.7118C39.3449 17.0958 39.2918 15.5176 39.2616 13.9093V11.6439C38.9738 12.1952 38.686 12.7388 38.3982 13.2523C38.1105 13.7658 37.9363 14.1207 37.6409 14.5511L36.9215 15.8423C35.9446 17.564 34.9374 19.263 33.8923 20.962C33.2259 22.0493 32.5367 23.1442 31.84 24.2089C33.325 26.4909 35.3799 28.3482 37.8029 29.5984C40.2258 30.8486 42.9333 31.4486 45.6592 31.3395C48.3852 31.2303 51.0357 30.4158 53.3503 28.9759C55.6649 27.536 57.5638 25.5203 58.8605 23.127C60.1573 20.7337 60.8071 18.0452 60.7461 15.3256C60.6851 12.6061 59.9154 9.94917 58.5127 7.61605C57.11 5.28293 55.1226 3.35391 52.7458 2.01862C50.369 0.683324 47.6846 -0.0122856 44.9565 0.000164224Z" fill="white"/>
<path d="M9.24434 49.9209V39.8878H8.99108L5.70602 49.95H4.87917L1.59411 39.8878H1.35574V49.9209H0V38.832H2.40607L5.32612 47.6492L8.19402 38.832H10.6299V49.95H9.26669L9.24434 49.9209Z" fill="white"/>
<path d="M12.5889 40.2731V38.8169H14.0787V40.2731H12.5889ZM12.5889 49.9203V41.3579H14.034V49.9203H12.5889Z" fill="white"/>
<path d="M22.8317 47.1245C22.8317 48.7846 22.1762 50.0369 19.3381 50.0369C15.77 50.0369 15.5688 48.0419 15.5688 45.6028C15.5688 43.1637 15.77 41.1687 19.3381 41.1687C22.1762 41.1687 22.8317 42.4429 22.8317 44.0811H21.4685C21.4685 42.7195 20.9843 42.057 19.3381 42.057C17.1034 42.057 17.014 43.2219 17.014 45.5445C17.014 47.8672 17.1332 49.0394 19.3381 49.0394C20.9843 49.0394 21.4685 48.3695 21.4685 47.0153L22.8317 47.1245Z" fill="white"/>
<path d="M25.6326 42.2535C26.3338 41.739 27.1514 41.3968 28.0163 41.256C28.1874 41.2451 28.3591 41.2451 28.5303 41.256C28.7538 41.256 28.9549 41.256 29.2082 41.256L29.0964 42.2826C28.8881 42.2687 28.679 42.2687 28.4707 42.2826C28.2922 42.2687 28.1128 42.2687 27.9344 42.2826C27.1458 42.4251 26.4 42.7385 25.7518 43.2V49.9348H24.3066V41.3579H25.4389L25.6326 42.2535Z" fill="white"/>
<path d="M37.3198 45.6536C37.3198 48.0927 37.1187 50.0876 33.491 50.0876C29.8632 50.0876 29.6621 48.0781 29.6621 45.6536C29.6621 43.229 29.8632 41.2195 33.491 41.2195C37.1187 41.2195 37.3198 43.2145 37.3198 45.6536ZM31.1072 45.6536C31.1072 47.9835 31.219 49.1411 33.491 49.1411C35.7629 49.1411 35.8747 48.0053 35.8747 45.6536C35.8747 43.3018 35.7555 42.1587 33.491 42.1587C31.2264 42.1587 31.1072 43.2945 31.1072 45.6536Z" fill="white"/>
<path d="M39.9569 51.9152C40.6352 51.9792 41.3165 52.0084 41.998 52.0025C44.2327 52.0025 44.4934 51.4201 44.5232 49.1411C43.7678 49.5982 42.913 49.875 42.0278 49.9493C38.8172 50.0003 38.6235 48.3111 38.6235 45.6536C38.6235 42.996 38.7949 41.2195 41.8862 41.2195C42.8832 41.2769 43.8446 41.6019 44.6648 42.1587L44.8063 41.3869H45.9386V48.9809C45.9386 52.0535 45.2309 53 42.3332 53C41.4904 52.99 40.6492 52.9243 39.8154 52.8034L39.9569 51.9152ZM44.5605 42.9378C43.9027 42.4828 43.1296 42.2132 42.3257 42.1587C40.2027 42.1587 40.091 43.3237 40.091 45.6536C40.091 47.9835 40.2325 49.0028 42.3257 49.0028C43.1029 48.9262 43.852 48.6771 44.5158 48.2747L44.5605 42.9378Z" fill="white"/>
<path d="M53.7901 49.9202L53.6485 49.1411C52.8686 49.696 51.9442 50.0241 50.9818 50.0876C47.7786 50.1386 47.585 48.3693 47.585 45.6536C47.585 42.9378 47.7488 41.2195 50.9296 41.2195C51.8917 41.2724 52.8211 41.5793 53.6187 42.1078L53.7603 41.3797H54.9V49.9202H53.7901ZM53.4996 42.8795C52.843 42.4678 52.0941 42.2179 51.317 42.1514C49.194 42.1514 49.0822 43.3164 49.0822 45.6463C49.0822 47.9762 49.2238 49.1338 51.317 49.1338C52.0987 49.0627 52.8495 48.7997 53.4996 48.3694V42.8795Z" fill="white"/>
<path d="M57.9692 42.1078C58.7001 41.6109 59.5489 41.3051 60.4349 41.2196C61.9247 41.1613 62.6696 41.5545 63.0421 42.1588C63.8026 41.6312 64.6912 41.3073 65.6195 41.2196C68.5991 41.1322 68.83 42.6321 68.83 44.7071V49.9203H67.3775V44.8236C67.3775 43.0471 67.2657 42.1879 65.3141 42.1879C64.5746 42.2642 63.8696 42.5332 63.273 42.967C63.4137 43.5856 63.4688 44.2198 63.4369 44.8528V49.9494H62.1929V44.7945C62.1929 43.018 62.0811 42.1588 60.122 42.1588C59.4122 42.2459 58.7333 42.4954 58.1406 42.8869V49.9276H56.688V41.3579H57.8277L57.9692 42.1078Z" fill="white"/>
<path d="M70.6322 40.2731V38.8169H72.122V40.2731H70.6322ZM70.6322 49.9203V41.3579H72.0773V49.9203H70.6322Z" fill="white"/>
<path d="M75.1389 42.108C75.9424 41.6078 76.8569 41.3032 77.8057 41.2197C81.0088 41.1323 81.2099 42.6322 81.2099 44.7073V49.9204H79.7648V44.8237C79.7648 43.0472 79.6233 42.1881 77.5301 42.1881C76.7528 42.2537 76.0036 42.5036 75.3475 42.9161V49.9568H73.9023V41.358H75.0346L75.1389 42.108Z" fill="white"/>
<path d="M84.0404 51.9152C84.7187 51.9792 85.4 52.0084 86.0815 52.0025C88.3162 52.0025 88.5769 51.4201 88.6067 49.1411C87.8513 49.5982 86.9964 49.875 86.1113 49.9493C82.9082 50.0003 82.707 48.3111 82.707 45.6536C82.707 42.996 82.8784 41.2195 85.9697 41.2195C86.9669 41.2754 87.9288 41.6005 88.7483 42.1587L88.8898 41.3869H89.9997V48.9809C89.9997 52.0535 89.292 53 86.4018 53C85.5565 52.9903 84.7128 52.9246 83.8765 52.8034L84.0404 51.9152ZM88.5769 42.9378C87.9346 42.4905 87.1804 42.2213 86.3943 42.1587C84.2639 42.1587 84.1596 43.3237 84.1596 45.6536C84.1596 47.9835 84.3011 49.0028 86.3943 49.0028C87.1692 48.9261 87.9158 48.677 88.5769 48.2747V42.9378Z" fill="white"/>
</svg>
